<svg xmlns="http://www.w3.org/2000/svg" viewBox="0 0 128 128" id="twenty-for-hours">
  <path d="M64 0a64 64 0 1 0 64 64A64.072 64.072 0 0 0 64 0Zm0 124a60 60 0 1 1 60-60 60.068 60.068 0 0 1-60 60Z"></path>
  <path d="M42.132 79.541A2 2 0 0 0 43.5 83h20a2 2 0 0 0 0-4H48.518c5.099-4.936 10.49-10.78 13.515-17.642a12.95 12.95 0 0 0-1.503-12.78 9.339 9.339 0 0 0-9.316-3.39 14.461 14.461 0 0 0-7.515 4.48 2 2 0 1 0 2.9 2.757 10.504 10.504 0 0 1 5.345-3.304 5.298 5.298 0 0 1 5.45 1.939 8.921 8.921 0 0 1 .98 8.685c-3.437 7.792-10.537 14.448-16.242 19.796zM84.5 83a2 2 0 0 0 2-2V47a2 2 0 0 0-4 0v14h-10V47a2 2 0 0 0-4 0v16a2 2 0 0 0 2 2h12v16a2 2 0 0 0 2 2z"></path>
  <path d="M109.161 69.597a1.998 1.998 0 0 0-2.357 1.562 42.991 42.991 0 0 1-83.594 3.5l3.12 3.022a2 2 0 1 0 2.783-2.873l-8.318-8.054a2.022 2.022 0 0 0-3.3.84S14.112 78.43 14.09 78.503c-.766 2.454 3.045 3.67 3.818 1.191l1.35-4.328a46.988 46.988 0 0 0 91.465-3.41 2 2 0 0 0-1.563-2.358zM18.84 58.403a2.001 2.001 0 0 0 2.357-1.562 42.991 42.991 0 0 1 83.594-3.5l-3.12-3.022a2 2 0 1 0-2.783 2.873s8.273 8.01 8.318 8.054a2.04 2.04 0 0 0 3.3-.84l3.404-10.908a2 2 0 0 0-3.818-1.191l-1.35 4.328a46.988 46.988 0 0 0-91.465 3.41 2 2 0 0 0 1.563 2.358z"></path>
  <circle cx="64" cy="10" r="2"></circle>
  <circle cx="43.335" cy="14.11" r="2" transform="rotate(-22.5 43.335 14.11)"></circle>
  <circle cx="25.816" cy="25.816" r="2" transform="rotate(-45 25.816 25.816)"></circle>
  <circle cx="14.111" cy="43.335" r="2" transform="rotate(-67.501 14.11 43.335)"></circle>
  <circle cx="10" cy="64" r="2"></circle>
  <circle cx="14.111" cy="84.665" r="2" transform="rotate(-22.5 14.11 84.665)"></circle>
  <circle cx="25.816" cy="102.184" r="2" transform="rotate(-45 25.816 102.184)"></circle>
  <circle cx="43.335" cy="113.889" r="2" transform="rotate(-67.5 43.335 113.89)"></circle>
  <circle cx="64" cy="118" r="2"></circle>
  <circle cx="84.665" cy="113.889" r="2" transform="rotate(-22.5 84.665 113.89)"></circle>
  <circle cx="102.184" cy="102.184" r="2" transform="rotate(-45 102.184 102.184)"></circle>
  <circle cx="113.889" cy="84.665" r="2" transform="rotate(-67.5 113.89 84.665)"></circle>
  <circle cx="118" cy="64" r="2"></circle>
  <circle cx="113.889" cy="43.335" r="2" transform="rotate(-22.499 113.89 43.335)"></circle>
  <circle cx="102.184" cy="25.816" r="2" transform="rotate(-45 102.184 25.816)"></circle>
  <circle cx="84.665" cy="14.11" r="2" transform="rotate(-67.5 84.665 14.11)"></circle>
</svg>
