<svg xmlns="http://www.w3.org/2000/svg" viewBox="0 0 32 32" id="computer-setting">
  <path d="M2,24H13v2H11v2H21V26H19V24H30V4H2Zm15,2H15V24h2ZM4,6H28V22H4Z"></path>
  <path d="M11.76,16.83l1.41,1.41.81-.81a4,4,0,0,0,1,.42V19h2V17.86a4,4,0,0,0,1-.42l.81.81,1.41-1.41L19.43,16a4,4,0,0,0,.42-1H21V13H19.86a4,4,0,0,0-.42-1l.81-.81L18.83,9.76l-.81.81a4,4,0,0,0-1-.42V9H15v1.14a4,4,0,0,0-1,.42l-.81-.81-1.41,1.41.81.81a4,4,0,0,0-.42,1H11v2h1.14a4,4,0,0,0,.42,1ZM16,12a2,2,0,1,1-2,2A2,2,0,0,1,16,12Z"></path>
</svg>
