<svg xmlns="http://www.w3.org/2000/svg" width="32" height="32" id="document">
  <g color="#000" font-family="sans-serif" font-weight="400">
    <path fill="#2b4255" fill-rule="evenodd" d="M6 1026.373v1h9v-1H6zm0 3v1h13v-1H6zm0 3v1h13v-1H6z" overflow="visible" style="line-height:normal;text-indent:0;text-align:start;text-decoration-line:none;text-decoration-style:solid;text-decoration-color:#000;text-transform:none;block-progression:tb;isolation:auto;mix-blend-mode:normal" transform="translate(0 -1020.362)"></path>
    <path fill="#2b4255" d="M3.5 1022.373a.5.5 0 0 0-.5.5v11.988a.5.5 0 1 0 1 0v-11.488h13.293L22 1028.07v3.61a.5.5 0 1 0 1 0v-3.819a.5.5 0 0 0-.146-.353l-5-4.988a.5.5 0 0 0-.354-.147h-14zm-.008 13.982a.5.5 0 0 0-.492.506v1a.5.5 0 1 0 1 0v-1a.5.5 0 0 0-.508-.506zm19 .917a.5.5 0 0 0-.492.505v9.584h-9.793a.5.5 0 1 0 0 1H22.5a.5.5 0 0 0 .5-.5v-10.084a.5.5 0 0 0-.508-.506zm-19 2.074a.5.5 0 0 0-.492.507V1047.861a.5.5 0 0 0 .5.5h4.234a.5.5 0 1 0 0-1H4V1039.853a.5.5 0 0 0-.508-.507z" overflow="visible" style="line-height:normal;text-indent:0;text-align:start;text-decoration-line:none;text-decoration-style:solid;text-decoration-color:#000;text-transform:none;block-progression:tb;isolation:auto;mix-blend-mode:normal" transform="translate(0 -1020.362)"></path>
    <path fill="#f05542" d="M8.611 1045.268a.5.5 0 0 0-.466.341l-1.416 4.243a.5.5 0 0 0 .632.632l4.244-1.414a.5.5 0 0 0 .196-.828l-2.83-2.828a.5.5 0 0 0-.36-.146zm.225 1.425 1.685 1.684-2.527.842.842-2.526z" overflow="visible" style="line-height:normal;text-indent:0;text-align:start;text-decoration-line:none;text-decoration-style:solid;text-decoration-color:#000;text-transform:none;block-progression:tb;isolation:auto;mix-blend-mode:normal" transform="translate(0 -1020.362)"></path>
    <path fill="#f05542" fill-rule="evenodd" d="m25.588 1030.918-15.557 15.557.71.707 15.554-15.557-.707-.707z" overflow="visible" style="line-height:normal;text-indent:0;text-align:start;text-decoration-line:none;text-decoration-style:solid;text-decoration-color:#000;text-transform:none;block-progression:tb;isolation:auto;mix-blend-mode:normal" transform="translate(0 -1020.362)"></path>
    <path fill="#f05542" d="M24.528 1029.857a.5.5 0 0 0-.707 0l-15.557 15.556a.5.5 0 0 0 0 .707l2.829 2.829a.5.5 0 0 0 .707 0l15.556-15.557a.5.5 0 0 0 0-.707l-2.828-2.828zm-.354 1.06 2.122 2.122-14.85 14.85-2.121-2.122 14.85-14.85z" overflow="visible" style="line-height:normal;text-indent:0;text-align:start;text-decoration-line:none;text-decoration-style:solid;text-decoration-color:#000;text-transform:none;block-progression:tb;isolation:auto;mix-blend-mode:normal" transform="translate(0 -1020.362)"></path>
    <path fill="#f05542" d="M26.295 1028.215c-.513 0-1.025.193-1.414.582l-1.06 1.06a.5.5 0 0 0 0 .708l2.827 2.828a.5.5 0 0 0 .707 0l1.063-1.061a2.006 2.006 0 0 0 0-2.828l-.709-.707a1.992 1.992 0 0 0-1.414-.582zm0 .99c.254 0 .508.1.707.299l.707.707a.987.987 0 0 1 0 1.414l-.707.707-2.121-2.121.707-.707a.997.997 0 0 1 .707-.299z" overflow="visible" style="line-height:normal;text-indent:0;text-align:start;text-decoration-line:none;text-decoration-style:solid;text-decoration-color:#000;text-transform:none;block-progression:tb;isolation:auto;mix-blend-mode:normal" transform="translate(0 -1020.362)"></path>
    <path fill="#2b4255" fill-rule="evenodd" d="M17.492 1022.361a.5.5 0 0 0-.492.5v5a.5.5 0 0 0 .5.5h5.012a.5.5 0 0 0 .353-.853l-5.011-5a.5.5 0 0 0-.362-.147zm.508 1.707 3.3 3.293H18v-3.293z" overflow="visible" style="line-height:normal;text-indent:0;text-align:start;text-decoration-line:none;text-decoration-style:solid;text-decoration-color:#000;text-transform:none;block-progression:tb;isolation:auto;mix-blend-mode:normal" transform="translate(0 -1020.362)"></path>
  </g>
</svg>
