<svg xmlns="http://www.w3.org/2000/svg" xml:space="preserve" style="shape-rendering:geometricPrecision;text-rendering:geometricPrecision;image-rendering:optimizeQuality;fill-rule:evenodd;clip-rule:evenodd" viewBox="0 0 7640 7640" id="discord">
  <g id="Layer_x0020_1">
    <rect width="7620" height="7620" x="10" y="10" rx="1690" ry="1690" style="stroke:#000;stroke-width:20;fill:#000"></rect>
    <path d="M1674 4928c118,135 250,256 394,364 224,169 469,298 734,392 18,7 19,11 7,26 -66,87 -131,174 -196,262 -9,12 -19,16 -34,15 -150,-7 -297,-30 -443,-64 -310,-71 -600,-189 -865,-367 -157,-106 -298,-229 -424,-371 -7,-8 -8,-16 -7,-26 9,-139 21,-278 35,-417 16,-146 35,-292 59,-437 74,-452 183,-895 343,-1325 93,-252 201,-497 338,-729 23,-40 52,-71 90,-97 272,-191 567,-333 887,-424 130,-37 262,-63 396,-77 14,-2 22,1 28,15 15,34 31,66 49,98 7,14 7,18 -10,22 -162,37 -319,87 -472,152 -238,100 -454,237 -653,402 -37,31 -74,63 -111,95 -4,3 -9,6 -10,12 9,3 15,-3 22,-7 190,-96 381,-190 580,-267 230,-90 467,-157 712,-197 286,-48 573,-62 862,-53 388,13 766,77 1132,208 239,85 467,195 693,310 7,3 14,6 20,9 3,1 5,4 7,0 0,0 -3,-2 -4,-3 -63,-61 -131,-115 -199,-170 -235,-189 -499,-323 -785,-415 -88,-29 -177,-54 -267,-76 -13,-4 -14,-7 -8,-19 16,-31 33,-63 47,-96 8,-18 19,-22 38,-20 105,11 209,28 311,54 364,92 693,255 998,471 14,10 25,22 34,37 104,166 188,342 265,522 115,273 209,554 285,840 71,270 126,543 167,819 32,207 54,414 72,623 3,46 6,92 9,138 1,13 -3,22 -11,32 -232,262 -513,454 -834,590 -201,85 -410,144 -626,179 -90,15 -181,26 -273,29 -12,1 -19,-2 -27,-12 -66,-90 -133,-179 -201,-268 -11,-15 -5,-17 8,-22 253,-89 489,-212 705,-370 155,-114 298,-242 424,-387 2,-2 4,-4 6,-6 2,-1 4,-1 6,-2l0 0c-2,-1 -3,-2 -5,-2 -3,1 0,3 -1,4 -5,-5 -6,0 -9,3 -54,37 -106,75 -160,110 -242,159 -500,283 -776,370 -186,60 -377,103 -570,131 -284,42 -569,53 -855,40 -376,-17 -744,-81 -1099,-208 -285,-103 -550,-245 -795,-424 -10,-7 -19,-13 -29,-19 -2,-3 -4,-9 -10,-3 0,-1 4,-3 0,-4 -2,0 -3,1 -5,2 1,0 1,-1 1,-1 0,0 0,1 -1,1 2,1 4,1 6,2 2,2 4,4 5,6zm791 -845c1,32 1,59 5,85 19,143 78,265 189,359 174,150 431,138 591,-28 88,-90 140,-198 156,-322 25,-191 -24,-360 -160,-499 -171,-173 -450,-170 -619,5 -110,113 -159,250 -162,400zm2710 29c0,-161 -43,-287 -131,-394 -88,-107 -202,-168 -342,-169 -139,0 -253,61 -342,166 -72,85 -115,184 -127,294 -24,204 31,381 189,519 171,150 428,137 588,-26 112,-115 162,-253 165,-390zm-3368 -1661c-1,0 -1,-1 -2,-1 0,1 -1,2 -1,2 0,1 1,1 1,2 1,-1 1,-2 2,-3z" style="fill:#fff"></path>
  </g>
</svg>
