<svg xmlns="http://www.w3.org/2000/svg" viewBox="0 0 24 24" id="chip">
  <g>
    <path fill="#7fbde7" d="M9 5.75A.75.75 0 0 1 8.25 5V1a.75.75 0 0 1 1.5 0v4a.75.75 0 0 1-.75.75zm6 0a.75.75 0 0 1-.75-.75V1a.75.75 0 0 1 1.5 0v4a.75.75 0 0 1-.75.75zm8 4h-4a.75.75 0 0 1 0-1.5h4a.75.75 0 0 1 0 1.5zm0 6h-4a.75.75 0 0 1 0-1.5h4a.75.75 0 0 1 0 1.5zm-8 8a.75.75 0 0 1-.75-.75v-4a.75.75 0 0 1 1.5 0v4a.75.75 0 0 1-.75.75zm-6 0a.75.75 0 0 1-.75-.75v-4a.75.75 0 0 1 1.5 0v4a.75.75 0 0 1-.75.75zm-4-8H1a.75.75 0 0 1 0-1.5h4a.75.75 0 0 1 0 1.5zm0-6H1a.75.75 0 0 1 0-1.5h4a.75.75 0 0 1 0 1.5z"></path>
    <path fill="#232323" d="M16 19.75H8A3.755 3.755 0 0 1 4.25 16V8A3.755 3.755 0 0 1 8 4.25h8A3.755 3.755 0 0 1 19.75 8v8A3.755 3.755 0 0 1 16 19.75Zm-8-14A2.253 2.253 0 0 0 5.75 8v8A2.253 2.253 0 0 0 8 18.25h8A2.253 2.253 0 0 0 18.25 16V8A2.253 2.253 0 0 0 16 5.75Z"></path>
  </g>
</svg>
