<svg xmlns="http://www.w3.org/2000/svg" viewBox="0 0 64 64" id="flyer">
  <path d="M46.5 57h-29a.5.5 0 0 1-.5-.5v-55a.5.5 0 0 1 .5-.5h29a.5.5 0 0 1 .5.5v55a.5.5 0 0 1-.5.5zM18 56h28V2H18v54z"></path>
  <path d="M62.5 63h-27a.5.5 0 0 1-.5-.5v-6a.5.5 0 0 1 1 0V62h26V8H46.5a.5.5 0 0 1 0-1h16a.5.5 0 0 1 .5.5v55a.5.5 0 0 1-.5.5zm-61-25a.5.5 0 0 1-.5-.5v-30a.5.5 0 0 1 .5-.5h16a.5.5 0 0 1 0 1H2v29.5a.5.5 0 0 1-.5.5zm27 25h-27a.5.5 0 0 1-.5-.5v-12a.5.5 0 0 1 1 0V62h26v-5.5a.5.5 0 0 1 1 0v6a.5.5 0 0 1-.5.5z"></path>
  <path d="M35.5 63a.5.5 0 0 1-.5-.5v-6a.5.5 0 0 1 .5-.5h11a.499.499 0 0 1 .239.938l-11 6A.492.492 0 0 1 35.5 63zm.5-6v4.658L44.539 57H36zm-7.5 6a.503.503 0 0 1-.239-.061l-11-6A.499.499 0 0 1 17.5 56h11a.5.5 0 0 1 .5.5v6a.5.5 0 0 1-.5.5zm-9.039-6L28 61.658V57h-8.539zm14.542-42h-4.006A2 2 0 0 1 28 13.003V8.997A2 2 0 0 1 29.997 7h4.006A2 2 0 0 1 36 8.997v4.006A2 2 0 0 1 34.003 15zm-4.006-7a.998.998 0 0 0-.997.997v4.006c0 .55.447.997.997.997h4.006c.55 0 .997-.447.997-.997V8.997A.998.998 0 0 0 34.003 8h-4.006zm9.002 43H25.001A2.002 2.002 0 0 1 23 48.999v-4.998c0-1.104.897-2.001 2.001-2.001h13.998c1.104 0 2.001.897 2.001 2.001v4.998A2.002 2.002 0 0 1 38.999 51zm-13.998-8c-.552 0-1.001.449-1.001 1.001v4.998c0 .552.449 1.001 1.001 1.001h13.998c.552 0 1.001-.449 1.001-1.001v-4.998c0-.552-.449-1.001-1.001-1.001H25.001zM40.5 22h-17a.5.5 0 0 1 0-1h17a.5.5 0 0 1 0 1zm0 7h-17a.5.5 0 0 1 0-1h17a.5.5 0 0 1 0 1zm0 7h-17a.5.5 0 0 1 0-1h17a.5.5 0 0 1 0 1zm16-22h-7a.5.5 0 0 1 0-1h7a.5.5 0 0 1 0 1zm0 36h-7a.5.5 0 0 1 0-1h7a.5.5 0 0 1 0 1zm0 7h-7a.5.5 0 0 1 0-1h7a.5.5 0 0 1 0 1zm-1.498-18h-4.004A2 2 0 0 1 49 37.002V25.998A2 2 0 0 1 50.998 24h4.004A2 2 0 0 1 57 25.998v11.004A2 2 0 0 1 55.002 39zm-4.004-14a1 1 0 0 0-.998.998v11.004a1 1 0 0 0 .998.998h4.004a1 1 0 0 0 .998-.998V25.998a1 1 0 0 0-.998-.998h-4.004zM12.996 57H9.004A2.006 2.006 0 0 1 7 54.996v-2.991C7 50.899 7.899 50 9.004 50h3.991c1.106 0 2.005.899 2.005 2.004v2.991A2.006 2.006 0 0 1 12.996 57zm-3.992-6C8.451 51 8 51.451 8 52.004v2.991C8 55.549 8.451 56 9.004 56h3.991c.554 0 1.005-.451 1.005-1.004v-2.991c0-.554-.451-1.005-1.004-1.005H9.004zM14.5 25h-7a.5.5 0 0 1 0-1h7a.5.5 0 0 1 0 1zm-1.502-7H9.002A2.004 2.004 0 0 1 7 15.998v-.996C7 13.898 7.898 13 9.002 13h3.996c1.104 0 2.002.898 2.002 2.002v.996A2.004 2.004 0 0 1 12.998 18zm-3.996-4C8.45 14 8 14.45 8 15.002v.996C8 16.55 8.45 17 9.002 17h3.996C13.55 17 14 16.55 14 15.998v-.996C14 14.45 13.55 14 12.998 14H9.002zM1.5 46a.5.5 0 0 1-.5-.5v-5a.5.5 0 0 1 1 0v5a.5.5 0 0 1-.5.5z"></path>
</svg>
