<svg xmlns="http://www.w3.org/2000/svg" xml:space="preserve" width="512" height="512" id="left-arrow">
  <g fill="#202020">
    <path d="M71.564 288.237c-2.269-2.189-3.995-4.354-3.057-3.614-4.809-4.276-4.603-4.677-5.707-4.749-3.168-2.662-5.927-6.123-2.402-3.016l-8.721-8.09 4.945 5.106c-.898-.471-2.874-2.511-4.887-4.569-1.006-1.029-2.021-2.063-2.917-2.909l-.646-.595-.635-.554c-.531-.502-.765-.697-1.078-.932l.411.484c.117.134.314.364.562.618l.624.618 3.142 3.114 4.57 4.528-.597-.313c2.225 1.918 6.185 6.007 7.527 7.47-.292-.15-.265.104-1.883-1.487 10.952 11.019 3.709 2.209 12.967 11.183a49.873 49.873 0 0 1-2.218-2.293zM79.845 298.62l4.37 3.294 6.29 6.567c.259-.112 5.091 4.421 2.084 1.086-.649-.59-1.93-1.761-2.903-2.768 1.119.316 8.749 8.35 7.266 6.054-5.19-4.978-5.882-5.847-9.337-8.65-4.624-4.698-7.926-8.185-9.955-10.508-1.445-1.322-1.885-1.271-3.692-2.979l1.209 1.178-.414.793c1.593 1.34 2.919 2.785 4.558 4.399l-8.23-6.82c1.862 2.991 9.587 10.054 12.307 13.243-3.155-4.173 3.171 2.665-3.553-4.889zM73.968 290.716l-.186-.184.186.184zM327.863 248.413c-2.263.015-2.93.217-3.256.318l25.477-.016c-.798-.224-8.136-.501-3.232-.635-2.187-.248-8.848-.036-9.813.267l1.847-.342c-5.87.438-9.88-.422-6.053-.681l-.495.004-16.257 1.685c5.967.099 4.595-.579 11.782-.6zM67.118 233.937c2.28-2.39 2.51-2.734 2.186-2.528a64.964 64.964 0 0 0-2.186 2.528zM312.28 249.409l-5.093.527c2.039-.142 3.83-.331 5.093-.527zM347.559 241.39c.011-.028.065-.053-.068-.09l-2.287.27h.059l2.296-.18zM196.681 251.39l-1.671.037 1.671-.037zM416.575 238.376l-11.327.507c1.51-.24-3.954-.168-1.568-.448-.862.038-4.91.133-3.807.257l2.312-.016c-5.973.699-2.355.968-12.259 1.501 6.148.415 8.844.035 12.101-.283l2.964-.097 9.418-.978 2.166-.443zM166.76 163.794l-.049.126c.067-.094.069-.121.049-.126zM166.519 164.428l.192-.508c-.351.509-1.924 2.234-.192.508zM314.15 248.956c-.154.13-.808.289-1.87.453l3.8-.396-1.93-.057zM322.794 247.428l9.542-.1 3.518-.363c-3.652.138-7.922.233-13.06.463zM211.752 251.801c-19.765.107 4.855-.823-4.226-1.021-5.488.097-7.424.487-10.845.61 15.677-.334-2.125 1.287 13.686 1.08-2.249.707-11.402.771-16.767.579-6.072-.681 5.306-.499 6.681-1.167-6.344.111-5.227.235-7.919.615-9.961-.158-20.611.837-26.56-.107-7.211.15-6.736.476-10.883.835-.825.729 10.725.383 13.397.957-.554-.062-1.633-.185-1.32-.287l6.234.153c-5.918-.254.822-.729 3.985-.786 2.3-.015 6.874-.047 6.245.154l-3.483.157c4.484.23 9.893-.532 14.628-.137.248.164-1.544.241-1.816.342 5.306-.498 10.422-.469 18.276-.821l-4.553.723c6.282-.8 20.508-.573 30.366-.15-1.094-.123-3.064-.208-1.881-.348 5.791-.173 10.164.323 7.482.704 5.657-.6 21.553.505 29.262-.274l35.445-3.675a89.16 89.16 0 0 1-4.212.199c-3.223-.635-4.959-.558.688-1.156-5.543.336-3.425.846-11.753.872 3.267-.319 4.092-1.048-3.886-1.123-19.944.634-33.162 2.439-51.789 3.361-.688-.489-15.312-.352-22.42-.467 2.713-.525 7.988-.675 13.462-.781l-13.737-.07-1.787 1.029z"></path>
    <path d="M258.063 250.157a34.9 34.9 0 0 0-1.544-.091c.282.041.743.072 1.544.091zM228.945 250.857c.069-.019.045-.033.069-.053l-1.736.038c.587.004 1.251.011 1.667.015zM309.477 247.852l3.242-.319-2.523.128c-.839.065-1.239.131-.719.191zM313.465 248.712l-.632.201 1.316.043c.138-.108-.009-.199-.684-.244zM136.224 247.378l-1.895.106c1.141-.008 1.633-.051 1.895-.106z"></path>
    <path d="M189.735 250.97c6.874-.047.822-.73 10.546-.733l-2.854-.044c6.977-.313 19.239-.169 27.529-.194-.935.291 5.027.354 4.058.805 5.667-.106 11.279-.207 14.198-.672 3.511.152 8.844-.258 13.307-.065-1.884-.273 6.354-.924-4.508-.59.877-.037.327-.1 1.193-.138-6.998-.381-9.803.265-15.831.274-3.604-.269 5.894-.435 2.493-.543-7.527.251-23.62-.325-23.121.69-5.478.071-6.234-.152-7.867-.338-8.666 1.081-32.158-.464-32.079.918 3.164-.055 8.318-.025 12.96-.321l-.024.951zM297.934 247.923l-1.338-.014 1.338.014zM384.675 251.927l-2.874.903c-16.368.216-22.286-.038-36.598-.002-1.093-.124.644-.202 1.523-.242-10.062.104-25.115-.085-32.439.33-3.201-.007-11.605-.294-8.425-.56-1.558.08-3.339.157-5.13.128-.475-.324 4.009-.093 4.112-.358-1.42-.022-1.974-.085-2.301.018 2.391-.279-2.479-1.102 8.666-1.081 4.315.759-7.73.088-5.183.925 3.697.006 3.267-.318 3.583-.42 4.711.019 4.587.229 4.336.42 1.806-.26 7.73.102 10.224-.292 9.16-.065-.499.628 5.484.619l3.449-.848 9.947.16c14.401-.298-2.06-1.465 14.401-1.944-2.163.442 4.438 1.186 12.1 1.362-4.583.031-13.056.584-18.974.332 8.342.664-11.481.08-7.152.84 4.123-.359 10.996-.408 16.357-.214l-1.757.078c5.701.09 10.017-.797 17.884-.458 3.909-.027 3.177.212 2.489.41 3.31-.127 6.268-.293 6.278-.106zm-8.518.177-5.229-.084c1.241.14 3.19.136 5.229.084zM131.646 350.267l-1.075-1.172c.218.274.631.712 1.075 1.172zM365.511 270.199l-3.029-.028c1.182.028 2.152.032 3.029.028zM297.52 272.998l-4.426.198a57.416 57.416 0 0 0 4.426-.198zM162.6 372.968l.204-.028c.335-.082.59-.151.938-.257 0 0-.281.086-.568.154a8.365 8.365 0 0 1-.574.131zM161.153 271.015a41.653 41.653 0 0 0-2.466-.188c.124.085 1.045.145 2.466.188zM298.334 272.961l-.268-.016-.547.053.815-.037zM395.461 272.671l1.939-.085c-.914.017-1.475.049-1.939.085zM391.191 270.267a49.43 49.43 0 0 0 1.884-.084l-1.884.084zM445.462 240.084l-4.078.122c2.005-.013 3.202-.061 4.078-.122zM401.984 270.822c.237-.039.475-.076.633-.115-.564.027-.833.076-.633.115zM115.107 330.155l.177.173.143.003-.32-.176zM107.222 324.015l-2.583-2.484a70.499 70.499 0 0 0 2.583 2.484zM101.909 269.652l-.989-.097-.615-.102c-.367-.07-.594-.142-.25-.212-.612.089-.827.24-.611.345.108.053.319.094.648.108.165.008.359.01.587.003l1.23-.045zM132.916 340.463c-.541-.379-1.174-.888-1.809-1.401 1.155.98 2.164 1.844 1.809 1.401zM131.108 339.061l-1.699-1.428c.588.511 1.161.994 1.699 1.428zM129.38 262.617c.269.059.685.105 1.249.121-.166-.115-.617-.14-1.249-.121zM102.688 319.387c-.597-.312-11.924-11.019-2.731-1.679-.802.087-6.151-5.739-8.731-8.1 1.69 1.898-1.178-.607-.792.097 1.279 1.171 2.863 2.5 4.857 4.558.728 1.134-2.483-1.802-4.807-4.277 2.722 3.191-4.104-3.399-.1.965 9.102 8.789 15.585 14.95 22.524 20.591-5.206-4.992-11.042-10.564-15.045-14.926l2.143 1.374c4.388 5.065 7.559 7.73 12.171 12.415l-10.238-10.647c-4.572-5.213-1.226-2.014 2.7 1.773-.943-.953-1.778-1.835-1.951-2.144zM113.099 323.049l-.164-.186c-.167-.14-.365-.32-.479-.401l.643.587zM446.216 251.093l-1.27.206c1.06-.093 1.386-.157 1.27-.206zM117.466 331.141l-.007-.007a.862.862 0 0 1 .007.007zM458.694 259.157c.004-.025.006-.052.019-.091-.025.051-.013.062-.019.091zM455.32 272.588c.098.023.126.046.354.064 1.115-.106.569-.07-.354-.064zM458.724 259.199c-.013-.011-.031-.014-.03-.042.005.02.001.053.03.042zM310.122 262.912s.484.094 1.248.184c.296-.051 0-.11-1.248-.184zM340.419 263.718l.554.06-.554-.06zM109.075 272.101c1.5.008 2.624-.006 3.573-.029a79.623 79.623 0 0 0-3.573.029zM458.712 259.066c.047-.159.144-.359.257-.693-.126.367-.225.559-.257.693zM263.928 265.66l.932-.059-.553-.027-.379.086z"></path>
    <path d="M248.117 265.26c.54-.061.788-.125 1.09-.182-5.643.227-16.01-.02-17.238.56 1.916-.015 11.843.325 10.151.665 3.934-.145 9.748.261 11.867.166-6.458-.316-.698-.488 3.662-.684 3.965.168-.746.465 2.668.572l9.174-.064-7.991-.076 2.428-.557-.814.053c-13.521.259-1.149-.815-14.997-.453zM249.208 265.078a37.193 37.193 0 0 0 2.166-.137c-1.276.01-1.771.067-2.166.137zM193.97 264.16zM342.635 247.058c.237.164 8.115.502 7.975.074l-7.06-.134-.915.06zM108.215 292.159l-1.857-1.873-.409-.315c.334.423 1.618 1.596 2.266 2.188z"></path>
    <path d="M239.686 266.504c1.444-.066 2.087-.133 2.435-.201-.936.033-1.798.088-2.435.201zM107.845 293.228c.704.877 1.737 2.173 1.787 2.454 1.614 1.619 2.908 2.596 4.611 4.186-1.901-1.814-4.02-3.993-6.398-6.64zM114.383 299.996l-.139-.128.139.128z"></path>
    <path d="m337.948 246.876-2.095.09 1.091-.114-5.42-.13-2.231.068c.351-.015.623-.061.791-.107l-1.736-.05c-4.315.443-15.055.767-18.152 1.027-4.099.189-9.116.297-12.262.263 2.916.009 6.787-.08 5.625-.325-5.921-.255-8.799-.99-19.019-.358l5.993-.01-13.476.951c-4.722-.394 6.726-.474 8.597-.817-10.481.469-19.198-.783-24.057.04-.685-.488-1.833-1.303-8.71-1.254 4.959.557-4.123.358-.055.954-2.376.279-7.672-.176-8.067.189l.643-.202c-11.743-.773-15.587.438-20.611.837-14.06.199-20.518-.117-31.985-.035-.451-.327-3.573-1.227-8.174-1.192-2.139.442-12.517.647-13.575 1.215 8.225.236 6.729-.476 11.653-.608 4.099.595.371.588 5.969.943-4.519-.231-20.415.31-25.363-.248l1.747-.078c-7.898-.339-9.408-1.741-22.567-.893l-6.279.348c.302-.057.337-.123.499-.174-10.278-.059-7.472-.704-18.819-.195.877-.039.327-.102 1.217-.14-6.468-.318-12.991.321-17.881.455-1.631-.236-1.438-.353-.559-.453.83-.1 2.179-.184 3.114-.355-7.873-.125-16.834.216-25.422.629l5.514-6.329 6.577-6.185c-1.708 1.847-3.45 3.834-4.496 5.141-1.055 1.316-1.427 1.965-.672 1.412 2.84-2.975 1.964-2.415 6.458-6.78-.435.863-1.896 2.723-3.139 4.503 2.204-2.025 3.267-3.094 3.837-3.752.563-.651.599-.858.57-.982-.028-.124-.12-.166.223-.521.34-.354 1.127-1.035 2.74-2.319 2.625-2.617 3.835-4.451 3.864-4.997l5.086-4.411c.199-.856 6.042-6.738 9.834-10.629.328-.611-3.443 2.742-4.773 4.326.029-.545 3.995-4.754 6.628-7.377 1.652-.273 17.11-17.31 14.815-13.39l19.332-19.867 9.172-9.44 3.891-4.056 1.7-1.794.78-.83a9.87 9.87 0 0 0 .591-.71 7.79 7.79 0 0 0 1.509-2.303c.403-.912.606-1.897.69-2.672.076-.775.066-1.34.118-1.461.042-.121.226.191.329 1.228a8.918 8.918 0 0 0-3.518-7.293 8.873 8.873 0 0 0-6.673-1.71 8.928 8.928 0 0 0-5.176 2.68l-.697.728a217.736 217.736 0 0 1-6.367 6.37c-.867.694 4.259-4.271 3.693-4.166-5.891 6.443-11.511 10.927-20.895 20.68 1.597-1.622 1.924-2.234 2.077-2.529.282-.053-3.683 4.157-6.048 6.744-1.45 1.331 1.771-1.936.902-1.243-18.816 18.146-31.962 33.168-50.377 51.521 5.259-5.241 6.789-7.685 6.659-7.928l-5.151 5.134c-1.755 2.211-5.617 6.072-8.677 9.473-.481.31-2.144 1.788-.649.077-4.088 3.732-7.258 7.067-10.339 10.459l-4.659 5.188-2.474 2.733c-.229.239-.38.451-.577.679-.131.152-.292.411-.431.617-.065.101-.162.237-.195.313l-.225.411c-.13.228-.224.484-.339.751l-.22.616-.091.286-.017.057-.004.014-.002.007v.003l.021-.075-.001.006-.011.048-.041.176-.136.615-.078.613a13.42 13.42 0 0 0-.035 1.269c.004.199.016.399.041.601l.103.679c.171.825.438 1.628.903 2.489l.293.511c.114.175.2.286.388.548l-.43-.505a4.105 4.105 0 0 1-.325-.513c-.991-1.463-1.515-3.232-1.288-5.118-.029-.225-.058-.45-.026-.664.018-.199.045-.397.082-.645l.027-.179.007-.047.002-.012v-.003l-.014.05v-.001l.001-.004.003-.017.013-.068a.666.666 0 0 1 .119-.3c.039-.202.115-.477.193-.665.248-.739.644-1.45 1.069-2.086.428-.604 1.067-1.301 1.638-1.953l3.491-3.97-4.048 3.407 6.212-7.05c-4.209 3.708-7.073 7.725-7.892 7.873.737-.956 2.786-2.925 2.663-3.181-1.538 1.45-2.473 2.343-3.23 3.242-.424.491-.679.932-.986 1.436-.216.41-.489.961-.684 1.513l-.26.771-.101.331-.062.216-.037.17-.169.782-.002.014.001-.014c.028-.231.073-.476.111-.704.025-.204.125-.587.196-.818.075-.259.137-.462.249-.781.132-.342.261-.712.453-1.065l.251-.491c.133-.228.226-.363.347-.55l.356-.527c.167-.219.268-.331.408-.503.264-.33.525-.608.792-.905l3.403-3.697a672.692 672.692 0 0 1 7.554-7.935L74.623 221.5c1.195-1.305-.901 1.24-1.051 1.534 3.218-3.264 5.381-4.989 9.339-9.191 2.237-2.833-2.15 1.713-4.192 3.692.02-.537 1.046-1.533 3.247-3.812.83-.139 12.414-12.169 15.719-14.632 11.856-12.073-2.804 1.016 9.025-10.513l3.882-3.093c6.477-7.087 14.975-16.127 22.732-23.715l-1.604 1.63c-.909 1.246.975-.43 1.849-1.131 5.967-5.629 10.698-11.319 14.606-14.437l2.519-2.823.685-.758c.211-.234.559-.602.865-.876.64-.59 1.363-1.129 2.157-1.588 3.159-1.865 7.535-2.273 11.308-.579 3.787 1.623 6.674 5.285 7.424 9.313.825 4.016-.44 8.154-2.729 10.889-.79.584-.354.036.496-1.329.84-1.358 1.926-3.75 2.014-6.565.143-2.798-.823-5.884-2.49-8.031-1.63-2.182-3.742-3.393-5.023-3.845 0 0 .692.293 1.627.914.933.619 2.078 1.597 2.974 2.795.911 1.187 1.565 2.555 1.897 3.624.346 1.067.439 1.812.439 1.812a11.505 11.505 0 0 0-1.715-4.435 10.908 10.908 0 0 0-2.453-2.67c-1.722-1.314-3.473-1.98-5.549-2.222a12.323 12.323 0 0 1 5.573 2.898 12.336 12.336 0 0 1 3.007 4.099 11.807 11.807 0 0 1 1.059 4.977 11.545 11.545 0 0 1-1.777 6.054c.115-.386-.007-.292-.511.32-.257.301-.611.734-1.134 1.25l-1.677 1.649-.403 1.095c-.077.021-.395.286-1.231 1.078l-9.964 10.387c2.308-2.011 2.713-1.815 5.345-4.439-1.14.737 1.049-1.533 3.686-4.158-2.079 2.531 2.756-2.375 2.886-2.132-5.283 5.265-11.716 11.791-15.079 15.343l-1.441.805c-5.106 4.945-10.236 10.431-13.738 13.747l.906-1.244c-6.127 5.933-11.86 12.076-17.524 17.119-5.015 5.742-11.483 12.817-15.499 17.594-.465.662-1.643 1.883-3.24 3.448l-2.674 2.58-.742.707-.365.346-.193.175-.809.731a120.418 120.418 0 0 0-3.466 3.239c-1.107 1.087-2.069 2.109-2.48 2.74l.775-.091c.041.019-.287.066-.865.128.282-.487 1.216-1.747 1.783-2.531-1.273 1.207-1.98 2.155-2.541 2.845 1.276-.086 2.049-.102 1.979.194a54.858 54.858 0 0 0-2.363-.035c.911-.945.001-.262-.844.35.161.12.25.242-.763.316.05-.066.137-.168.252-.296l-.323.326c3.768-.018 7.742-.128 9.548-.338-2.938.002-2.136-.209-1.49-.388.636-.179 1.223-.325-1.518-.191 1.191-.128 2.355-.238 3.485-.327l1.674-.117.822-.046.658-.02.875-.018c4.681-.091 9.544-.092 14.078.007-.089.264 1.028.387 4.408.496l2.727-.383c4.244.069-8.204.453.337.589 8.789-.655 26.467.372 30.314-.839 6.698.478-12.747.484-2.651 1.07-5.873.438-13.974-.063-15.91.541 5.756-.172 2.101.511 5.814.517l6.42-.373-1.42-.023c10.773-.571 27.842-.297 41.6-.394 11.654-.609 19.676-1.489 33.654-1.423-4.126.357 11.608.344 2.809.999 6.468.315 12.854-.058 12.981-.322-5.691-.091-2.001-.085-6.795-.215 3.236-.32 10.694-.306 13.758-.097-1.42-.023-.88.038-1.193.139 6.795.215 3.256-.318 8.167-.452 1.558.448 10.841.12 15.326.352l6.502-.639c-3.572.42 6.231.153 7.256.54 4.663-.296 8.572-.816 15.673-.703-2.933.219 6.479.316 6.603.742 12.158.408 20.136-1.162 31.651-.552-.357.1-2.682.38.685.487 2.651-.119 7.293-.069 10.13-.115l-.089.012.147-.012c1.39-.023 2.263-.076 2.297-.179 4.855-.417 7.359-.844 16.915-1.197-.702-.488-8.769-.299-12.263-.142l-3.019.481c-2.885-.736-8.617.128-10.814-.12 5.732-.863 22.241-.651 32.144-1.182-6.038-.68-19.173-.786-30.634-.704l5.048.292-5.997.009 5.805.519c-5.681-.091-10.591.042-15.726.013 6.011-.01 8.353.663 4.952.557-6.698-.479-6.98.313-12.101.283 2.851.044 6.558.053 4.168.332-10.096-.586-12.823-.204-22.004-.83 1.139.813-11.471.081-12.847.748l4.261.068-9.037.492c-8.338-.663 7.383-.675-5.306-1.144-11.708-.082-11.405.772-20.61.836 3.032-.482 10.333-.896 17.76-.882l-4.497-.232c2.379-.279 12.653-.221 17.78-.192-8.473.553 3.965.17 7.819.603.709-.467-4.731-.394 1.692-.768-6.018.009-6.898.048-14.553-.128 16.547.212 14.879-1.618 29.321-1.227-6.657.211 2.321.673 3.122.899 3.133-.056 9.487-.167 12.101-.284l-2.366-.674c8.415-.291 11.338 1.136 21.048.441 1.262-.403-8.541-.137-6.795-.215 13.287-.423 18.073.662 29.871 1.169.667-.202.53-.629 4.656-.985-1.297.404 1.757.611-2.885.907 3.943.171 8.617-.126 12.097-.283-8.211-.237 3.359-.581 4.872-.823 4.254.068-1.296.403-3.913.521 3.415.108 7.473.704 9.412.099.134.426-9.546 1.12-15.876 1.23l4.267.068c-2.939.218-3.49.156-7.727.09 4.147.33 3.738.694 2.771.998-.543-.062.303-.101-.216-.162-3.411-.108-6.028.008-5.237.234-3.067.572 4.731.357 7.042.643l5.206-.114 17.723-1.837c7.571-.214 10.976.226 16.663.503l1.562-.491c6.588.051 12.805.206 8.582.828-.236-.164-1.106-.125-2.537-.148-.189.066-.52.114-.936.152l-.326.086 11.866-.28c-11.98.713-.599.892-2.603 1.763l12.1-.284c-7.334-.276-.134-.426 2.469-.544.18.123.879.184 1.893.208l1.929.026c.915.038 1.91.161 2.922.405 2.025.481 4.091 1.488 5.724 2.826 1.645 1.328 2.846 2.95 3.551 4.323l-.309-.348a15.157 15.157 0 0 1 1.596 4.653 14.846 14.846 0 0 1-.172 5.791 14.592 14.592 0 0 1-2.566 5.498 14.808 14.808 0 0 1-4.229 3.794c.186-.035-1.563 1.432-4.389 2.249-.698.208-1.455.359-2.229.464l-.574.067-.385.056-.766.109-2.724.406 2.562.07 1.646.065c1.158.015 1.465.001 1.38.073-.163.152-1.92.343-1.369.469l-1.693-.013c-.522.003-.959.017-1.051.048-1.203.14 1.634.186 1.871.348.387-.009 1.556-.025 2.446-.148a16.573 16.573 0 0 0 2.772-.589 16.714 16.714 0 0 0 4.983-2.463c2.977-2.135 5.058-5.163 6.057-8.239a15.927 15.927 0 0 0 .419-8.518c-.555-2.438-1.607-4.259-2.511-5.403 1.009 1.948 1.698 3.688 2.134 5.583.412 1.888.572 3.945-.065 6.356.282-1.771.327-3.666.004-5.658a16.578 16.578 0 0 0-2.226-6.023 16.083 16.083 0 0 0-5.079-5.154 15.656 15.656 0 0 0-7.802-2.428l-.591-.077-.837-.142-1.217-.205-7.473.222c3.119-.217 1.242-.646 9.082-.728-1.001-.387-7.775.088-12.575-.042l-2.455.544c.945-.303-9.329-.362-2.029-.776l11.877-.445-3.301-.372 5.021-.052 3.451-.036a22.436 22.436 0 0 1 1.657.031c.487.031.765.062.765.062s-.264-.014-.659-.015c-.368-.009-.979.016-1.378.047l-1.185.141.736-.016.353-.007.471-.001c.788 0 1.538.067 2.242.159a16.85 16.85 0 0 1 3.676.934c2.092.8 3.479 1.759 4.467 2.557 1.951 1.649 2.464 2.606 3.02 3.475.504.908 1.087 1.78 2.028 4.095a18.379 18.379 0 0 1 1.17 4.874c.195 2.12.136 4.923-1.146 8.188a15.888 15.888 0 0 1-3.516 5.815 16.62 16.62 0 0 1-6.557 4.256 16.923 16.923 0 0 1-4.43.931c-.395.037-.794.041-1.199.051l-.72.004h-1.454l-6.687-.072c7.2-.146.739-.465 3.449-.846-7.345-.275-9.824.268-13.634.525-1.871-.349-3.201-.633 3.359-.582.821-.73-8.631.125-9.229-.625-21.735.021-17.416 2.426-42.824 1.486l.953-.303c-16.134.377-25.442.016-40.383.254l-11.764-.77c2.631-.119 9.704-.694 6.402-1.066 5.722.779 11.795.508 17.96.926.629-.203-1.881-.35-2.975-.475 3.721.008 5.588.357 10.502.222-.237-.161-5.599-.354-1.558-.448l6.685.479c8.943-.229 4.404-1.147 14.909-.928-1.953.428-5.941 1.047-10.01 1.15 4.801.092-6.399.258-2.019.514 6.915-.633 10.254-.131 19.449-.528-1.08.089-1.365.212-3.628.251l13.342.268c-3.301-.37 11.021-.406 9.779-.957-14.219-.229-10.041.104-26.243-.209 4.587-.125 10.501-.686 13.272-1.201.142.021.375.039.874.049 2.476-.545-.049-.691 0-1.645-7.396.678-12.342.121-21.065.511-1.64.522 5.062.665 9.398.53l-7.686.346 1.513-.24-19.507-.174c3.696-.028 4.951-.331 6.881-.559-2.518-.021-5.011-.158-7.661-.311.557.498.206.85-2.249.841-12.551-.118-19.528-.565-24.159-1.135l-1.462.035c2.104.511-8.913.917-12.802 1.438.192-.527-6.468-.316-10.085-.586-1.926.605.643 1.441 5.048 1.938 8.486-.555 4.755-.559 8.765-1.345l13.613-.524-3.043.484c6.794.213 13.321-.426 12.822.203-3.59.419-9.519.164-13.08.585l4.494.229c-7.93.618-4.064-.594-13.665-.164 3.531.535-.87.039-4.982.396 3.301.373 16.904-.152 14.019.756-4.992.396-16.797-1.064-23.402-.161l.323-.103c-9.745-.117-13.17.4-16.818.727-4.147-.293-9.872.121-14.366.153l.109-.265-6.341.111c3.02-.482 7.432.012 12.878-.058l-.678-.491c6.279.583 10.468-.303 15.336-.725-7.087.424-20.012-.121-21.677.838l-4.384-.494-2.098.178c-3.267-.371.069-.955 6.402-1.066 1.101.125 1.651.186 1.317.289 2.94-.22 5.64-.601 12.754-.488l-3.797.26c8.858.035 16.911-.154 19.944-.637-12.788-.204-25.363-.248-37.37-.225-3.542 1.108-7.744 1.73-9.55 2.762-8.057.189-18.994.332-25.992-.045l.643-.203a123.023 123.023 0 0 0-9.184.066c-3.607-.27 2.469-.545-.045-.691l-11.54.346c.712-.467 10.422-.469 15.034-.502-.87.04-2.627.117-2.063.18 5.364.192 15.356-.602 17.702.072 2.613-.117-5.309.498 3.539.533 5.925.255 7.854-.352 8.473-.553.096-.266-9.298-.363-6.038-.682-4.611.033-6.448.375-12.345.119 4.57-.031 10.776-.568 13.211-.157 9.037-.493 7.74-1.733 3.479-1.802 1.015.389-16.484.479-4.635.986-5.323.5-15.047.504-22.01.815l.316-.101-8.645.125c1.217-.139 3.831-.256 3.917-.52l-11.973.709c6.74-.477-4.178-.33-7.245-.541-1.282.404-5.959.701-1.472.932 5.044.294 2.937-.219 7.524-.25l-6.496.639-.557-.063-3.91.521c-8.847-.037 3.865-1.213-7.472-.702l1.476.711c-13.125-.104-29.981-.905-39.255-.577 2.559-.404 3.687-1.055.169-1.439 3.999.122 12.035.097 17.771.029 1.104.126-7.166.842-13.397.688 3.019 1.164 15.673-.703 16.406.477 15.876.412 11.842-1.137 25.318-.443.186-.527 3.831-.258 4.539-.723-3.989-.859-18.015.029-26.759-.271.856-.037 2.579-.117 2.916-.217-6.251-.154-8.834-.037-13.201.158l.55.063c-7.63.516-4.721-.393-9.212-.625-1.74.078-7.984-.074-6.98.313l-8.132-.5.392.588c-4.587.035-5.591-.354-9.748.004l-.193.527 11.392.183c-5.773.173-1.609.505-7.953.614 7.087-.576-5.014-.291-5.712-.78l-4.666.296 1.193-.14c-3.662-.271-4.36.196-8.634.127 5.041.294 8.342.663 14.765.29-4.676.295-13.95.623-16.227.641-4.91.221-8.339-.18-12.933-.24 8.816-.211-3.088-1.596 14.58-1.218-.327.101-1.757.078-2.311.017 2.355.672 10.591-.043 14.421-.3-.987-.388 3.019-.483-3.772-.698 2.229.248-5.722.864-12.183.547l1.138-.83-9.408-.098.88-.039c-1.769-.267-4.278-.241-7.155-.188l-4.544.067-2.391-.013-1.112-.029-.735-.049c-1.382.148-4.675.164-6.901.25-1.108.044-1.925.104-2.062.209-.146.104.417.253 1.807.47a22.915 22.915 0 0 0-2.134-.185c.709.773 1.72 1.661 2.709 2.496.999.844 1.974 1.632 2.848 2.442l-1.023-1.262-.907-1.147c1.913 1.494 2.339 1.846 2.853 2.223.243.175.481.33.819.518.168.093.36.193.579.298l.348.158.188.078c.065.027.092.014.326.206.375.695 1.422 2.007.179 1.101 8.851 8.913 21.37 21.764 27.061 26.494 6.235 6.287 6.527 7.96 15.583 16.474 1.933 1.768-.894-1.99 4.753 3.994.348.436-6.034-5.165.49 1.267 5.063 4.161 10.585 11.083 16.977 16.693 1.503 1.665 3.644 3.856 5.222 5.533l1.07 1.158c.457.499.808.949 1.043 1.304.473.709.527.99.089.577-.384-.521-.8-1.039-1.269-1.521l-1.034-1.06-2.055-2.073c-1.396-1.382-2.794-2.768-4.07-4.03-2.568-2.508-4.676-4.492-5.302-4.948.908.478-3.361-3.777.503-.245-7.316-7.856-5.145-4.703-11.766-11.692-.612-.326 3.104 3.894 4.69 5.225-.456.519-13.655-13.184-8.19-6.55 7.23 7.314 10.406 8.458 16.195 15.273-2.823-2.229-6.523-6.432-10.244-9.13l4.983 5.375 4.111 3.407-.295-.152c4.351 4.797 6.591 6.787 8.798 8.569l1.681 1.34.896.717.487.4c.21.192.434.384.643.603a12.88 12.88 0 0 1 2.41 3.341 13.36 13.36 0 0 1 1.399 5.201c-.021-2.403-.339-3.475-.287-3.864.017-.391.273-.096.531.301.258.395.503.893.601.809.079-.079.124-.782-.536-2.674a15.652 15.652 0 0 1 1.053 8.313c-.38 2.543-1.348 4.676-2.415 6.231-1.07 1.566-2.195 2.578-3.032 3.171-.841.594-1.391.788-1.502.661a14.671 14.671 0 0 0 4.122-4.744c.73-1.375 1.031-2.393 1.201-3.084.311-1.394.179-1.517.108-1.583-.095-.068-.158-.093-.122-1.268.006-.586.027-1.466-.141-2.761-.178-1.283-.539-3.02-1.642-5.047.523 1.416-.167.52-.41.539-.129.007-.128.22.098 1.025.191.807.698 2.235.676 4.756.04 1.419-.14 2.434-.269 3.135l-.28 1.3c-.069.402.151.022.35-.38.194-.401.359-.822.292-.419-.041.2-.131.61-.39 1.308a12.633 12.633 0 0 1-1.571 2.911c-.473.536-1.018 1.023-.816.649-1.699 2.135-3.22 2.936-4.809 3.604-.813.319-1.684.593-2.768.801a15.584 15.584 0 0 1-4.063.258s.398.021.796.009c.397-.001.791-.037.791-.037-2.046-.136-3.566-.594-4.804-1.06-1.231-.489-2.199-.995-3.072-1.582a11.939 11.939 0 0 1-1.254-.96l-.518-.466-.471-.446a31.777 31.777 0 0 1-2.204-2.39c1.136 1.859-2.811-2.217-5.359-4.313 1.83 1.966 3.128 3.593 4.909 5.66l1.442 1.646.818.908c.11.127.363.383.591.61.234.228.483.451.743.674 2.073 1.755 5.182 3.321 9.162 3.362.953-.209 1.124-.383 1.844-.591l1.618-.468a16.463 16.463 0 0 0 3.161-1.336s-.535.295-1.387.63a14.161 14.161 0 0 1-6.575.906c-.91-.091-1.506-.233-1.506-.233 2.079.356 3.706.233 5.554-.171 0 0 .571-.084 1.409-.305a14.102 14.102 0 0 0 5.577-3.007c.656-.576 1.042-1.015 1.042-1.015-1.937 2.245-3.68 3.188-4.774 3.785-1.123.578-1.692.816-2.042 1.015-.352.2-.497.328-.874.518-.38.166-.993.428-2.348.588-2.937.044-4.952-.634-6.397-1.21a16.467 16.467 0 0 1-3.133-1.72 15.212 15.212 0 0 1-1.575-1.273l-.44-.42a77.255 77.255 0 0 1-1.885-1.933c.763-.077-9.742-11.179-15.718-17.695.964.977 2.209 2.235 2.881 2.915 4.802 4.272-2.771-3.472-2.824-3.755l-3.517-3.097c.651.593 1.61 1.355.259-.114-4.554-4.398-4.71-3.722-9.258-8.112-.104-.566 4.025 2.861 1.368-.04-.756-1.159-3.271-4.747-9.413-10.48-.509-.333-2.098-1.822-3.92-3.568.26.235.581.537.709.633l-3.691-4.196c3.754 2.966 6.609 6.982 10.382 9.964l.662-.088c2.629 2.627 6.361 6.034 8.196 7.481-3.943-4.071-4.885-4.816-9.444-9.22-.391-.864 2.941 2.116 3.421 2.545l-.882-.455c5.034 5.655 8.349 7.631 14.931 14.354.989 1.02.349.434.054.281 5.749 5.022 10.534 10.805 16.248 15.561l-1.904-1.51c1.861 1.693 4.628 4.225 7.84 7.085a9.532 9.532 0 0 0 6.054 2.128c2.24-.011 4.481-.882 6.108-2.387l-.078-.205c-.419.243.041-.097.662-.747.64-.637 1.34-1.66 1.718-2.44l-.001.01a8.616 8.616 0 0 0 .037-6.022 8.354 8.354 0 0 0-1.365-2.383 9.258 9.258 0 0 0-.891-.929l-1.105-1.009.639.767.349.408.284.357c.372.496.738 1.059 1.044 1.7.196.236.509.84.736 1.641.222.8.324 1.794.251 2.713-.125 1.853-.94 3.281-.438 2.956-.892 1.501-2.517 3.212-4.541 4.012-2.004.854-4.204.702-5.382.208 1.101.399 1.503.454 1.389.527-.108.06-.714.054-1.49-.107-.774-.16-1.694-.516-2.43-.933-.736-.414-1.292-.86-1.507-.962-1.08-1.568-5.88-5.842-5.031-5.653-.694-.866 1.724 2.162 3.604 3.647 4.451 3.835-7.315-7.857-1.86-2.988-6.796-6.333-15.347-15.085-22.422-21.553l3.655 3.926c-2.961-3.059-10.159-10.109-10.532-10.802 2.275 2.198 4.885 4.816 7.813 7.612.511-.234-6.878-6.874-6.966-7.423l-8.928-7.693 3.619 3.66c-2.519-2.066-9.856-9.95-15.444-15.644 3.746 2.726 8.523 8.497 14.663 14.228 4.504 4.117-2.17-3.155 2.032.803-.939-1.177-3.615-3.825-5.057-5.01l-1.517-1.702c4.104 3.176 12.16 11.439 17.99 16.473-.526-.427-.995-.79-1.199-.888 4.002 4.362 8.257 8.604 12.458 12.558-2.01-2.303-2.963-3.057-4.25-4.235-.039-.269 3.86 3.531 5.443 4.86-3.657-3.929-.434-.98-2.757-3.457 2.581 2.359 4.549 4.393 7.511 7.452 1.386 1.736-1.533-1.05-1.443-.502 3.238 2.962 4.106 4.93 8.908 9.201-2.969-3.065-2.446-2.793-.902-1.514.772.64 1.799 1.531 2.773 2.384.635.513 1.28.819 1.69.956-.01.019-.711-.423-.699-.44 1.506.56 2.663.685 3.766.96-1.007.175-2.022-.049-2.657-.268-.637-.224-.976-.374-.811-.051 1.236.674 2.762.93 4.292.483 0 0-.334.149-.695.253-.359.105-.738.165-.738.165s.458.022 1.128-.088a6.195 6.195 0 0 0 2.295-.878 6.463 6.463 0 0 0 1.783-1.693c.384-.551.557-.964.557-.964.094-.58.122-1.346-.035-2.037-.144-.694-.457-1.292-.781-1.621.021-.696-.293-1.509-.839-2.122a4.466 4.466 0 0 0-.434-.436l-.864-.793-1.594-1.446.959.757c-3.371-3.783-11.501-11.568-12.386-12.025-2.365-2.746 19.424 16.702 1.163-1.163-6.868-6.864-4.959-3.595-9.115-7.277 0 0 .291.151-.053-.283-2.956-3.055-3.517-3.097-6.097-5.457 1.698 1.905 4.305 4.521 5.245 5.264-1.189-.619-6.233-6.283-8.761-8.361 3.428 2.549-5.641-5.977-3.095-3.883-5.693-6.26-12.431-12.301-15.895-15.115-3.503-4.608-7.185-7.039-13.512-13.877.995 1.028 2.914 2.781 4.27 4.256 4.102 3.401-6.637-7.004-.542-1.55-1.29-1.18-.273.099 1.048 1.311 2.254 2.176 4.495 4.107 4.098 3.392l-5.054-5.674 1.957 1.788-7.711-8.569c-.292-.151.384.7.732 1.135l-4.826-4.951-6.614-6.634-13.967-13.861 17.301-.018c.441-.35 3.298-.562 7.675-.697l5.924-.152 5.829-.082c8.106-.082 17.12-.097 21.846-.525-2.534.4-3.92 1.107-2.352 1.398-2.107.059-6.423.623-11.203.506-.763-.225-6.667-.479-2.868-.734-13.211.158 1.788.612-2.111 1.133 14.638-.137 23.224-.955 32.463-1.283l.234.164 6.977-.313c-5.701-.092-5.419-.885 1.929-.607l-.894.039c4.191.333 12.912-.059 19.459-.006l4.439-.459c6.558.053 6.839.904 8.971 1.416 10.278.06 16.213-.64 23.513-1.055 3.301.371 18.696.459 10.539.91 9.271-.327 7.4-2.32 23.3-1.216l-4.126.358c15.202-.074 36.882-.788 43.886-.41-5.608 1.289 18.988 1.311 21.691 2.574-.754-.288 4.958-.385 5.79-.539 1.252.148 3.336.293 5.547.031-5.929-.254 4.167-1.311-7.166-.801 5.735-.867 13.125-1.543 25.689-1.5l-.189.527-9.94-.16c1.004.389-4.113.359-6.211.539 18.493.295-2.42 1.233 16.485 1.164 1.825-.342.643-.2 5.557-.336-2.311.018-2.727.381.997.389l3.576-.422c6.602.879-10.928.572-5.296 1.19-7.3.414-19.943.636-17.588 1.308 11.922.244 10.725-1.26 23.189-.954l1.327.286c4.385-.195 5.093-.658 7.493-.939.217.164 1.331.285 4.146.332 7.403-.678 12.317-.811 19.146-1.549-18.177.555-15.539-.516-34.3-.021 2.939-.219 16.147-.379 16.959-1.107l-.176.529c6.101-.275 12.197-.547 19.858-.373l-4.677.297c10.154-.367 16.88.801 24.892-.076-2.829-.047-5.127-.031-6.873.049 5.227-.235 11.784-.183 17.464-.094l11.754-.871c-.104.262 7.345.277 3.751.695 8.463.402 12.451-.385 17.341-.516 8.665.561-7.506.25-8.355.979a502.421 502.421 0 0 0 18.638.027l.505-.009.323-.017a5.314 5.314 0 0 0 2.907-1.129c1.021-.809 1.569-1.86 1.757-2.717-.581 1.141-1.145 1.475-1.178 1.352.119-.009.584-.49.909-1.219.334-.722.455-1.677.39-2.366.027-.025-.471-.848-.483-.826-.176-1.035-.44-1.476-.307-1.509.104-.028.565.365.97 1.312-.258-1.123-1.127-2.173-2.183-2.799a6.653 6.653 0 0 0-1.649-.715 11.282 11.282 0 0 0-.857-.212l-.439-.078c-.045-.016-.215-.027-.35-.04l-.414-.043 1.067-.053a4.727 4.727 0 0 1 2.262.545 5.309 5.309 0 0 1 2.221 2.216c.481.903.651 1.862.638 2.71-.009.849-.191 1.536-.333 2.049a6.195 6.195 0 0 0 .35-2.78 6.3 6.3 0 0 0-.624-2.151c-.62-1.231-1.505-2.13-2.635-2.743a5.672 5.672 0 0 0-1.962-.615l-.285-.027-.464-.02-.976-.035-2.105-.057c-2.964-.063-6.591-.068-11.42.041-.237-.164 3.033-.483-.688-.487-8.621.126-2.252.706-4.944 1.087 6.636-.213 9.724-.004 13.575.429l-1.771.278c-.269-.145-4.437-.152-5.664-.292l-1.072.567c.495-.627-6.173-1.105-11.413-.871 5.296.455 3.865.431 5.306 1.146-7.369.677-8.314-.665-16.574.052.619-.202 7.83-.352 1.6-.506-5.158-.027-4.471.461-7.93.617 3.896-.522 2.896-.911 7.118-1.531 9.164-.066 3.696.007 12.653-.221l-7.582-.442c7.765-.085 5.646-.598 6.286-.798-13.259-.532-9.992.794-18.523.657-4.113.358 7.991.076 1.558.451-7.978-.076-1.819.341-10.773.568l1.499-.24c-2.736-.311-5.443.072-8.609.125-3.483.158 3.943 1.816-10.378 1.852.701-.146.959-.238.959-.299l13.971-4.391c-14.511.011-31.232-.111-48.036-.405-3.958-.858 11.993-.708 10.965-1.095l7.665.176c-.43.364-16.059.112-9.137.755 13.534-.261 19.676.157 32.516-.593-3.989-.86-16.911.153-25.264-.512 3.508.056 6.469-.039 9.343-.162l-25.16-.361-2.005.208c6.015.097 10.175.17 10.712.201-7.975-.075-14.7.401-15.229 1.03l1.416.022-2.881.196c-1.865-.047-3.735-.088-5.596-.128zM78.12 221.764c.3-.386.521-.706.658-.968-.142.272.131.084-.658.968zm369.174 45.47 8.021.073c3.014-.035 5.995-1.359 8.056-3.562 2.087-2.18 3.233-5.231 3.115-8.227-.081-3.004-1.419-5.929-3.57-7.954 1.852 1.937 2.856 4.4 3.064 6.681a10.82 10.82 0 0 1-1.136 5.962c-.831 1.589-1.908 2.689-2.836 3.384-.934.695-1.702 1.026-2.119 1.147-.421.119-.49.054-.166-.204.315-.267 1.039-.737 1.977-1.715.91-.975 2.072-2.534 2.553-4.918a9.618 9.618 0 0 0-.08-4.025 9.45 9.45 0 0 0-2.316-4.32s-.338-.334-.713-.624c-.367-.297-.768-.546-.768-.546 1.483 1.109 3.21 3.208 3.671 6.011a9.48 9.48 0 0 1-.267 4.33 9.434 9.434 0 0 1-2.302 3.855 9.629 9.629 0 0 1-4.484 2.962c-1.09.36-2.345.426-3.597.548l-3.744.36-6.381.647c-1.654.18-2.685.308-2.638.343 1.87.348 4.597-.031 7.998.074l-1.338-.282zm-7.561-2.084c-6.027-.139-4.655.137-5.591.385l6.334-.094c-.802-.062-1.197-.15-.743-.291zm-5.231.633c.678.006 1.256.018 1.559.051l-1.559-.051zm-44.834-19.882.619-.015-4.34-.058c.579.04 1.678.071 3.721.073zm12.235.608 1.431-.454-4.068-.052c.457.205.934.384 2.637.506zm39.323 1.494c2.479-.545 10.784-.57 11.293-1.199.529-.162-1.218-.223-3.178-.275l-6.997-.053c-.086.092-.578.177-1.399.259 2.444.079 4.078.235 3.088.622-6.286-.843-5.633.6-12.428.384-2.162.443 7.561.439 9.621.262zm-287.332 91.265c.097.175.466.744 1.001 1.527l-3.604-3.165c-5.94-6.134-10.137-11.609-16.121-16.494-2.405-2.682-3.475-4.335-4.536-5.876a203.826 203.826 0 0 1 3.302 3.458c16.041 14.43 7.095 8.792 19.958 20.55zm-67.685-69.252c.644.589 1.035.834 1.035.834l-4.85-4.331c3.308-.215 6.847-.393 10.402-.537l5.326-.192c1.764-.051 3.473-.1 5.125-.146a563.874 563.874 0 0 1 16.678-.202c-1.994-.457-11.22-.813-15.601-1.002l3.882-.521 2.424.41 6.74-.474c-1.884-.351-7.328-.278-10.966-.548-.079.025-.866.082-2.054.158l-2.043.127-2.699.146c-4.28.205-8.656.438-10.406.598l11.216.361c-2.863-.143-16.753-.031-22.187.098l.354.341c.095.045.069-.034-.063-.22 1.229.121 3.727.24 5.889.268 2.167.028 4.069-.036 4.277-.281.809.193-1.488.291-2.975.393-1.514.102-2.176.207 1.376.414-1.799.108-3.91.165-6.204.186a334.065 334.065 0 0 1 6.948 7.061l5.563 5.888.066.526.092.553.791.838c.22.224.42.428.606.615.375.37.696.666.985.915.577.498 1.021.809 1.487 1.146.931.675 1.95 1.459 4.296 4.072-6.188-6.008.525 1.537-4.36-3.279 1.375 1.723-.456.519 4.439 5.345 4.656 3.436 4.741 5.506 9.104 8.792 2.365 2.746-3.117-2.383 1.829 2.727 6.088 5.447 5.985 4.885 6.787 4.798-5.268-5.518-6.637-5.482-10.939-10.001l9.533 8.013c-1.509-1.725-2.694-2.933-3.729-3.906 1.807 1.719 3.417 3.104 4.854 4.23l2.251 1.799c-4.968-4.977-9.373-9.402-9.964-10.372l.901.47c-1.563-1.958-4.587-4.672-6.067-5.837-4.476-4.429-9.223-8.575-9.916-9.827l1.887 1.493-5.704-5.568a9739.887 9739.887 0 0 0-6.416-6.371zm243.61-2.579c-4.69-1.116-9.862-2.104-31.752-1.908l1.723-.076c-11.031-.701-21.509.926-34.93.148 6.513-.422 6.162-.383 13.353-1.346l-6.987.315c1.936-.608-5.034-.294-10.161-.322l4.525-.724c3.077.209 11.055.283 10.821.119-1.747.08 10.532.912 17.203.702-.688-.489-14.772-.292-8.483-1.092-5.543.335-6.23-.153-12.024.019 5.557-.336 1.376-.668 5.512-1.024l-9.5.167c-.248-.164 13.837-.363 6.052-.965-3.807.256-13.972-.066-14.153.461l-.234-.162c-7.121-.113-3.132.747-11.876.446-.103.265 1.564.448 4.697.394 2.647-.117 3.053-.48 8.507-.554 2.444.413-6.579-.052-2.793.646 1.881.347 14.397-.3 10.409.483l-7.107-.113c-.183.529-5.33.498-5.186.924-4.347.195-8.449-.4-12.888.06-1.843.341 1.375.976-5.97.7-5.739-.781-22.65-.629-28.984-.518l-5.543.336c.471.324 10.591-.043 7.032.377l-8.645.127.667-.203c-2.864-.045-5.794.174-8.408.289 2.693-.38 8.923-.227 7.686-.777-4.058-.107-4.677-.313-8.411-.207.815-.039 1.516-.092 1.413-.17-8.215-.238-7.933.615-9.993.795-8.259.715 8.325.664 7.269 1.23l-24.115.303c2.06-.18 4.133-.357 3.356-.582-5.915-.254-.134-.428-8.438-.4.591.752-10.457.469-16.323.902-2.741-.308-3.305-.369 2.689-.379-.688-.488-8.734-.301-11.595-.344-1.657.121-4.484.191-6.275.301 2.4.242 1.375.549-3.82.756l-.302.104c8.517.133 21.756.666 27.096.166l-1.509.242c9.858.422 21.453-.877 25.999.045-.419.365 1.98.084 1.809.611l7.259-.412-1.509.24 12.348-.119-.327.098c5.869-.491 10.466-.877 14.14-1.186.014-.229-.368-.301 1.588-.47a57.38 57.38 0 0 1 4.78-.101c.01-.002.01-.002.01-.004v.004c3.029.066 5.048.396 8.779.531l-11.481.057c-.935.391.042.797 5.667 1.07-2.301.014-3.263.318-.416.363.313-.102 7.523-.249 4.776-.561 10.907-.143 28.564.883 45.125.141-11.897.447 9.535.523-3.673.684 9.219.625 7.933-.615 17.33-.518.802.225-5.116-.029-7.275.414 15.625.25 26.363-1.01 41.479-.82l.646.488c2.859-.06 6.036-.128 9.341-.201zm29.901-.607c2.909-.055 5.859-.11 8.858-.168l-.87-.014 8.741-.393c-5.371-.19-8.91-.727-1.393-.976-.633.202 1.564.448-1.049.566 5.037.292 16.089.575 13.207-.161-9.68.696-2.256-.938-9.861-.421 4.081-.479 8.125-.264 11.979-.478-4.013.4.936.909 6.963 1.101 2.624-.118 9.725-.005 14.085-.2-1.555-.449 2.242-.707-4.862-.82 2.606-.119 6.64-.213 11.158.02-1.791.076-4.924.133-4.707.295 2.916.414 6.33.396 8.215.573l4.494-.072a8.502 8.502 0 0 1-1.094-.155l4.993-.396c-6.65.211-3.074-.209-2.988-.473-.179.527 4.281.068 6.558.051l-4.945-.557c2.39-.279 8.438.402 7.19-.148-10.491-.221-14.524-.127-24.012.039l3.852.434c-10.705.306-6.603-.742-18.613-.722-4.993.396-18.063.027-18.311.819 1.506-.242-7.479-.705-11.595-.346-4.55.723-18.308.82-14.14 1.15 3.717.01 8.72-.389 11.708.082l-7.211.151 4.732.394c-2.443-.14-2.206.245-1.082.825zm60.561-26.1-.278-.01.31.002-.032.008z"></path>
    <path d="M112.161 327.11c-1.593-1.339-5.198-4.985-4.762-4.001.214-.39 6.524 6.431 4.762 4.001zM108.12 322.479c-.327-.183-.265.109-1.902-1.506l4.555 4.401-2.653-2.895zM105.635 315.876c-2.535-2.085-4.125-3.422-7.73-7.068-.626-2.097 6.141 5.73 8.47 6.688-6.576-6.715-9.258-8.112-14.786-13.517 2.402 3.016 13.289 14.256 14.046 13.897zM109.516 317.899l-3.861-3.53.321.407 3.864 3.533zM159.519 336.367c-.104-.563-2.632-2.64-3.923-3.819.99 1.018 2.335 2.484 3.923 3.819zM164.66 137.384l-.694-.18a16.03 16.03 0 0 0-9.085.527 15.892 15.892 0 0 0-5.216 3.121c-.165.143-.319.298-.479.449l-.374.371-1.207 1.226-5.133 5.215-13.98 14.202c4.027-4.082 7.9-8.006 12.33-12.494l7.141-7.253.977-.994c.464-.463 1.06-1.021 1.658-1.469a15.76 15.76 0 0 1 4.102-2.288 16.002 16.002 0 0 1 9.96-.433zM108.253 269.543c-2.676.076-4.98.168-7.102.267l-.311.018-.208.019-.404.038-.769.075-1.413.149c-1.809.196-3.336.372-5.587.442 1.964.164 3.169.182 4.246.127 1.062-.055 1.971-.182 2.972-.309l.763-.094.395-.045.101-.011.206-.01.416-.021c1.109-.054 2.235-.099 3.409-.125a99.535 99.535 0 0 1 7.905.136l-4.619-.656zM104.478 272.134c-1.774-.612 8.259-.717 6.705-1.165-7.214.148-3.359.582-9.907.529l3.202.636zM96.124 286.612l-2.521-2.07 1.93 1.765zM153.264 271.59l-1.183.138 5.368.194zM150.899 271.869l1.183-.141-1.183.141zM92.246 284.591l3.319 3.503 1.886 1.49zM102.72 263.99l-4.875.195c.258-.009.909 0 1.686.012l2.27.03c1.277.007 2.142-.032.919-.237zM186.044 271.85l5.251-.235-.536-.061-5.234.235zM136.501 262.302c-2.981-.47 8.61-.127 2.476-.543-5.457.074-3.243.319-2.476.543zM199.857 265.492c.708 0 1.455-.016 2.173-.068l-2.173.068zM199.857 265.492c-2.287 0-4.573-.18-6.142-.043 2.851.213 3.89.133 6.142.043zM226.056 265.383l-2.074-.033c2.118-.232 1.114-.197-.777-.012-2.197.017-2.074.166-2.335.268l-1.352.182 1.802-.17c3.405.003 5.482-.02 4.736-.235zM323.378 273.308c-7.658-.175-9.639-.26-9.223-.625-7.269-.115-6.142.513-10.525.658 8.226-.07 9.906.098 19.748-.033zM303.63 273.342l-2.871.029a66.056 66.056 0 0 0 2.871-.029zM195.435 261.391l4.759-.558-1.746.077zM334.742 273.492c-1.42-.022-3.696-.006-4.814-.131-.409.365 6.231.154 4.814.131zM305.208 266.334c-.777-.223-5.677-.09-7.671-.176 2.861.047 5.192.721 7.671.176zM356.711 271.986c-1.42-.023-3.604-.269-2.657-.57-2.064.178-4.856.822 2.657.57zM319.203 266.4l-1.093-.125-5.241.235zM300.511 261.008c-5.894.436 9.35 1.051-.801 1.42 13.094.457-1.004-.617 8.655-.546-5.657-.148-8.428-.699-7.854-.874zM308.365 261.882c.821.022 1.712.036 2.679.038l-2.679-.038zM391.314 264.638a45.52 45.52 0 0 0-1.98.148 41.513 41.513 0 0 0 1.98-.148zM339.212 261.521l-8.833.654c5.9-.436 20.745-.408 19.819-1.06-4.807-.132-10.591.04-12.967.321l1.981.085zM440.61 273.332l-3.816.258 4.766.076c-1.366-.098 1.102-.576-.95-.334z"></path>
    <path d="m442.48 273.679-.921-.014c.203.017.495.024.921.014zM374.606 264.955c-2.854-.047-5.137-.029-7.74.088 1.08.123 8.191.237 7.74-.088zM470.54 261.183c-.001-.001-.184.622-.571 1.513a16.612 16.612 0 0 1-1.758 3.085 16.626 16.626 0 0 1-2.381 2.633c-.725.647-1.26 1.018-1.26 1.018s.588-.398 1.378-1.107a16.45 16.45 0 0 0 2.563-2.909 16.339 16.339 0 0 0 1.815-3.434c.383-.993.548-1.685.548-1.685l-.16.446c-.08.223-.174.44-.174.44zM444.528 238.507l-1.087-.123-5.224.234 1.105.122zM456.573 260.403c-.472.15-.925.251-1.352.32-.12.029-.64.06-1.01.092l-1.041.108c-1.228.152-1.782.33-1.224.392l1.294-.004 1.326-.004.369-.002.231-.007c.138.002.274-.02.412-.029a5.401 5.401 0 0 0 1.446-.379c.377-.157.608-.307.608-.307-.605.05-.852.138-1.281.32-.216.084-.476.188-.849.246-.095.009-.193.03-.303.033-.104.005-.198.015-.475.013l-1.598-.021.829-.078.85-.08c.188-.013.259-.033.336-.051.082-.014.164-.036.244-.06a4.58 4.58 0 0 0 1.188-.502zM226.342 239.464c1.85-.342 10.907-.144 11.382.181-1.217.141-6.127.276-3.043.483l7.166-.84c9.532.523-7.245 1.104-11.953 1.4 9.71.108 12.588-.444 22.918-.44a68.665 68.665 0 0 1-6.582-.465c-.351-.591 9.274-.329 16.154-.376-4.381-.257-1.846-.473 1.345-.705.574-.019.956-.052 1.228-.092l1.083-.083-.825.001c.059-.066-.123-.146-.719-.256-5.773.172-10.188-.322-13.905-.33 3.672.961-12.657.222-17.331.518l-5.395.095-2.019.002c-.406-.105.168-.238 3.246-.428-2.568.189-11.134.123-10.343.432l-19.548.014a20.823 20.823 0 0 1-1.667-.157c-.678.061-.791.11-.702.159l-85.17.062c4.202.076 7.836.295 12.169.401-6.502.638 7.104.115 5.195.719-2.923.219-7.2.15-9.748.003-.949.305 2.682.575 2.262.939 10.742.383 12.386-1.075 22.887-.854-.416.365-3.662.685 3.212.635l-1.747.079c11.007-.409 8.576.826 15.505-.176l-.182.527c4.993-.397 14.707-.4 20.181-.473l-.327.102c15.357-.604 8.621-.128 25.865-.381l-7.937.615c5.949.254 7.29-.415 11.561-.346-.306.102.685.487-3.349.583l20.924-.938c4.994-.396-1.014-.385-1.791-.61z"></path>
    <path d="M252.812 240.248c1.107.028 2.366.04 3.851.02l-3.851-.02zM105.679 238.644l5.983-.005a151.324 151.324 0 0 0-5.983.005zM282.804 239.097c-3.628-.272 2.716-.381 3.349-.584l-12.994.01c.059.203-1.228.431-.966.616l10.611-.042zM269.397 238.14c-.44.142-1.815.268-3.356.388l7.118-.005c-.045-.153-.843-.291-3.762-.383zM270.772 248.981l-2.3.018-3.481.157zM234.794 248.087c2.748.308 7.96.074 9.704-.004-6.008.01-3.404-.107-9.704.004zM242.218 251.387l-5.791.175.541.06zM98.844 235.763l1.926-1.974-1.156 1.167-.77.807z"></path>
    <path d="M111.143 240.216c-13.813-.592 9.05-.492 4.711-1.25l-7.517.251.64-.203-8.216.066a.879.879 0 0 0 .1.117c.071.035-.024.065.251.094l1 .15c.537.095.788.191.583.375l-1.832-.028-.389-.032a3.418 3.418 0 0 1-.489-.075c-.219-.054-.255-.119-.26-.192.02-.148.031-.336-.304-.567-.432.014-.863.028-1.26.028l.416-.47a.727.727 0 0 0 .114.041c.09-.101.048-.124-.025-.136l.695-.745.353-.377.196-.21.627-.641 5.955-6.014 16.217-16.378c5.725-6.135-3.745 2.815.249-1.939-6.872 6.875-17.361 16.815-17.43 17.914.16-.302.472-.899-.982.434l-3.551 4.399 3.926-3.655c-.894 1.105-2.377 2.734-4.139 4.59l-.673.706-.172.18-.077.081-.015.018-.059.072-.242.283a12.03 12.03 0 0 1-.518.546c-.701.694-1.64 1.455-2.362 1.915.546-.69.357-.828.441-1.133.043-.154.163-.358.499-.716.33-.353.892-.875 1.687-1.531-.227-.034-1.176.456-.446-.418-1.627 1.747-3.168 3.285-4.74 4.867 1.688-.005 3.405-.015 5.116-.07l1.269-.051.312-.016.668-.017 1.903-.039c2.544-.075 5.13-.149 7.77-.224zM168.227 139.562l.211.053c-.422-.221-.569-.273-.211-.053zM173.996 145.981s.416.682.866 1.795a15.726 15.726 0 0 1 1.055 4.284 16.133 16.133 0 0 1-.189 4.473c-.228 1.217-.512 2.004-.512 2.004s.127-.299.294-.84c.176-.538.389-1.32.547-2.274.333-1.903.33-4.533-.4-7.02-.689-2.498-2.091-4.753-3.377-6.18a15.85 15.85 0 0 0-1.657-1.628 9.718 9.718 0 0 0-.688-.554s-.372-.13-.748-.234c-.372-.112-.749-.193-.749-.193.786.399 2.667 1.609 4.145 3.437 1.526 1.792 2.512 4.139 2.755 5.49 0 0-.272-.68-.614-1.318-.332-.644-.729-1.242-.728-1.242z"></path>
    <path d="M168.062 168.252c4.552-4.853 3.879-5.015 1.124-2.64.516-.564.945-1.016 1.306-1.38l1.036-1.018 1.375-1.431c.303-.327.539-.595.866-1.161.311-.569.75-1.442 1.119-3.036-.227.019-1.14 2.888-3.321 5.29l-2.347 2.472-1.485 1.595.327 1.309zM133.146 202.729l1.15-1.495-3.304 3.212zM134.296 201.234l3.28-3.187c-.352.095-.699.191-1.314.631l-1.966 2.556zM146.182 189.681c1.4-1.338 2.938-2.829 4.792-4.661l-4.792 4.661zM142.378 193.273l.164-.055 3.641-3.537-3.805 3.592zM137.576 198.047c.817-.233 1.739-.542 6.334-5.298l-1.369.47-4.965 4.828zM200.102 250.765l-5.23.234.554.064 5.227-.235zM169.926 250.387a98.483 98.483 0 0 0-3.164.227c1.361-.045 2.445-.114 3.164-.227zM147.492 253.21c-6.151-.416 8.486-.55-2.906-.734-1.004-.387 4.336-.886 9.7-.693-.426.364-5.227.233-1.929.605 3.563-.421 4.917-.134 3.676-.683 5.994-.342 6.661-.732 10.729-1.09-7.245.242-22.458-.322-31.652.383-5.068.66-1.994 1.561-2.015 2.514.763.223 13.902.329 14.397-.302zM157.172 254.161c2.847.047 3.717.009 5.464-.07-.472-.326-3.164.056-5.464.07zM90.638 246.985c-.378.068-2.074.144-3.605.232-1.524.088-2.892.189-2.438.306l9.384-.171c-2.123-.023-2.711-.189-3.341-.367zM97.992 247.279l-4.013.073c.988.012 2.245-.007 4.013-.073zM90.32 246.901l.318.084c.155-.029.163-.058-.318-.084zM159.75 176.449c.107.263 2.457-2.309 3.637-3.599-1.02.989-2.49 2.339-3.637 3.599zM91.046 200.203l-2.319 2.025c.855-.679 1.292-1.029 2.319-2.025zM62.573 238.78c-.027.1-.158.291-.346.536.194-.24.314-.422.346-.536zM62.227 239.316c-1.333 1.64-6.157 5.986-7.573 7.87l.138-.281-2.931 3.209c2.857-2.898 8.923-8.907 10.366-10.798z"></path>
  </g>
</svg>
