<svg xmlns="http://www.w3.org/2000/svg" xml:space="preserve" width="512" height="512" id="right-arrow">
  <path fill="none" d="M115.5 458.99a5 5 0 0 1-5-5V58.01a5 5 0 0 1 7.88-4.087l281 197.99a5.002 5.002 0 0 1 0 8.174l-281 197.99a4.993 4.993 0 0 1-2.88.913zm5-391.341v376.702L387.819 256 120.5 67.649z"></path>
  <g fill="#202020">
    <path d="M139.821 84.32c-1.939-1.298-3.423-2.724-2.625-2.333-4.102-2.429-3.938-2.837-4.861-2.596-2.7-1.464-5.073-3.743-2.067-1.987l-7.445-4.7 4.233 3.121c-1.52-.329-6.764-4.987-8.533-5.369l7.814 5.434-.504-.109c1.896 1.071 5.285 3.57 6.436 4.484-.247-.052-.219.166-1.602-.787 9.368 6.657 3.142.916 11.053 6.244a27.551 27.551 0 0 1-1.899-1.402zM146.946 91.156l3.715 1.687 5.385 4.034c.214-.171 4.34 2.478 1.762.378-.554-.339-1.647-1.014-2.479-1.63.94-.032 7.474 4.919 6.189 3.312-4.435-2.94-5.03-3.513-7.972-5.022-3.956-2.852-6.783-5.003-8.525-6.484-1.233-.763-1.6-.595-3.143-1.598l1.034.702-.329.812c1.357.736 2.494 1.641 3.895 2.607l-7.009-3.72c1.615 2.115 8.208 6.187 10.543 8.238-2.72-2.796 2.701 1.466-3.066-3.316zM141.878 85.833l-.159-.109.159.109zM152.86 424.504c-1.36.977-1.647 1.426-1.786 1.647l15.396-10.867c-.611.156-5.208 3.056-2.32.857-1.465.729-5.371 3.74-5.781 4.399l.919-1.066c-3.297 2.859-6.217 3.864-4.052 2.022l-.297.214-8.86 8.305c3.667-2.463 2.447-2.432 6.781-5.511zM118.944 95.189c.078 2.442.159 2.742.242 2.465a35.713 35.713 0 0 0-.242-2.465zM144.01 431.958l-2.776 2.601c1.151-.986 2.125-1.904 2.776-2.601zM160.724 410.371c-.01-.027.009-.071-.094-.045l-1.228 1.194a.348.348 0 0 1 .036-.024l1.286-1.125zM115.11 385.197l-.037-1.236c.004.45.019.857.037 1.236zM200.722 378.502l-6.557 5.24c.775-.839-2.488 1.548-1.206.302-.5.399-2.893 2.201-2.154 1.832l1.388-.997c-3.209 3.116-.867 1.795-6.548 6.45 3.957-2.28 5.369-3.74 7.154-5.388l1.736-1.342 5.132-4.813 1.055-1.284zM122.916 211.943l.054.092c-.019-.084-.037-.099-.054-.092zM123.194 212.401l-.224-.366c.112.45.219 2.175.224.366zM144.88 430.791c-.019.172-.322.58-.87 1.167l2.07-1.942-1.2.775z"></path>
    <path d="m149.227 425.858 5.712-4.147 1.918-1.795c-2.128 1.668-4.657 3.564-7.63 5.942zM114.699 396.345c-.107-14.621.823 3.592 1.021-3.126-.097-4.06-.487-5.492-.61-8.022.334 11.596-1.287-1.572-1.08 10.123-.707-1.663-.771-8.435-.579-12.402.681-4.492.499 3.925 1.167 4.942-.111-4.693-.235-3.866-.615-5.858.158-7.369-.837-15.246.107-19.646-.15-5.334-.476-4.983-.835-8.051-.729-.61-.383 7.934-.957 9.91.062-.41.185-1.208.287-.977l-.153 4.611c.254-4.378.729.607.786 2.948.015 1.701.047 5.084-.154 4.619l-.157-2.577c-.23 3.317.532 7.318.137 10.82-.164.184-.241-1.142-.342-1.343.498 3.925.469 7.71.821 13.52l-.723-3.368c.8 4.647.573 15.171.15 22.463.123-.809.208-2.267.348-1.392.173 4.284-.323 7.52-.704 5.535.15 1.046.193 2.565.186 4.346l-.116 6.657c-.104 8.129-.185 17.008.205 21.948.169 2.007.339 4.013.339 6.346 6.363-5.163 12.1-9.886 17.211-14.167l3.716-3.129 1.77-1.502c.129-.112.326-.272.397-.344l.258-.246.517-.491 4.136-3.935a48.53 48.53 0 0 1-2.433 1.957c-2.314.854-3.32 1.657-.25-1.238-3.362 2.779-.796 1.595-8.34 6.943 2.892-2.428 3.08-3.452-3.272.932a622.715 622.715 0 0 0-9.681 7.45c-.409-6.511-.937-12.929-1.454-20.408l-.097-1.413c-.016-.276-.032-.379-.048-.538l-.048-.451-.191-1.813-.368-3.692a274.695 274.695 0 0 1-.64-7.83c.489-.509.352-11.327.467-16.584.525 2.007.675 5.908.781 9.958l.07-10.162-1.03-1.323z"></path>
    <path d="M116.343 431.647c.044-.566.068-1.143.091-1.731-.041.316-.072.833-.091 1.731zM115.643 409.063c.019.051.033.033.053.051l-.038-1.284c-.004.434-.011.926-.015 1.233zM141.418 431.879c.635-.618 1.143-1.023 1.777-1.643l-1.452 1.18c-.47.411-.673.635-.325.463zM144.325 430.883l-.267.434.821-.525c.022-.149-.12-.16-.554.091zM119.122 340.474l-.106-1.401c.008.845.051 1.208.106 1.401zM115.53 380.058c.047 5.085.73.608.733 7.802l.044-2.111c.313 5.161.169 14.231.194 20.364-.291-.692-.354 3.719-.805 3.001.106 4.192.207 8.344.672 10.503-.076 1.299-.012 2.934.048 4.657l.067 2.621-.003 1.301-.046 1.72c.137-1.046.368.674.523 1.12.078.23.136.164.154-.658.009-.407.008-1.022-.005-1.858l-.082-2.394c.037.648.1.242.138.883.381-5.176-.265-7.252-.274-11.711.269-2.666.435 4.36.543 1.845-.251-5.568.325-17.473-.69-17.104-.071-4.052.152-4.611.338-5.82-1.081-6.409.464-23.787-.918-23.729.055 2.341.025 6.153.321 9.587l-.952-.019zM134.467 436.864zM189.238 403.17l-1.218 1.964c-9.773 7.15-13.498 9.464-22.131 15.591-.733.364.272-.439.782-.847-6.024 4.372-15.236 10.631-19.426 14.091-1.94 1.358-7.187 4.705-5.417 3.132-.896.729-1.929 1.552-3.029 2.291-.474-.063 2.371-1.784 2.28-2.045-.871.587-1.242.771-1.381.994 1.284-1.246-2.134.156 4.617-4.576 3.047-1.218-4.624 3.366-2.601 2.964 2.238-1.569 1.792-1.651 1.924-1.87 2.86-1.991 2.906-1.767 2.864-1.504.942-.981 4.733-3.21 6.013-4.595 5.502-3.956.061.727 3.673-1.831l1.597-2.162 6.108-4.107c8.537-6.379-2.089-.32 7.588-7.726-1.053 1.283 3.367-.922 8.102-4.042-2.754 1.979-7.559 6.041-11.282 8.356 5.427-3.012-6.897 4.957-3.841 3.733 2.286-2.05 6.415-5.019 9.768-7.144l-1.018.813c3.499-2.356 5.598-4.92 10.551-7.995 2.348-1.688 2.043-1.18 1.742-.725 1.928-1.513 3.62-2.909 3.735-2.76zm-5.049 3.774-3.211 2.159c.831-.414 2.008-1.249 3.211-2.159zM191.243 122.232l-.921-.733c.187.18.541.451.921.733zM299.037 313.418l1.849-1.268c-.732.481-1.321.891-1.849 1.268zM338.539 282.161l2.563-2.048a31.506 31.506 0 0 0-2.563 2.048zM213.052 137.671l.086.068.448.261-.534-.329zM347.717 233.879a23.02 23.02 0 0 0-1.384-1.203c.027.122.55.564 1.384 1.203zM338.068 282.538l.172-.102c.094-.087.198-.183.3-.275l-.472.377zM279.503 324.158l-1.124.896a17.59 17.59 0 0 0 1.124-.896zM283.47 324.302c-.41.315-.799.621-1.091.872l1.091-.872zM219.175 367.59l-2.396 1.837c1.204-.866 1.9-1.415 2.396-1.837zM276.623 328.448c-.121.133-.243.266-.316.364.326-.262.459-.417.316-.364zM177.026 109.125l.151.103.119-.037-.27-.066zM170.318 105.908l-2.207-1.469a38.05 38.05 0 0 0 2.207 1.469zM312.678 207.523c-.583-.56-2.03-1.76-1.234-1.37-1.352-.736-1.516-.327 1.234 1.37zM192.104 113.26c-.459-.184-.998-.456-1.539-.731.985.541 1.844 1.022 1.539.731zM190.566 112.528l-1.447-.786c.501.287.989.552 1.447.786zM333.341 213.477c.129.162.353.378.685.631-.034-.164-.291-.376-.685-.631z"></path>
    <path d="M166.439 103.095c-.505-.109-10.179-6.389-2.314-.721-.668.299-5.252-3.344-7.454-4.705 1.45 1.202-.996-.208-.659.304 1.092.676 2.441 1.406 4.147 2.663.631.796-2.11-.896-4.1-2.43 2.337 2.053-3.496-1.853-.063.876 7.777 5.209 13.315 8.832 19.224 11.87-4.447-2.948-9.434-6.232-12.864-8.959l1.817.615c3.767 3.239 6.467 4.705 10.414 7.548l-8.765-6.529c-3.923-3.318-1.064-1.431 2.291.813-.809-.577-1.524-1.121-1.674-1.345zM175.205 103.433l-.141-.118c-.142-.077-.312-.181-.408-.22l.549.338zM225.97 376.268l-.648.709c.587-.527.748-.719.648-.709zM179.015 109.34l-.006-.004a.582.582 0 0 1 .006.004zM245.081 362.854c-.019.03-.037.063-.075.11.059-.062.05-.075.075-.11zM243.427 349.671c-.05.004-.074-.008-.172.03-.389.312-.177.193.172-.03z"></path>
    <path d="M245.066 362.802c.009.014.032.019.015.052.004-.024.027-.062-.015-.052zM336.728 295.775s-.347.13-.86.382c-.15.167.062.089.86-.382zM317.944 308.025l-.369.188.369-.188zM315.6 212.579a66.27 66.27 0 0 0 2.177 1.499 43.87 43.87 0 0 0-2.177-1.499zM245.006 362.965a10.95 10.95 0 0 1-.803.799c.45-.414.677-.647.803-.799zM363.078 273.846l-.529.446.351-.214.178-.232zM372.869 267.437c-.291.28-.403.438-.554.613 1.641-1.295 4.063-2.996 6.128-4.498 2.208-1.604 4.085-3.028 4.146-3.425-.598.43-2.557 1.711-4.174 2.696-1.591.967-2.933 1.705-2.52 1.207-2.295 1.794-6.045 3.939-7.271 4.92 4.088-2.493.704.102-1.82 2.119-2.495 1.551.183-.699-1.943.668l-5.511 3.962 4.876-3.343-1.147 1.489.463-.391c8.026-5.97 1.162.179 9.327-6.017zM372.316 268.051c-.491.389-.916.74-1.231 1.034.766-.55 1.032-.808 1.231-1.034zM371.51 242.259l-1.498-.947 1.498.947zM161.011 417.101c.238.033 5.196-3.047 4.864-3.337l-4.346 2.898-.518.439zM279.086 180.18a67.01 67.01 0 0 0 1.589 1.133l.349.164c-.289-.28-1.384-.956-1.938-1.297z"></path>
    <path d="M377.252 262.829c-.836.669-1.186.998-1.356 1.202.546-.427 1.036-.84 1.356-1.202zM279.373 179.137c-.605-.576-1.494-1.43-1.542-1.663-1.38-.977-2.48-1.478-3.935-2.404 1.626 1.068 3.439 2.399 5.477 4.067zM273.778 174.996l.119.074-.119-.074z"></path>
    <path d="m158.073 418.95-1.214.966.593-.558-3.352 2.202c-.379.301-.793.624-1.311 1.007a2.03 2.03 0 0 0 .417-.425c-.365.237-.722.469-1.079.699-2.354 2.201-8.662 7.041-10.385 8.574-2.375 1.905-5.329 4.118-7.276 5.448 1.793-1.253 4.065-2.963 3.227-2.672a66.1 66.1 0 0 1-2.584 1.512l-1.259.717-1.416.852c-1.954 1.209-4.023 2.636-7.68 5.599l4.172-2.951-4.91 4.041c-2.691 2.188-5.383 4.374-5.383 4.374-.156.087-.282.153-.258.115.095-1.118.171-1.084.238-.458 1.565-1.319 5.902-4.511 6.875-5.486a100.45 100.45 0 0 1-6.408 4.585l.283-7.844c.056-2.205.021-3.929-.266-5.229.488-.89 1.303-2.236 1.254-7.244-.557 3.668-.358-3.05-.954-.04-.279-1.758.176-5.675-.189-5.968l.202.476c.773-8.687-.438-11.53-.837-15.246-.199-10.401.117-15.178.035-23.661.327-.333 1.227-2.643 1.192-6.046-.442-1.582-.647-9.259-1.215-10.042-.236 6.084.476 4.978.608 8.62-.595 3.032-.588.274-.943 4.416.231-3.343-.31-15.102.248-18.762l.078 1.292c.339-5.843 1.741-6.959.893-16.693l-.348-4.646c.057.225.123.25.174.369.059-7.603.704-5.527.195-13.921.039.648.102.241.14.9.318-4.785-.321-9.61-.455-13.227.473-2.208.465.523.808 1.89.183-8.417-.628-17.5-1.205-22.728l.277-5.426c.195 3.218.694 7.15.979 6.169-.095-2.983-.318-2.406-.228-6.626.303.72.584 2.49.965 4.474.506-8.727-1.072-1.951-.145-8.058.006-2.742-.436-4.335-.801-4.635l.478-4.968c-.465-.552-.492-6.685-.562-10.703-.2-.491-.496 3.235-.316 4.759-.365-.3-.537-4.576-.53-7.325.975-1.008-.141-18.004 1.008-14.753-.317-12.352-.416-29.705-.823-37.856.27-2.689.283-8.167.741-4.884.004-9.943-.997-15.071-.73-24.94.122-.816.009 4.461.334 4.111-.391-6.451.413-11.736.152-21.746.018 1.684.219 2.175.32 2.409-.162.176-.335-4.1-.492-6.689.084-1.455.117 1.938.241 1.122.474-19.334-.853-34.064-.809-53.294-.013 5.492.633 7.567.898 7.626l.012-5.38c-.323-2.073-.322-6.112-.563-9.49.121-.415.252-2.058.404-.381.654-10.627-1.18-16.6-.844-29.623l1.303 15.771.454-3.902.593 6.934c.357-4.141-.469-7.743.021-8.241.138.875.094 2.984.358 3.05.191-3.976-.174-4.289-.269-7.277.996 7.875.98 23.315 1.225 31.625.078 1.307-.24-1.119-.342-1.351.033 3.391-.277 5.425-.104 9.693.421 2.65.31-2.022.354-4.125.366.29.344 1.348.399 3.69-.488.509-.173 12.861-.769 15.88.154 12.517 1.264-2.001 1.052 10.218l-.559 3.65c.432 7.094.814 16.269.695 24.296l-.018-1.691c-.239-1.127-.386.735-.508 1.559-.239 6.066.439 11.518-.12 15.193.594 6.919 1.033 18.454 1.34 26.365-.736 2.134-.625-10.319-1.085-13.611l.003 7.201c-.01-4.452-.29-6.209-.709-8.877-.137 6.311.508 8.386.694 14.369-.2-.466-.323.333-.329 3.093l.489.783c-.04.051-.077.356-.108 1.208l.299 10.645c.209-2.259.635-2.368.641-5.118-.285.982-.342-1.351-.334-4.103.319 2.412.27-2.684.533-2.625-.013 5.517.053 12.296.187 15.913l-.45 1.175c-.114 5.258.137 10.811.006 14.377l-.239-1.125c-.138 6.308.152 12.52-.287 18.121.515 5.627.943 12.711 1.481 17.31.582 2.46-.729 16.511.089 22.854-.063.427-.438-4.357-.657-6.522-.09 4.22.633 7.575.021 8.897.206-9.47-.488.509-.662-3.757.011 4.434.122 9.109.34 11.284-.005-7.176.846 2.549.579-4.716.515 5.629.72 13.311.521 20.018-.264-.065-.387.761-.496 3.261l.383 2.018c-.069 3.139-.453-6.069-.589.249.655 6.502-.372 19.578.839 22.425-.478 4.955-.484-9.43-1.07-1.961-.438-4.345.063-10.338-.541-11.77.172 4.258-.511 1.554-.517 4.301l.373 4.749.023-1.05c.571 7.969.297 20.596.394 30.772.609 8.62 1.489 14.555 1.423 24.895-.357-3.053-.344 8.587-.999 2.078-.315 4.784.058 9.508.322 9.602.091-4.209.085-1.48.215-5.026.32 2.394.306 7.911.097 10.178.023-1.051-.038-.651-.139-.883-.215 5.026.318 2.409.452 6.041-.112.288-.176.934-.211 1.791l-.036 1.253-.01.782c-.003 1.096.021 2.267-.094 3.19 0 0 .16.429.319.753.16.335.319.566.319.566-.258-.281-.257.614-.308 1.64.436-.269.857-.502.867-.327.781-.731 1.458-1.457 2.102-2.098.653-.647 1.254-1.196 2.111-1.73-.15.173-.127.215.01.175a2.46 2.46 0 0 0 .28-.111l.187-.086c.069-.034.106-.045.302-.166 1.271-.768 2.788-1.676 2.948-1.528 7.588-4.847 11.507-9.529 18.822-13.938-.159.234-1.403 1.454.694.106 1.535-1.227 4.371-3.163 6.059-4.41l-.047.048.083-.072c.827-.611 1.324-1.026 1.286-1.125 2.696-2.41 3.964-3.825 9.539-8.186-.706-.101-5.475 3.491-7.497 5.108l-1.548 1.68c-2.168.627-5.137 3.776-6.608 4.51 2.969-3.148 13.074-10.009 18.757-14.661-4.043 2.017-12.047 7.526-18.93 12.477l3.221-1.911-3.621 2.563 3.809-2.049c-3.487 2.346-6.38 4.547-9.501 6.71 3.629-2.568 5.433-3.017 3.314-1.654-4.326 2.463-4.041 3.229-7.154 5.387 1.75-1.178 3.996-2.751 2.711-1.504-6.442 3.822-7.871 5.296-13.784 8.696.579.09-1.144 1.328-3.067 2.686l-.641.456c-.134.1-.261.199-.374.302-.225.205-.402.427-.459.671l.859-.522-.893.93-1.057 1.045c-.851.194-.281-.413-.013-.779.321-.403.369-.584-.475-.276a6.928 6.928 0 0 0-.699.518c-.136-1.089-.762-.581-.816-2.656.223.267.432.672.59 1.089.158.427.266.866.288 1.447l.243-.176a.304.304 0 0 0-.184.062l.177-.808c.066-.02.114.054.147.183.592-.547 1.321-1.013 1.797-1.32-.508.696-.452.709-.068.472.183-.112.421-.268.665-.398.123-.065.248-.126.371-.174.041-.019.039-.007.115-.049l.301-.176c.194-.111.374-.209.535-.289.159-.684-3.088 1.694.581-1.349l-1.901 1.351-.312.216c-.204.13-.451.262-.799.399.391-.21.71-.526.849-.79a.98.98 0 0 0 .081-.194c.027-.031-.041.005.062-.081l.213-.189.409-.369 1.476-1.385c1.87-1.785 3.594-3.439 8.074-6.356-3.904 3.009 1.791-.438 2.406-.596 1.862-1.381 5.641-4.179 7.153-5.388l-1.818.458c4.92-3.823 7.509-3.902 12.981-8.607.531-.867-5.244 3.527-4.232 2.72 7.791-6.008 11.31-7.159 18.736-11.771.287-.45-.042-.74 2.248-2.789-.551.883 1.415-.249-1.222 1.971 2.483-1.541 5.138-3.774 7.152-5.386-5.102 3.305 1.697-1.906 2.472-2.749 2.611-1.757-.552.882-2.066 2.093 2.127-1.366 4.924-2.608 5.748-3.93.326.291-5.127 4.982-8.892 7.771l2.62-1.763c-1.652 1.431-2.021 1.615-4.62 3.365 2.698-1.497 2.66-1.024 2.25-.365-.364.181.125-.211-.224-.04-2.125 1.365-3.641 2.575-3.032 2.424-1.525 1.773 3.067-1.725 4.628-2.476l3.082-2.312 9.659-9.053c4.456-3.4 6.767-4.492 10.366-6.688l.661-1.066c4.013-2.766 7.862-5.288 5.667-2.98-.238-.033-.742.37-1.62.96-.076.135-.249.314-.478.523-.066.082-.096.138-.148.209l7.014-5.285c-6.833 5.688.152.984-.559 2.551l7.153-5.389c-4.594 2.899-.326-.291 1.18-1.496.717.095 5.891-4.155 8.498-5.909l-.131.216c2.475-1.536 6.612-4.51 9.499-6.706-.23-.038 3.11-3.371 4.658-5.052-5.19 3.432-2.286 1.146-2.868 1.185.542-.349 1.491-1.011 1.565-1.139.647-.627-1.095.544-1.332.513-5.272 3.994-10.795 7.965-12.605 10.076 1.837-.916 2.657-2.234 4.633-3.373-2.413 2.263-5.919 4.622-10.416 7.774l-1.709.702-4.39 3.365c1.761-1.506.378-1.057 5.072-4.464-.828.11-4.651 3.384-7.628 5.323l-1.171 1.491c.397-.651-5.85 3.679-1.674.229l6.926-5.424-2.21 1.103 6.011-4.364-1.271 1.24c9.537-7.181 3.5-1.14 12.948-8.584 2.693-2.705 5.956-5.091 12.066-9.199-4.269 3.188-.179.694-1.598 2.161 4.6-2.904 5.786-4.405 7.942-6.238 1.332-.513 2.301-.847-1.696 1.907-.077.946 5.146-3.78 5.941-3.421 13.13-9.279 9.134-9.404 25.039-19.462l-.402.653c9.539-7.183 15.376-10.854 24.273-17.414l7.558-4.382c-1.523 1.218-5.469 4.701-3.259 3.599-3.908 1.801-7.424 4.611-11.393 6.896-.264.434 1.338-.517 2.071-.88-2.254 1.579-3.584 2.089-6.478 4.293.236.03 3.589-2.096 1.2-.297l-4.318 2.456c-5.276 3.998-2.002 2.815-8.481 7.111.935-1.182 2.99-3.388 5.391-5.204-2.956 1.969 3.721-2.938.925-1.281-3.816 3.465-6.125 4.477-11.456 8.719.602-.532.703-.755 2.049-1.751l-8.222 5.466c2.209-1.104-6.43 5.028-5.362 4.949 8.729-5.871 6.012-4.363 15.989-11.011-2.702 2.057-5.955 5.034-7.334 6.637-.098.043-.249.128-.557.332-1.184 1.501.428.545.947 1.345 4.082-3.705 7.394-5.356 12.444-9.393.69-1.125-3.444 1.613-5.988 3.57l4.447-3.557-.776.841 11.896-8.169c-2.219 1.598-2.804 2.38-3.839 3.389 1.534-1.056 3.121-2.005 4.812-3.011-.624-.17-.614-.607.876-1.646 7.657-5.251 12.134-7.857 15.263-9.366l.863-.651c-1.566.479 4.861-4.547 6.912-6.631.188.514 4.094-2.497 6.437-3.817.815-1.315-1.219-.904-4.168.567-4.813 4.068-2.554 2.482-4.525 4.833l-7.931 6.229 1.562-1.691c-4.231 2.721-7.811 6.022-7.871 5.297 1.93-1.872 5.661-4.19 7.573-6.052l-2.851 1.728c4.439-3.884 2.801-1.246 8.358-5.688-2.443 1.068.504-.401 2.784-2.447-2.211 1.103-10.134 7.327-8.913 5.355 2.791-2.451 10.771-6.287 14.245-9.839l-.136.222c5.96-4.057 7.732-5.939 9.751-7.761 2.677-1.526 5.9-4.304 8.599-6.246l.086.263 3.771-2.791c-1.548 1.68-4.501 3.155-7.754 5.533l.692.112c-4.133 2.199-6.155 4.707-8.856 7.128 4.041-3.367 12.171-8.429 12.625-9.922l2.937-1.464 1.165-1.039c2.19-1.088.509.81-3.257 3.6-.737.367-1.105.552-.963.325-1.651 1.433-3.064 2.894-7.431 5.833l2.146-1.83c-5.377 3.745-10.137 7.331-11.693 9.018 7.851-5.281 15.48-10.604 22.728-15.737 1.504-2.416 3.687-4.715 4.184-6.326 4.763-3.589 11.295-8.365 15.744-11.038l-.272.439 1.545-1.026.264-.179.118-.091c.149-.124.261-.255.323-.371.319-.06.434.026.466.151.039.12.007.271.267.179.354-.364.646-.683 1.036-.957l-.552-.192c.218 0 .473.068.767.192-.146.331-1.135 1.036-1.639 1.421.11-.126.301-.355.155-.33-.238.11-.449.275-.678.481l-2.964 2.263c-2.041 1.548-3.889 2.887-4.792 3.11-1.513 1.21 2.924-2.669-2.447 1.072-3.729 2.316-4.546 3.634-4.805 4.063.095.257 5.832-3.665 4.044-2.017 2.77-1.991 3.684-3.053 7.396-5.356-2.744 1.973-6.188 5.056-7.897 5.758-5.181 4.253-3.683 4.714-1.066 2.955-.838.114 9.692-7.415 2.235-2.781 1.465-1.338 3.667-3.044 6.007-4.817 2.17-1.654 5.49-4.09 5.333-4.171l.021.107 1.557-1.25c-.024.188-.42.61-.144.737.412-.476.738-.89 1.242-1.245-.533-.21-1.023-.39-1.471-.54.962.387.947.275.536-.074-.398-.341-1.107-.86-1.349-1.159-.323.02-.752-.068-.988-.047-.242.017-.303.135-.056.451.47.69.625.173 1.456.72 0 0-.489-.149-.893-.239-.413-.095-.74-.131-.74-.131l-.017-.088s-.23-.002-.419.024l-.135.022-.059.013c-.016.007-.026.015-.108-.028l-.417-.193c-5.328-3.8 3.036.655-4.113-3.758l.482 1.21c-7.876-5.678-17.608-13.514-23.405-17.197 1.78.759 2.836.708.932-1.106 2.348 1.804 7.222 5.208 10.729 7.596.595.573-4.817-2.366-8.497-5.146 1.155 2.238 9.883 6.103 9.646 7.379 4.682 3.55 6.636 4.58 8.388 5.509.876.465 1.702.905 2.793 1.624a37.99 37.99 0 0 1 1.875 1.324l1.161.889.649.514.343.275.177.143c.034.03.037.039.057.059.354-.395.904.322 1.488.165-.03-.284-.366-.65-.865-1.053l-.875-.642-1.028-.726-2.249-1.537c-3.127-2.109-6.654-4.415-9.211-6.4.539.333 1.627 1.003 1.888 1.065-3.691-2.79-5.32-3.794-8.073-5.495l.296.286c-4.91-2.831-2.628-2.333-5.21-4.436-1.098-.677-4.785-3.462-4.401-2.719l-4.629-3.874-.102.648c-2.794-1.926-3.178-2.672-5.897-4.15l-.42.348 6.783 5.003c-3.59-2.319-1.264-.273-5.163-2.886 4.617 2.549-2.863-2.375-3.004-3.072l-2.992-1.746.802.394c-2.059-1.782-2.749-1.697-5.294-3.575 2.879 2.388 4.662 4.097 8.762 6.528-2.998-1.751-8.795-5.434-10.182-6.39-3.097-1.912-4.938-3.7-7.683-5.706 5.453 3.584-.947-2.621 9.519 5.216-.256-.057-1.107-.685-1.407-.971 1.037 1.553 6.429 4.478 8.894 5.899-.374-.737 2.104.891-1.879-2.177 1.204 1.152-3.958-1.732-7.682-4.745l1.166-.193-5.633-4.088.555.343c-1.832-1.944-6.129-4.192-9.865-7.209-2.999-1.751-13.713-9.588-9.545-5.589-3.217-2.902-6.684-4.536-10.584-7.147l4.588 3.646c-5.996-3.499-4.146-2.665-9.215-5.081-.327-.507-1.229-1.371-.172-.918-7.57-5.388-18.283-13.223-23.13-15.807-5.334-3.802-5.611-5.192-13.345-10.172-1.649-1.02.787 1.502-4.05-2.197-.299-.286 5.143 2.872-.434-.978-4.312-2.258-9.063-6.816-14.513-9.98-2.577-2.097-7.328-5.338-6.058-5.061 4.226 3.118 10.36 7.312 11.425 7.765-.768-.168 2.882 2.392-.415.355 6.268 4.883 4.391 2.711 10.061 7.025.518.118-2.67-2.565-4.022-3.296.37-.582 11.668 7.813 6.971 3.493-6.185-4.431-8.859-4.557-13.831-8.947 2.402 1.179 5.577 3.85 8.738 5.192l-4.27-3.347-3.501-1.858.25.052c-7.459-6.027-7.645-4.518-14.843-9.167 3.779 3.248-1.626.316 1.255 2.705-4.731-3.226-8.115-5.723-7.75-6.308 9.08 5.709.917-.247 9.408 4.895-1.187-1.138 2.508.534-2.271-2.928-5.719-3.427 1.295 1.615-4.257-2.018-.285-.276-.582-.562-.334-.511-2.7-1.463-2.834-2.155-6.08-3.958l.794.391c-3.479-2.963-4.342-2.479-7.282-5.108.986 1.321-2.392-1.172-4.562-2.31 3.135 2.445 4.469 4.283 10.896 8.762 1.006.214.668-.299 3.411 1.395l-4.191-2.893c.937.579 1.681.975 2.551 1.489l3.877 2.989c-5.236-3.335-3.161-1.344-5.557-2.518-4.537-3.413-3.892-2.606-6.733-4.77.635-.279-8.361-7.132-13.482-11.208l2.465 1.766c4.096 2.427-2.385-2.286-2.434-2.521l-2.999-1.75c.556.341 1.372.747.214-.172-3.892-2.607-4.008-1.969-7.894-4.57-.099-.47 3.418 1.401 1.141-.414-.655-.811-2.828-3.27-8.072-6.611-.432-.151-1.789-1.021-3.346-2.053.223.135.496.313.605.361l-3.167-2.668c3.195 1.569 5.66 4.31 8.871 5.887l.551-.261c2.249 1.583 5.433 3.546 6.995 4.31-3.375-2.488-4.177-2.883-8.072-5.493-.343-.652 2.499 1.046 2.909 1.291l-.746-.156c4.317 3.579 7.125 4.398 12.758 8.488.846.623.3.285.05.233 4.902 2.825 9.015 6.584 13.882 9.185l-1.621-.8 15.684 9.519.167-.135c-.59-.567 1.641 1.014 2.792 1.927l-.008-.002 8.582 5.242a30.452 30.452 0 0 0-2.662-2.198c-1.073-.46-6.432-4.478-5.998-3.5-2.337-2.053-6.685-4.534-8.421-6.013 3.179 2.673-2.655-1.235-3.423-1.404-.937-1.085-5.028-3.511-4.316-3.581-.597-.57 1.483 1.424 3.083 2.209 3.794 2.141-6.267-4.884-1.614-2.112-5.803-3.688-13.119-9.017-19.158-12.745l3.132 2.44c-2.535-1.87-8.688-6.077-9.013-6.583 1.944 1.303 4.176 2.883 6.678 4.531.422-.348-5.882-4.141-5.967-4.599l-7.61-4.294 3.096 2.217c-2.145-1.12-8.431-6.021-13.212-9.481 3.183 1.36 7.289 5.112 12.531 8.452 3.844 2.374-1.875-2.174 1.713.143-.808-.774-3.096-2.363-4.323-3.005l-1.301-1.077c3.491 1.657 10.384 6.693 15.354 9.505-.448-.229-.846-.419-1.019-.448 3.43 2.728 7.068 5.279 10.655 7.594-1.725-1.469-2.536-1.868-3.634-2.548-.038-.225 3.294 2.037 4.644 2.768-3.134-2.442-.382-.743-2.373-2.277 2.203 1.361 3.888 2.604 6.422 4.474 1.192 1.143-1.301-.499-1.215-.042 2.764 1.708 3.528 3.198 7.624 5.625-5.082-3.748 1.767.38 3.671 1.454l-.852-.628c1.856.842 3.254 1.808 4.184 2.89-2.202-1.361-4.184-2.89-3.806-2.149 1.405.97 2.805 1.936 4.453 2.954l-1.598-.784 6.981 4.82c1.295.494 3.407 1.392 4.658 1.657 1.485 1.425 3.95 2.847 5.597 3.861l-.816-.401c2.89 2.394 9.836 6.99 10.585 7.146 2.03 1.76-16.556-9.311-.947 1.344 5.874 4.135 4.213 1.789 7.757 3.877 0 0-.246-.053.05.234 2.53 1.868 2.999 1.75 5.201 3.111-1.457-1.206-3.686-2.785-4.485-3.177 1.006.215 5.332 3.8 7.483 4.928-2.914-1.292 4.831 3.694 2.663 2.558 4.881 3.928 10.629 7.376 13.577 8.892 3.019 3.083 6.142 4.201 11.563 8.462-.852-.629-2.489-1.639-3.65-2.561-3.494-1.856 5.683 4.322.483 1.212 1.101.681.227-.162-.901-.862-1.927-1.289-3.836-2.368-3.49-1.848l4.335 3.59-1.67-1.03 6.612 5.401c.246.052-.335-.51-.635-.796 7.921 5.907 17.348 12.136 24.375 17.186 2.133-.206 17.759 11.781 23.969 15.106-1.764-.752-3.009-.764-2.228.142-1.309-.85-4.243-2.227-7.066-4.359-.332-.509-3.756-3.232-1.311-1.823-8.08-5.499.729 1.263-1.929.027 8.93 6.125 14.593 9.115 20.37 12.783l.046.234 4.399 2.717c-3.395-2.505-2.768-3.032 1.516.325l-.563-.349c2.343 2.058 7.841 5.454 11.771 8.285l2.948 1.517c3.936 2.837 3.615 3.654 4.609 4.98a104.334 104.334 0 0 0 7.986 5.199l3.43 1.98.844.482.423.242.634.393 2.636 1.652c1.965 1.7 9.209 6.952 10.687 8.237-.635.377-.824.434-.337 0a50.134 50.134 0 0 1-1.872-1.149c.636.419 1.237.802 1.801 1.149-2.744 2.243-3.541 3.46-5.672 5.382-1.063.959-2.467 2.101-4.569 3.604l-1.705 1.191-.955.647-.702.455a82.552 82.552 0 0 1-3.088 1.85l2.288-2.052c-9.149 6.539-21.849 16.359-26.301 19.035 2.648-3.443-12.237 7.019-14.6 7.137.621-.085-2.777 2.427-3.191 2.908-.843.411-2.186 1.182-3.372 2.337 3.731-2.318-1.765 2.848 4.795-2.397-2.969 3.151-7.048 6.854-14.67 12.172l-.189-.512 6.104-4.104c-.831.11 2.279-2.046 3.444-3.087-11.353 7.638.753-2.04-10.639 6.071-.907 1.058-.273.438-3.167 2.643 1.387-.999 1.43-1.474-.826.107l-1.92 1.868c-4.499 2.094 6.278-5.124 2.517-3.229 4.176-3.448 11.694-9.017 9.882-8.563-7.35 4.88-5.76 5.6-13.473 10.66l-.968.331c-2.539 2.028-2.7 2.709-3.99 3.961-.225-.041-.969.334-2.698 1.495-4.087 3.709-6.981 5.911-10.686 9.425 10.672-8.198 9.693-6.2 20.753-14.598-1.651 1.432-9.546 7.189-9.617 8.131l-.198-.506c-3.53 2.823-7.061 5.643-11.794 8.765l2.657-2.235c-5.929 4.627-10.669 6.537-15.008 10.669 1.738-1.168 3.118-2.159 4.129-2.969-3.025 2.419-7.021 5.17-10.508 7.517l-6.605 5.72c-.088-.258-4.601 2.903-2.669 1.03-5.349 3.277-7.308 5.619-10.188 7.81-5.563 3.234 4.395-3.402 4.489-4.359-7.36 4.887-14.885 10.459-18.685 13.717 1.533-.95 2.301-1.38 2.3-1.223-.314.019-3.198 2.103-4.823 3.241l-.917 1.065c-2.835 1.714-2.57 1.281-.422-.55-2.621 1.766-5.318 4.473-8.263 5.942 4.17-3.443 9.996-7.107 12.146-8.937-9.019 6.768-9.873 5.68-21.302 14.265-.238-.033 1.556-1.688-.696-.105-5.141 3.775-.956 1.536-2.364 2.995 3.891-3.002 5.878-4.146 8.456-5.434l-.911.982c-.245-.004-2.77 1.765-3.593 2.174l-.322.921c-.062-.725-4.369 1.726-7.402 4.15 3.464-1.884 2.585-1.294 3.868-1.324-4.066 3.693-5.411 2.999-9.992 7.104.258-.429 4.532-3.624.675-1.095-3.135 2.175-2.438 2.281-4.439 3.883 2.055-2.087 1.226-1.979 3.422-4.284 5.503-3.958 2.239-1.569 7.524-5.572l-4.839 2.869c4.646-3.378 3.07-2.895 3.341-3.331-8.324 5.215-5.585 4.907-10.823 8.43-2.28 2.045 4.876-3.343 1.202-.296-4.868 3.337-.903 1.055-6.187 5.055l.768-.835c-1.834.912-3.25 2.379-5.135 3.771-2.015 1.614 3.431-.195-5.209 5.936.341-.418.443-.604.408-.653l5.919-9.541a1478.47 1478.47 0 0 1-29.282 20.136c-2.888.984 6.845-5.689 6-5.567l4.736-3.122c-.051.48-9.646 6.934-5.09 4.511 8.034-5.98 11.988-8.256 19.32-14.339-2.908.996-10.138 7.33-15.572 10.345 2.153-1.448 3.889-2.787 5.557-4.112l-15.423 10.425-1.092 1.023c3.692-2.483 6.25-4.196 6.593-4.399-4.865 3.337-8.658 6.592-8.616 7.331l.87-.585-1.629 1.389a798.017 798.017 0 0 0-3.46 2.281zm-38.301-311.643c.061.358.131.641.219.849-.092-.216-.151.026-.219-.849zm131.519 243.38-19.292 13.178c11.869-6.842 20.252-11.598 1.625 1.498l-1.167.932c2.521-1.59 6.728-4.53 10.622-7.385a646.14 646.14 0 0 0 7.234-6.582l3.485-3.247c.897-.852 1.446-1.396 1.397-1.404-1.331.513-2.761 1.984-4.879 3.347l.975-.337zm5.773-1.519c3.725-2.454 2.736-2.095 3.159-2.696l-3.776 2.775c.52-.29.81-.387.617-.079zm2.798-2.745c-.413.284-.77.521-.972.622l.972-.622zm-71.076 49.694.366-.276-2.657 1.802c.371-.215 1.055-.658 2.291-1.526zm7.748-4.716.604-.98-2.49 1.69c.395-.027.787-.084 1.886-.71zm24.64-15.534c1.185-1.502 6.192-5.06 6.138-5.791.227-.357-.865.336-2.08 1.129l-4.262 2.938c.001.111-.247.391-.697.808 1.523-.977 2.601-1.545 2.225-.807-4.287 1.989-3.061 2.89-7.293 5.608-1.052 1.285 4.826-2.862 5.969-3.885zm18.82-224.468c-.085-.127-.405-.525-.867-1.066l3.073 1.785c5.084 3.75 8.699 7.403 13.794 10.042 2.063 1.692 2.989 2.85 3.905 3.912a115.947 115.947 0 0 1-2.826-2.126c-13.685-8.25-6.102-5.769-17.079-12.547zm58.722 42.73c-.556-.343-.806-.394-.806-.394 12.201 7.185 21.893 13.604 28.086 18.022-.942-1.224-6.317-5.444-8.857-7.466l2.648 1.228 1.229 1.368 4.349 2.484c-.938-1.09-4.271-3.349-6.315-5.119-.249-.054-7.645-4.52-9.798-5.645l5.421 4.26c-1.437-1.19-8.973-6.353-12.01-8.33-.21.173 4.661 4.098 5.631 4.086.384.745-5.501-3.396-2.021-.436-4.646-2.768-11.461-7.992-14.604-10.442l-.176-.921c-3.424-2.723-2.864-1.058-6.889-4.354 5.288 3.571-.471-1.206 3.706 1.678-1.183-1.135.37-.583-3.814-3.472-3.957-1.732-4.069-3.529-7.779-5.211-2.03-1.76 2.651 1.232-1.583-1.892-5.192-3.105-5.095-2.638-5.763-2.34 4.511 3.394 5.652 2.983 9.336 5.766l-8.122-4.407c1.295 1.099 2.31 1.833 3.192 2.402-1.543-1.011-2.916-1.783-4.138-2.376l-1.916-.959c4.249 3 8.016 5.674 8.529 6.363l-.762-.164c1.344 1.289 3.924 2.839 5.184 3.454 3.826 2.655 7.874 4.987 8.479 5.896l-1.605-.791c4.733 3.23 5.276 3.567 11.168 7.712zm23.495 106.339c3.479-1.086 7.175-2.482 20.3-11.969l-.998.797c7.074-4.127 12.473-9.921 21.036-15.003-3.695 3.118-3.505 2.938-7.299 6.789l4.044-3.235c-.821 1.321 3.213-1.905 6.329-4.066l-2.319 2.52c-1.98 1.141-6.849 4.479-6.611 4.514 1.01-.81-6.895 3.741-10.808 6.756.697.107 9.101-6.056 5.758-2.723 3.159-2.636 3.856-2.529 7.261-5.139-3.167 2.643-.447 1.132-2.743 3.187l5.649-4.185c.244.028-8.158 6.192-3.104 3.368 2.153-1.832 8.485-5.899 8.292-6.408l.235.033c4.372-2.941 1.464-1.945 6.925-5.425-.09-.261-1.204.3-3.067 1.679-1.533 1.225-1.569 1.693-4.825 4.078-1.716.704 4.008-2.761 1.316-1.719-1.337.518-8.533 6.38-6.573 4.039l4.363-2.936c-.193-.51 2.937-2.678 2.604-2.964 2.517-2.011 5.34-3.272 7.76-5.54.918-1.064-1.395-.212 3.206-3.115 2.386-1.158 7.425-4.527 12.119-7.801a515.137 515.137 0 0 0-9.792-6.794l-2.119-1.287-1.772-1.043c.08.255 1.552 1.279 3.154 2.409 1.507 1.063 2.623 1.866 1.205 1.124l-5.625-3.808.521.118c-1.706-1.257-3.604-2.327-5.25-3.346 1.847.836 5.526 3.616 5.095 2.639-2.392-1.817-2.648-2.248-4.967-3.753.516.315.971.57.952.463-4.83-3.695-5.151-2.877-6.5-3.608-5.406-2.934 4.652 4.09 3.688 4.103l-14.757-10.027c1.349.731 2.705 1.47 2.365.954-3.431-2.727.164-.406-4.872-3.922-.076.867-6.594-4.072-10.392-6.216-1.479-1.419-1.785-1.71 1.845.836-.135-.692-5.108-3.967-6.813-5.222-1.071-.607-2.821-1.753-3.968-2.428 1.312 1.222.516 1.035-2.746-1.009l-.241-.045c5.073 3.738 12.771 9.815 16.288 11.682l-1.052-.445c5.718 4.545 13.478 8.424 15.695 11.114-.464.12 1.149.912.742 1.27l4.626 2.756-1.05-.447 7.535 5.164-.255-.059 5.149 2.83 3.919 2.109c.252-.104.074-.316 1.459.453 1.336.802 2.305 1.463 3.08 2.046.008.004.008.004.011.004h-.005c.678.509 1.198.954 1.68 1.387-1.217.705-2.442 1.375-3.892 2.294a562.614 562.614 0 0 1 3.224-2.294l-3.455-2.388c-1.055-.265-.899.34 1.429 2.314-1.188-.819-2.086-1.079-.823-.134.05.016.183.088.385.208-.607.551-2.765 2.249-1.243 1.498-1.348.993-3.03 2.133-4.826 3.319l-6.636 4.396c-4.83 3.225-10.043 6.812-14.837 10.644 6.938-5.435-6.067 3.635 1.827-2.124-5.935 3.417-4.442 3.883-10.182 7.808-.613.157 3.111-2.156 4.162-3.438-9.593 6.452-15.361 12.058-24.61 18.343l-.672-.122a4052.83 4052.83 0 0 0-5.534 4.142zm-17.731 13.236-5.26 3.912c.18-.121.347-.232.534-.359l-5.06 4.046c3.357-2.134 5.806-3.203 1.404.203.266-.435-1.205.3.308-.909-3.215 1.907-10.061 6.384-7.895 5.758 5.453-4.692 1.904-.194 6.207-3.857-2.192 2.132-4.762 3.678-6.97 5.495 2.195-2.037-1.089-.345-4.845 2.067-1.518 1.215-5.877 4.147-8.401 6.164 1.199-.294-.948 1.534 3.413-1.4a64.666 64.666 0 0 1-6.759 4.738c1.039-.826 2.901-2.207 2.676-2.248-2.001.904-4.056 2.374-5.297 3.032l-2.676 1.974a4.66 4.66 0 0 1 .75-.339l-2.79 2.452c3.899-3.007 1.979-1.14 2.078-.888-.195-.507-2.628 1.769-3.994 2.752l3.311-1.651c-1.284 1.247-5.334 3.267-4.262 3.186 6.471-4.289 8.855-6.085 14.497-10.264l-2.578 1.288c6.296-4.812 4.42-2.207 11.671-7.341 2.791-2.45 10.906-7.719 10.601-8.472-.772.839 4.928-2.61 7.21-4.657 2.334-2.53 10.598-8.472 7.888-6.966-2.253 1.577-5.05 4.033-7.128 4.922l4.273-3.195-3.088 1.693c1.561-.926 1.195-1.141.182-1.136zm-100.16 65.141-.174.11.188-.13-.014.02z"></path>
    <path d="M174.504 107.263c-1.357-.737-4.44-2.945-4.057-2.2.171-.402 5.577 3.849 4.057 2.2zM171.037 104.31c-.277-.071-.219.169-1.619-.798l3.893 2.61-2.274-1.812zM168.828 99.191c-2.158-1.132-3.513-1.867-6.597-4.075-.566-1.67 5.243 3.339 7.207 3.536-5.626-4.083-7.894-4.57-12.619-7.792 2.066 1.986 11.383 8.857 12.009 8.331zM172.109 99.896l-3.296-2.035.277.27 3.298 2.036zM235.357 155.507c.098.467 2.251 1.593 3.353 2.272-.847-.622-2-1.539-3.353-2.272zM126.504 194.232l-.313-29.491.313 29.491zM316.577 210.137c-6.649-4.311-9.848-5.879-16.525-10.41 8.296 6.646 12.043 7.236 18.938 12.915l-2.413-2.505zM312.801 210.647c-.721-1.256 5.407 2.933 4.727 1.904-4.449-2.952-2.367-.955-6.296-3.787l1.569 1.883zM289.294 181.711l2.146 1.123-1.647-1.018zM342.615 230.989l-.794-.391 3.134 2.445zM341.025 230.209l.796.389-.796-.389zM292.572 182.415l-2.842-2.162-1.605-.787zM316.429 203.241l-2.722-1.679c.539.334 3.965 3.055 2.722 1.679zM362.287 245.168l3.311 2.045-.289-.278-3.3-2.038zM337.828 216.255c-1.532-1.655 5.279 3.565 1.81.611-3.342-2.266-2.145-1.122-1.81-.611zM374.302 245.856c.429.302.89.606 1.354.87l-1.354-.87zM374.302 245.856c-1.382-.974-2.661-2.095-3.688-2.652 1.601 1.388 2.275 1.765 3.688 2.652zM386.702 257.541l1.403-.947c-1.026 1.007-.408.529.526-.357l.319-.236c-1.15-.765-1.306-.716-1.602-.813l-1.131-.574 1.396.776.869.611c-1.611 1.142-2.461 1.795-1.78 1.54zM322.724 292.924c4.731-3.119 5.979-3.894 5.937-3.418 4.463-3.002 3.419-3.035 5.986-5.022-4.934 3.561-6.047 4.14-11.923 8.44zM334.647 284.483l1.719-1.247c-.73.501-1.258.891-1.719 1.247zM373.99 240.619l3.2 1.571-1.101-.68zM315.746 297.616c.872-.586 2.239-1.569 2.986-1.943.038-.474-3.856 2.528-2.986 1.943zM337.729 290.884c.599-.147 3.484-2.345 4.74-3.124-1.758 1.18-3.555 1.623-4.74 3.124zM303.328 308.208c.873-.586 2.335-1.315 1.937-.666 1.144-1.026 2.462-2.741-1.937.666zM329.228 296.794l.732-.366 3.034-2.423zM343.637 293.237c3.313-2.867-6.26 3.124-.334-1.503-8.181 5.207.963.077-4.919 4.135 3.505-2.29 5.499-3.021 5.253-2.632zM338.384 295.869c-.51.331-1.056.7-1.642 1.11l1.642-1.11zM286.637 328.957a23.46 23.46 0 0 0 1.112-.965c-.386.317-.749.628-1.112.965zM319.938 309.306l4.965-4.299c-3.317 2.87-12.309 9.173-11.374 9.312 2.982-1.94 6.381-4.546 7.655-5.788l-1.246.775zM251.821 342.853l2.16-1.837-2.926 1.969c.881-.502-.336.942.766-.132zM250.489 343.366l.565-.381a5.253 5.253 0 0 0-.565.381zM296.559 321.58c1.752-1.178 3.122-2.165 4.63-3.369-.724.359-5.09 3.295-4.63 3.369zM236.115 355.079l3.744-2.776-4.128 2.969zM217.7 366.699l-.728.362-3.024 2.416.739-.37zM248.331 360.795c2.623-1.763 4.302-3.662 3.556-3.287l-4.992 3.549c1.567-.479 1.38-.991 4.357-2.931l-2.921 2.669zM127.036 407.137c.342 1.369.144 8.068-.181 8.42-.141-.9-.276-4.533-.483-2.251l.84 5.301c-.523 7.051-1.104-5.359-1.4-8.842-.108 7.184.444 9.313.44 16.953a37.79 37.79 0 0 1 .465-4.868c.295-.13.377 1.585.392 3.969v1.895l-.005.863-.007.201c-.009.271-.016.553-.004.795.257-.766.473-.396.705-.343.019.033.052.035.092.021a.33.33 0 0 0 .083-.002l-.001-.053c.066-.056.146-.143.256-.261-.086-.061-.005-.26.098-.343l.04-.03.02-.014.01-.006.01-.13.074-1.171c.044-.76.077-1.479.079-2.167-.961 2.717-.222-9.362-.518-12.819l-.095-3.991-.002-1.493c.105-.3.238.125.428 2.401-.189-1.9-.123-8.236-.432-7.651l-.014-14.46c.039-.45.088-.9.157-1.233-.061-.502-.11-.586-.159-.52l-.062-63.003c-.076 3.108-.295 5.797-.401 9.002-.638-4.81-.115 5.255-.719 3.844-.219-2.162-.15-5.326-.003-7.211-.305-.702-.575 1.983-.939 1.674-.383 7.946 1.075 9.162.854 16.93-.365-.308-.685-2.709-.635 2.376l-.079-1.292c.409 8.142-.826 6.344.176 11.469l-.527-.135c.397 3.693.4 10.879.473 14.929l-.102-.242c.604 11.36.128 6.377.381 19.134l-.615-5.871c-.254 4.4.415 5.393.346 8.552-.102-.227-.487.506-.583-2.478l.938 15.478c.395 3.692.384-.751.609-1.327zM126.252 426.719l-.028 1.319c-.004.625-.002.626.008.813.008-.203.013-.154.016-.778l.004-1.354zM127.856 317.88l.005 4.426c.032-1.372.042-2.8-.005-4.426zM127.992 430.629c-.093-.101.049-.318.179-.516.137-.202.271-.393.316-.548-.169.122-.338.244-.505.361l-.005-.218c-.203.344-.431.574-.616.877.006.168.012.337.012.516l.619-.472z"></path>
    <path d="M128.36 428.975c-.142.17-.268.261-.388.273l.005.46c.153-.247.291-.527.383-.733zM117.519 444.171l-.018-2.299-.157-3.378zM118.413 413.39c-.308 2.032-.074 5.888.004 7.178-.01-4.443.107-2.518-.004-7.178zM115.113 418.882l-.175-4.284-.06.4zM125.781 285.167l-.034-2.094c-.002.959.013 1.585.034 2.094zM126.284 321.922c.592-10.218.492 6.695 1.25 3.484l-.251-5.56.203.473-.066-6.781c-.348 1.392-.37 2.437-.735 2.134.143-9.053.434-2.854.895-9.495l-.066-10.118.109.819c-.008-.853-.054-1.229-.113-1.521l-.228-34.1c-.29-6.204-.657 3.432-1.195-1.145.002 7.19-.387 17.876.342 18.486-.101-.241-.302-.717-.388.74l.6 4.159.191-3.966c.598 4.182.465 17.687.094 20.128-.204-7.679-.924-3.825-.533-14.524-.185.481-.51 2.439-.611.031.211 12.535-.121 23.77.502 36.756zM125.933 196.183l.066.099c-.035-.226-.062-.3-.066-.099zM125.843 200.39l.714 6.11-.057-9.526-.501-.692c.127.842.381 4.182.185 5.476l-.341-1.368zM126.989 213.594c-.213-4.919-.803-4.652-1.072-1.969-.274-4.517.634-2.383.011-5.494-.426.102-.176 5.67-.098 6.949l1.159.514zM126.678 249.891l-.244-1.383-.065 3.408z"></path>
    <path d="m126.434 248.508.066-3.383c-.182.234-.359.465-.483 1.018l.417 2.365zM126.67 236.248c.044-1.432.077-3.017.093-4.945l-.093 4.945zM126.519 240.116l.077-.114.073-3.754a3592.37 3592.37 0 0 1-.15 3.868zM126.5 245.125c.413-.549.847-1.193.732-6.084l-.636.962-.096 5.122zM115.735 387.727l-.234-3.868-.064.409.235 3.867zM116.113 365.405a54.174 54.174 0 0 0-.227-2.341c.045 1.008.114 1.809.227 2.341zM113.29 348.81c.416-4.551.55 6.277.734-2.149.387-.743.886 3.207.693 7.176-.364-.315-.233-3.866-.605-1.427.421 2.635.134 3.637.683 2.719.342 4.434.732 4.927 1.09 7.936-.242-5.359.322-16.612-.383-23.413-.66-3.75-1.561-1.476-2.514-1.491-.223.563-.329 10.283.302 10.649zM112.339 355.97c-.047 2.106-.009 2.75.07 4.042.326-.348-.056-2.339-.07-4.042zM119.515 307.571c-.136-.402-.304-4.213-.538-3.394l.171 5.776c.023-1.355.189-1.833.367-2.382zM119.221 312.487l-.073-2.533c-.012.634.007 1.417.073 2.533z"></path>
    <path d="m119.599 307.296-.084.275c.029.081.058.065.084-.275zM126.907 222.23c.262.082.105-2.493.028-3.785-.022 1.05-.108 2.525-.028 3.785zM125.878 125.325l.208-2.274c-.124.804-.186 1.216-.208 2.274zM118.733 90.28c-.051-.066-.094-.234-.134-.46.033.226.077.383.134.46zM118.599 89.819c-.217-1.554.121-6.351-.21-8.076l.101.219-.197-3.21c.03 3.009-.011 9.325.306 11.067z"></path>
  </g>
  <g fill="#202020">
    <path d="M139.768 446.065c-2.03 1.498-4.008 2.513-3.313 1.852-3.984 3.269-4.321 2.981-4.445 3.961-2.491 2.192-5.653 3.814-2.755 1.411l-7.518 5.843 4.714-3.183c-.458.693-2.341 1.965-4.244 3.265l-1.408.972-.337.239-.166.118-.082.059-.286.187-.688.422c-.426.216-.85.404-1.251.566l-.981.299c-.606.169-1.131.233-1.508.35l.744-.05c.487-.024 1.115-.149 1.949-.408.229-.086.468-.183.71-.289l.367-.169.185-.091.09-.054.364-.22.188-.113.314-.206.092-.065 1.539-1.098 4.191-2.989-.305.461c1.792-1.527 5.566-4.076 6.913-4.921-.147.226.077.267-1.397 1.327 10.188-7.122 2.126-2.796 10.442-8.901-.52.382-1.18.836-2.118 1.425zM149.255 441.196l3.106-3.119 6.06-4.029c-.084-.263 4.126-3.487 1.06-1.61-.549.438-1.638 1.301-2.567 1.926.337-.931 7.745-5.803 5.667-5.041-4.616 3.437-5.41 3.843-8.039 6.259-4.342 2.995-7.557 5.101-9.689 6.35-1.23.972-1.209 1.384-2.795 2.586l1.091-.796.667.573c1.252-1.103 2.583-1.936 4.078-3.011l-6.387 5.72c2.705-.929 9.274-6.132 12.198-7.785-3.805 1.799 2.491-2.195-4.45 1.977zM142.056 444.516a25.86 25.86 0 0 0-.17.122l.17-.122zM144.529 75.3c-1.489-1.03-2.041-1.173-2.313-1.241l16.672 11.728c-.393-.551-5.032-4.16-1.748-2.009-1.288-1.21-5.766-4.107-6.573-4.305l1.405.572c-4.091-2.347-6.218-4.898-3.566-3.346l-.326-.225-11.604-6.115c3.847 2.832 3.341 1.645 8.053 4.941zM112.056 432.051c-.078-2.642-.159-2.966-.242-2.666.063.946.135 1.845.242 2.666zM133.762 68.932l-3.634-1.916c1.416.824 2.696 1.494 3.634 1.916zM161.457 78.635c.022-.018.073-.013.007-.105l-1.651-.833.038.027 1.606.911zM115.89 118.368l.037 1.337a32.897 32.897 0 0 0-.037-1.337zM208.334 107.977l-7.701-4.805c1.125.5-2.49-1.959-.768-1.088-.586-.367-3.289-2.154-2.638-1.544l1.521 1.052c-4.31-2.181-2.099-.294-8.882-4.422 3.782 3.172 5.764 4.104 8.077 5.345l1.995 1.287 6.724 3.541 1.672.634zM108.085 305.764l-.054-.099c.019.092.037.108.054.099zM107.806 305.269l.224.396c-.111-.487-.219-2.352-.224-.396zM135.247 69.424c-.176.035-.695-.136-1.485-.492l2.713 1.428-1.228-.936z"></path>
    <path d="m141.781 72.158 6.299 4.316 2.51 1.325c-2.468-1.571-5.316-3.462-8.809-5.641zM116.302 106.309c.107 15.814-.823-3.885-1.021 3.381.097 4.391.487 5.94.61 8.677-.334-12.543 1.287 1.701 1.08-10.95.707 1.799.771 9.123.579 13.415-.681 4.859-.499-4.245-1.167-5.346.111 5.076.235 4.182.615 6.336-.158 7.97.837 16.491-.107 21.25.15 5.77.476 5.39.835 8.708.729.661.383-8.581.957-10.719-.062.443-.185 1.307-.287 1.057l.153-4.988c-.254 4.735-.729-.657-.786-3.188-.015-1.841-.047-5.5.154-4.997l.157 2.787c.23-3.587-.532-7.915-.137-11.704.164-.198.241 1.235.342 1.453-.498-4.245-.469-8.339-.821-14.623l.723 3.643c-.8-5.026-.573-16.409-.15-24.296-.123.875-.208 2.452-.348 1.505-.173-4.633.323-8.133.704-5.987-.3-2.263-.173-6.574-.07-11.09l.066-3.397.016-3.065c-.015-.08-.092-.162-.287-.412.027.003-.318-.278-.345-.975-.003-.328.13-.741.425-.973.301-.247.638-.209 1.13-.161.244.031.519.084.818.157.097.034.102.003.278.093l.576.303 1.129.595 4.052 2.135 3.953 2.083a57.096 57.096 0 0 1-2.87-1.779c-1.742-2.004-2.922-2.741 1.116-.628-1.909-1.14-2.591-1.362-3.478-1.775a16.201 16.201 0 0 1-1.664-.904 39.844 39.844 0 0 1-1.284-.82l-1.284-.867c.16.063.313.115.455.153l.203.046.274.09c.335.097.511.069.453-.113-.029-.091-.117-.222-.272-.395-.159-.176-.24-.292-.446-.488-.378-.369-.985-.87-1.854-1.505-.557-.325-1.054-.699-1.625-.875a2.87 2.87 0 0 0-1.721.016c-1.106.349-1.903 1.365-2.081 2.459-.104.548-.021 1.105.054 1.624l.224 1.483.233 1.325c.02.062.04.296.06.5l.06.612.121 1.221c.646 6.501 1.327 12.872 1.789 20.323-.489.55-.352 12.251-.467 17.938-.525-2.17-.675-6.391-.781-10.771l-.07 10.991 1.029 1.432z"></path>
    <path d="M114.658 69.256c-.044.398-.068.812-.091 1.235.04-.226.071-.595.091-1.235zM115.357 92.553c-.019-.055-.033-.036-.053-.055l.038 1.39.015-1.335zM132.827 66.367l2.305 1.233-1.725-1.059c-.586-.332-.885-.462-.58-.174zM134.94 68.909l-.53-.127.837.642c.153-.026.108-.168-.307-.515zM111.879 166.741l.106 1.516c-.009-.913-.052-1.307-.106-1.516z"></path>
    <path d="M115.471 123.926c-.047-5.5-.73-.657-.733-8.438l-.044 2.284c-.313-5.583-.169-15.394-.194-22.027.291.749.354-4.022.805-3.247-.106-4.534-.207-9.024-.672-11.36.152-2.809-.258-7.076-.065-10.647-.273 1.508-.924-5.084-.59 3.607-.037-.701-.1-.261-.138-.955-.381 5.599.265 7.844.274 12.667-.269 2.883-.435-4.716-.543-1.995.251 6.022-.325 18.898.69 18.5.071 4.383-.152 4.988-.338 6.295 1.081 6.933-.464 25.729.918 25.667-.055-2.531-.025-6.655-.321-10.37l.951.019zM125.236 61.106l-.867-.627.867.627zM179.664 104.354l-2.4-.586c-10.83-7.367-14.554-10.301-23.936-16.867-.644-.605.537.131 1.136.504-6.641-4.551-16.378-11.644-21.408-14.68-2.09-1.481-7.421-5.589-5.188-4.34-1.065-.653-2.274-1.41-3.429-2.26-.124-.484 2.676 1.771 2.896 1.602-.916-.672-1.242-.979-1.515-1.046 1.724.873-.987-2.043 6.291 3.11 2.385 2.609-5.107-3.491-3.922-1.632 2.415 1.708 2.32 1.245 2.586 1.308 3.07 2.187 2.868 2.301 2.594 2.342 1.331.62 4.998 3.646 6.855 4.472 6.029 4.168-.688.284 3.231 3.033l2.744.897 6.414 4.715c9.591 6.393-.503-2.147 10.539 5.047-1.669-.635 2.221 3.015 7.13 6.69-3.016-2.087-8.876-5.54-12.602-8.473 5.074 4.387-7.556-5.226-5.162-2.609 2.904 1.606 7.428 4.734 10.822 7.363l-1.194-.746c3.677 2.701 7.01 3.964 11.961 7.867 2.573 1.779 1.956 1.638 1.392 1.482 2.237 1.422 4.266 2.649 4.165 2.807zm-5.673-3.781-3.373-2.479c.732.687 2.01 1.582 3.373 2.479zM197.035 407.395l-1.079.676c.251-.127.654-.391 1.079-.676zM310.569 184.201l1.966 1.419a61.488 61.488 0 0 0-1.966-1.419zM356.653 213.246l3.008 1.878a36.66 36.66 0 0 0-3.008-1.878zM220.696 390.797l.1-.063.431-.358-.531.421zM367.653 288.577c-.482.252-1.015.548-1.721.983.13.012.766-.363 1.721-.983zM356.098 212.901l.166.136.389.209-.555-.345zM292.404 168.378l-1.317-.825c.608.408.992.641 1.317.825zM293.813 172.31c-.469-.304-.92-.59-1.281-.799l1.281.799zM226.244 122.686l-2.738-1.779c1.319.913 2.129 1.425 2.738 1.779zM287.073 166.883c-.178-.078-.354-.156-.48-.198.384.238.588.321.48.198zM178.629 417.274l.16-.116.011-.129-.171.245zM172.854 422.853l-2.303 1.709a44.186 44.186 0 0 0 2.303-1.709zM328.117 314.764c-.776.397-2.519 1.445-1.825.786-1.25 1.097-.913 1.385 1.825-.786zM188.578 403.775c-.359.393-.837.837-1.318 1.281.916-.796 1.723-1.49 1.318-1.281zM187.26 405.056l-1.336 1.176c.476-.403.927-.8 1.336-1.176zM342.034 296.354c.208-.076.508-.229.886-.476-.174-.018-.483.17-.886.476zM168.579 425.785c-.304.462-10.242 8-1.611 2.046.032.747-5.332 4.112-7.527 5.85 1.745-1.049-.593.912.041.74 1.09-.86 2.333-1.958 4.232-3.241 1.027-.372-1.703 1.791-3.985 3.267 2.926-1.655-3.183 2.854.834.334 8.146-6.012 13.862-10.318 19.151-15.169-4.629 3.446-9.797 7.317-13.812 9.837l1.313-1.591c4.647-2.689 7.141-4.883 11.47-7.871l-9.826 6.569c-4.786 2.818-1.818.601 1.691-1.993-.88.612-1.693 1.144-1.971 1.222zM172.338 417.297l-.171.102c-.13.116-.298.25-.375.332l.546-.434zM220.396 132.032l-.949-.416c.747.413.998.511.949.416zM179.618 415.391l-.007.005a.518.518 0 0 1 .007-.005zM241.016 146.613c-.037-.009-.076-.016-.137-.039.084.038.093.025.137.039zM253.291 140.913c-.024-.047-.021-.075-.097-.159-.458-.285-.259-.114.097.159zM241.061 146.582c-.009.014-.005.037-.045.03.026-.002.072.008.045-.03zM342.6 215.683s-.263-.3-.71-.725c-.223-.095-.064.089.71.725zM323.247 201.062l-.327-.304.327.304zM334.216 313.466a74.872 74.872 0 0 0 2.32-1.671 51.378 51.378 0 0 0-2.32 1.671zM240.879 146.573c-.24-.099-.569-.258-1.097-.54.58.313.898.464 1.097.54zM374.397 234.725l-.644-.38.347.277.297.103z"></path>
    <path d="M384.507 242.339c-.388-.199-.587-.26-.817-.354 3.821 2.416 10.461 7.395 11.597 7.487-1.261-.871-7.558-5.724-6.257-5.221-2.655-1.695-6.226-4.707-7.665-5.604 4.041 3.234.175.721-2.789-1.129-2.496-1.965.756-.037-1.415-1.698l-6.038-4.175 5.183 3.745-1.908-.664.563.333c8.992 6.017.281 1.194 9.546 7.28zM383.69 241.985a24.7 24.7 0 0 0-1.495-.886c.838.58 1.195.762 1.495.886zM385.169 267.849l-1.515 1.176 1.515-1.176zM154.972 80.999c.061.243 5.019 4.15 5.173 3.735l-4.54-3.363-.633-.372zM288.183 339.228a77.752 77.752 0 0 0 1.731-1.207l.297-.29c-.388.196-1.477 1.06-2.028 1.497z"></path>
    <path d="M390.739 245.208c-.982-.612-1.442-.853-1.709-.957.631.403 1.228.755 1.709.957zM287.273 338.625c-.801.415-1.985 1.021-2.232.996-1.498 1.051-2.419 1.974-3.896 3.112 1.682-1.262 3.695-2.628 6.128-4.108zM281.026 342.827l.119-.094-.119.094z"></path>
    <path d="M152.011 78.691c-.46-.289-.934-.585-1.421-.892l.779.409-3.47-2.604a56.158 56.158 0 0 1-1.499-.972c.238.149.442.237.579.276l-1.107-.841c-3.078-1.627-10.288-6.311-12.464-7.526-2.79-1.734-6.133-3.958-8.171-5.436 1.902 1.351 4.486 3.063 3.867 2.327-1.863-1.469-3.159-2.685-4.871-4.058a51.363 51.363 0 0 0-1.377-1.066 39.59 39.59 0 0 0-1.428-1.024 47.652 47.652 0 0 0-1.701-1.113c-.625-.364-1.244-.831-2.02-1.097.024-.045.891.486 1.71 1.089l1.667 1.168-1.196-.662-1.174-.641c-.412-.239-.881-.437-1.38-.513-1.004-.177-2.029.182-2.646.63-.624.455-.912.897-.911.897-.566.382-.642.44-.566.128.095-.288.468-.875 1.137-1.315.654-.458 1.584-.686 2.371-.64.795.03 1.403.316 1.658.375-1.452-.845-3.337-.727-4.641.125-1.345.832-2.009 2.313-1.982 3.64-.151 2.697-.259 4.996.153 7.069-.488.547-1.303 1.466-1.254 6.969.557-3.968.358 3.298.954.044.279 1.901-.176 6.138.189 6.454l-.202-.514c-.773 9.396.438 12.471.837 16.491.199 11.25-.117 16.417-.035 25.592-.327.361-1.227 2.859-1.192 6.54.442 1.711.647 10.015 1.215 10.862.236-6.581-.476-5.384-.608-9.324.595-3.279.588-.297.943-4.776-.231 3.615.31 16.334-.248 20.293l-.078-1.398c-.339 6.32-1.741 7.527-.893 18.057l.348 5.024c-.057-.242-.123-.27-.174-.399-.059 8.223-.704 5.979-.195 15.058-.039-.702-.102-.261-.14-.974-.318 5.175.321 10.395.455 14.307-.473 2.388-.465-.567-.808-2.044-.183 9.104.628 18.928 1.205 24.582l-.277 5.869c-.195-3.48-.694-7.734-.979-6.672.095 3.228.318 2.603.228 7.167-.303-.778-.584-2.693-.965-4.839-.506 9.439 1.072 2.11.145 8.716-.006 2.966.436 4.688.801 5.013l-.478 5.373c.465.597.492 7.23.562 11.577.2.531.496-3.5.316-5.147.365.325.537 4.95.53 7.924-.975 1.089.141 19.473-1.008 15.958.317 13.359.416 32.129.823 40.946-.27 2.908-.283 8.835-.741 5.283-.004 10.754.997 16.301.73 26.976-.122.883-.009-4.825-.334-4.446.391 6.978-.413 12.694-.152 23.521-.018-1.821-.219-2.352-.32-2.605.162-.189.335 4.436.492 7.236-.084 1.573-.117-2.097-.241-1.214-.474 20.913.853 36.846.809 57.645.013-5.939-.633-8.185-.898-8.248l-.012 5.819c.323 2.242.322 6.611.563 10.265-.121.448-.252 2.226-.404.413-.327 5.747-.032 10.235.302 15.049.167 2.406.345 4.894.459 7.659l.04 1.051c.009.162.005.392.024.5l.039.354c.091.466.269.923.545 1.337.135.211.311.391.484.578a1.3 1.3 0 0 1 .21.182c.083.077.322.205.477.307l.132.082-.101-.057.006.002.011.005.023.01.046.021.183.084c.118.068.256.085.383.138.132.048.206.042.312.084.146.027.414.038.618.059l-.192.003-.231.004a1.248 1.248 0 0 1-.238-.006c-.172.017-.725-.076-1.171-.278-.446-.225-.524-.286-.79-.485a3.379 3.379 0 0 1-.699-.769 2.259 2.259 0 0 1-.278-.489c-.097-.169-.149-.356-.208-.547-.08-.188-.079-.391-.125-.592-.036-.211-.045-.517-.069-.771l-.651-8.528-.454 4.22-.593-7.5c-.357 4.479.469 8.375-.021 8.914-.138-.946-.094-3.227-.358-3.298-.096 2.149-.052 3.31.027 4.336l.133 1.546.063.899c.044.346.043.782.171 1.222-.2-.583-.243-1.269-.3-1.821l-.153-1.857a173.808 173.808 0 0 1-.249-4.128c-.143-2.903-.242-6.07-.317-9.252l-.331-17.28c-.078-1.414.24 1.211.342 1.461-.033-3.667.277-5.868.104-10.484-.421-2.867-.31 2.187-.354 4.462-.366-.313-.344-1.458-.399-3.992.488-.55.173-13.91.769-17.176-.154-13.539-1.264 2.165-1.052-11.052l.559-3.948c-.432-7.673-.814-17.597-.695-26.28l.018 1.83c.239 1.219.386-.795.508-1.687.239-6.562-.439-12.458.12-16.434-.594-7.483-1.033-19.96-1.34-28.517.736-2.309.625 11.162 1.085 14.722l-.003-7.788c.01 4.814.29 6.716.709 9.602.137-6.826-.508-9.071-.694-15.542.2.504.323-.36.329-3.346l-.489-.848c.04-.055.077-.385.108-1.307l-.299-11.514c-.209 2.443-.635 2.562-.641 5.535.285-1.062.342 1.461.334 4.438-.319-2.608-.27 2.902-.533 2.839.013-5.968-.053-13.3-.187-17.212l.45-1.271c.114-5.687-.137-11.692-.006-15.55l.239 1.216c.138-6.823-.152-13.541.287-19.6-.515-6.086-.943-13.748-1.481-18.722-.582-2.661.729-17.859-.089-24.72.063-.462.438 4.713.657 7.054.09-4.564-.633-8.193-.021-9.624-.206 10.243.488-.55.662 4.063-.011-4.795-.122-9.852-.34-12.205.005 7.762-.846-2.756-.579 5.101-.515-6.088-.72-14.397-.521-21.652.264.071.387-.823.496-3.527l-.383-2.182c.069-3.395.453 6.564.589-.27-.655-7.032.372-21.177-.839-24.255.478-5.359.484 10.199 1.07 2.122.438 4.699-.063 11.181.541 12.73-.172-4.605.511-1.681.517-4.652l-.373-5.137-.023 1.136c-.571-8.62-.297-22.277-.394-33.285-.609-9.324-1.489-15.743-1.423-26.927.357 3.302.344-9.288.999-2.248.315-5.175-.058-10.284-.322-10.386-.091 4.553-.085 1.601-.215 5.437-.32-2.589-.306-8.557-.097-11.008-.023 1.136.038.704.139.955.215-5.437-.318-2.605-.452-6.534.224-.623.254-2.792.257-5.253l.005-3.755.009-.897.007-.432c0-.128.028-.387.041-.568l.203-2.168-.046-3.898c.001-.988-.029-2.027.009-2.765l.194-.769c.054-.185.098-.29.098-.289-.271.94-.199 1.038-.031.643.171-.39.562-1.286 1.255-2.2a8.815 8.815 0 0 1 2.662-2.352c.958-.565 1.846-.745 2.139-.746a9.233 9.233 0 0 1 3.568-.565 9.68 9.68 0 0 1 1.735.243c.583.206 1.202.609 1.835.927 1.271.685 2.645 1.441 4.166 2.313l1.169.676.606.356.309.182c.115.066.203.121.255.161l1.64 1.173c-2.044-1.173 4.055 3.244 3.891 3.649 7.718 5.937 13.84 8.33 21.021 14.136-.291-.083-1.973-.925.167.713 1.802 1.125 4.81 3.305 6.692 4.574l-.065-.031.104.058c.922.622 1.523.981 1.606.912 3.416 1.896 5.299 2.702 11.752 6.816-.178-.723-5.563-4.285-7.938-5.767l-2.252-.998c-1.463-1.931-5.71-3.867-7.004-5.082 4.247 1.936 14.922 9.717 21.705 13.848-3.558-3.338-12.088-9.479-19.632-14.693l3.133 2.565-3.928-2.756 3.498 3.099c-3.663-2.692-6.951-4.846-10.292-7.236 3.937 2.762 5.081 4.392 2.918 2.737-4.105-3.478-4.746-2.961-8.077-5.345 1.839 1.35 4.258 3.065 2.535 2.192-6.266-5.132-8.27-6.076-13.914-10.819.138.595-1.749-.71-3.832-2.175-1.041-.732-2.131-1.505-3.041-2.1l-.345-.22-.523-.286c-.337-.175-.645-.335-.917-.478-.547-.272-.956-.444-1.176-.481l2.309 1.411c.168.099.239.155.322.217l.249.183.44.323.429.315-.968-.588c-.167-.098-.252-.162-.519-.306l-.844-.456-1.818-.983-4.83-2.626c-.272-.177-.525-.379-.748-.493l-.596-.219c-.351-.142-.653-.196-.864-.274-.427-.146-.58-.182-.527-.239.051-.055.291-.079.602-.065.318-.003.701.032 1.038.087.172.037.33.011.477.09.146.068.27.123.355.155.171.064.193.039-.053-.148l-.237-.172-.16-.11a12.542 12.542 0 0 1-.181-.06c-.267-.073-.59-.208-1.047-.285-.886-.198-2.25-.37-4.13.014a10.3 10.3 0 0 0-4.168 2.028 9.917 9.917 0 0 0-2.312 2.682c-.282.436-.451.879-.646 1.288l-.215.611-.102.295c-.017.112-.013.241-.02.358l-.074 2.673-.105 5.067c-.126 2.173.018 3.166.019 5.078a28.813 28.813 0 0 1-.343-2.408c-.024-.257-.058-.475-.072-.792l.032-1.323.106-2.92.159-3.229a910.53 910.53 0 0 1 .153-2.579l.266-.695c.745-1.864 2.211-3.678 4.136-4.858l-.206.113-.516.337c-.22.133-.46.307-.704.51a6.371 6.371 0 0 0-.749.65c-.989.925-1.692 2.036-1.692 2.036.305-.64.976-1.79 2.247-2.929.624-.573 1.411-1.113 2.295-1.586.899-.452 1.91-.796 2.963-1.016a11.356 11.356 0 0 1 4.726.113c.122.006.251.084.382.165l.387.226.767.448 5.417 3.179c-5.061-2.642-3.844-1.896-.966-.174l2.437 1.453c.204.125.474.278.63.383l.382.279.765.565c1.011.754 1.959 1.492 2.527 2.024.732-.055-2.868-2.502 1.549.152l-4.361-3.066-.478-.344-.127-.09-.227-.134-.464-.274-2.043-1.214-5.547-3.323c4.788 2.858 9.181 5.206 10.126 5.898 1.646.994 2.932 1.66 4.173 2.3 2.481 1.281 4.777 2.458 9.387 5.946-4.476-2.896 1.13 1.62 1.524 2.174 2.081 1.398 6.301 4.235 8.078 5.345l-1.159-1.641c5.671 3.64 6.761 6.153 13.512 10.061 1.058.252-5.508-4.048-4.32-3.307 8.934 5.777 11.439 8.87 18.864 14.722.553.142.708-.27 3.613 1.34-1.081-.267.797 1.309-2.41-.588 2.481 1.957 5.709 3.868 8.075 5.343-5.234-3.979 2.532 1.073 3.661 1.572 2.743 2.016-1.08-.268-2.859-1.378 2.17 1.663 4.481 4.019 6.099 4.418-.158.41-6.889-3.483-11.093-6.311l2.752 2.022c-2.048-1.177-2.373-1.48-5.105-3.487 2.522 2.181 2.045 2.29 1.238 2.093-.32-.301.256.057-.049-.232-2.168-1.661-3.947-2.771-3.56-2.222-2.335-.946 2.889 2.473 4.236 3.771l3.471 2.306 12.65 6.666c5.076 3.314 7.049 5.243 10.609 8.09l1.304.318c4.28 3.078 8.257 6.07 5.137 4.632-.061-.244-.652-.612-1.574-1.291-.162-.033-.405-.146-.7-.306-.106-.04-.172-.051-.263-.081l7.923 5.24c-8.247-4.938-.905.453-2.718.241l8.078 5.344c-4.638-3.605.158-.41 1.928.693.188.731 6.376 4.487 9.114 6.5l-.262-.062c2.473 1.95 7.005 5.085 10.287 7.235-.052-.237 4.521 2.005 6.773 3.002-5.393-4.025-2.017-1.886-2.282-2.445.553.423 1.573 1.149 1.728 1.182.868.441-.961-.904-1.023-1.146-5.977-3.932-12.028-8.117-14.806-9.238 1.616 1.518 3.229 1.914 5.118 3.498-3.162-1.665-6.845-4.371-11.693-7.803l-1.356-1.458-5.015-3.262c2.165 1.26 1.184.044 6.359 3.59-.432-.777-5.136-3.511-8.201-5.83l-1.919-.686c.793.188-5.894-4.595-.88-1.569l8.025 5.109-1.945-1.825 6.627 4.542-1.712-.861c10.768 7.125 2.486 3.078 13.477 10.034 3.704 1.803 7.318 4.263 13.734 8.98-4.794-3.198-.751.04-2.743-.897 4.646 3.61 6.58 4.308 9.221 5.854 1.022 1.146 1.729 1.993-2.533-1.072-.958.217 5.718 3.875 5.677 4.764 14.229 9.998 12.788 6.043 28.866 18.52l-.797-.191c10.77 7.127 16.649 11.712 26.559 18.403l7.25 6.051c-1.788-1.116-6.746-3.905-4.801-2.08-3.294-3.274-7.423-5.85-11.214-9.033-.528-.125 1.029 1.152 1.672 1.758-2.43-1.72-3.449-2.866-6.741-5.021.063.241 3.458 2.87.761 1.085l-4.096-3.473c-5.981-3.935-3.543-1.092-10.287-6.113 1.524.55 4.49 1.883 7.21 3.673-3.087-2.288 4.334 2.738 1.616.51-4.888-2.669-6.782-4.618-13.025-8.531.757.425 1.016.456 2.518 1.466l-8.572-6.367c1.945 1.824-7.442-4.746-6.948-3.724 9.169 6.739 6.628 4.542 17.045 12.264-3.072-2.012-7.263-4.279-9.373-5.135-.08-.083-.223-.205-.543-.443-1.934-.695-.367.587-.947 1.345 5.229 2.854 8.141 5.589 14.071 9.291 1.374.329-2.927-2.877-5.841-4.765l5.226 3.259-1.128-.501 12.658 9.133c-2.434-1.681-3.429-2.012-4.821-2.714 1.634 1.177 3.186 2.438 4.832 3.784-.077-.664.354-.79 1.955.35 8.141 5.881 12.446 9.462 15.148 12.062l.976.645c-1.082-1.387 6.358 3.357 9.202 4.724-.43.342 4.049 3.239 6.259 5.127 1.608.392.41-1.475-2.186-3.91-5.87-3.458-3.433-1.735-6.507-2.94l-9.206-5.845 2.269 1.007c-4.321-3.306-8.957-5.792-8.27-6.076 2.59 1.312 6.32 4.252 8.893 5.55l-2.808-2.259c5.543 3.149 2.316 2.359 8.844 6.432-2.002-2.064.591.37 3.487 1.972-1.944-1.826-11.145-7.666-8.734-7.079 3.494 1.977 10.374 8.611 15.214 10.917l-.271-.065c6.307 4.587 8.846 5.741 11.419 7.156 2.544 2.151 6.526 4.452 9.485 6.496l-.225.165 4.211 2.832c-2.252-.998-4.853-3.435-8.456-5.888l.161.713c-3.771-3.37-7.021-4.576-10.449-6.474 4.88 2.918 13.021 9.321 14.661 9.304l2.583 2.425 1.475.821c1.922 1.81-.595.749-4.802-2.079-.648-.608-.973-.912-.695-.842-2.05-1.176-4.034-2.108-8.623-5.479l2.633 1.537c-5.773-4.111-11.149-7.667-13.411-8.67 8.246 6.061 16.446 11.891 24.313 17.407 2.955.726 6.063 2.153 7.837 2.143 5.379 3.557 12.614 8.482 16.975 12.015l-.538-.13a78.86 78.86 0 0 0 6.046 4.178l.19.165.268.251.371.369c.181.19.233.276.2.291-.067.03-.479-.224-.919-.504a1.341 1.341 0 0 0-.265-.147l-.202-.089a2.105 2.105 0 0 0-.303-.116c-.134-.032-.1.046.291.366l.087.057.113.077.227.175 1.408 1.091 4.314 3.352c1.288 1.311 2.04 3.029 2.43 4.368.361 1.351.386 2.298.385 2.298-.131-.225-.245-1.187-.668-2.503-.236-.648-.518-1.397-.95-2.137-.191-.384-.466-.738-.719-1.115l-.425-.542c-.127-.189-.387-.329-.577-.498l-5.069-4.024-.309-.247-.152-.122-.096-.066-.376-.261-.723-.5-1.275-.884c.592.369 1.785 1.115 1.452.804-3.397-2.629-10.391-6.584-11.536-8.217-1.776-1.109 3.76 2.04-2.007-2.066-3.729-2.938-5.34-3.332-5.861-3.452-.215.172 5.873 4.581 3.558 3.339 3.035 2.098 4.433 2.666 8.143 5.592-3.008-2.08-7.376-4.502-8.731-5.959-6.194-3.762-6.061-2.15-3.313-.131-.439-.785 11.058 7.206 3.599 1.331 3.77 2.044 10.133 6.522 14.866 9.476l-.264-.064.895.607.917.622.255.173c.093.064.152.097.31.224l.822.646 4.432 3.48c-1.37-.932-4.075-2.951-4.324-2.816l1.925 1.397c1.119.879 2.944 1.868 3.781 3.427.485.755.843 1.6 1.112 2.413.245.821.381 1.62.435 2.309.05.689.021 1.269-.021 1.669-.026.403-.07.63-.069.63.242-2.07-.064-2.785-.071-2.628-.05.149.006 1.169-.282 2.517-.284 1.336-.951 2.984-1.975 4.195-.132.149-.23.311-.386.447l-.496.385-.936.721-1.513 1.13c-.242.319-.708.811-1.205 1.321l-.742.758-.34.351-.153.161-.082.094c-.207.24-.3.393-.148.367.075-.013.212-.069.426-.182.328-.226.787-.559 1.396-1.015 2.764-2.054 3.521-2.739 4.141-3.357.149-.159.323-.303.463-.488.114-.196.244-.413.414-.678.306-.556.78-1.306 1.244-2.651 0 0-.458 1.985-1.692 3.559l-3.205 2.999-.645.444-2.99 2.949c-5.808 4.048 1.83-2.772-5.292 2.869l1.375-.099c-8.646 5.963-20.131 13.077-26.008 17.619 1.44-1.509 1.804-2.561-.719-1.255 2.686-1.743 7.927-5.467 11.64-8.165.795-.406-4.202 3.99-8.366 6.736 2.646-.439 9.847-7.798 11.005-7.171 10.621-6.979 7.091-6.387 16.305-12.031-.046-.129.079-.316.294-.537l.178-.171.268-.243.717-.634c.988-.863 2.041-1.767 2.202-2.182-.574.324-1.27.777-2.063 1.334l-1.263.909c-.256.197-.349.234-.527.357l-.492.323c-1.341.893-2.898 2.017-4.544 3.223-3.29 2.413-6.929 5.156-9.875 7.048.538-.425 1.62-1.284 1.782-1.521-4.177 2.755-5.799 4.041-8.543 6.213l.396-.202c-4.694 3.937-3.314 1.854-6.386 3.734-1.093.865-5.265 3.618-4.386 3.472l-5.606 3.339.595.301c-2.98 2.142-3.861 2.286-6.374 4.495l.178.52 7.557-5.101c-3.677 2.802-.763 1.154-4.849 4.168 4.304-3.737-3.447 2.071-4.185 1.994l-2.882 2.393.7-.665c-2.552 1.467-2.739 2.17-5.574 4.083 3.466-2.083 5.838-3.302 9.824-6.567-2.889 2.396-8.766 6.938-10.244 8.002-3.084 2.443-5.558 3.695-8.597 5.764 5.645-4.235-2.939.118 8.834-7.715-.155.233-1.104.874-1.502 1.078 1.928-.535 6.902-4.915 9.26-6.891-.868.138 1.696-1.787-2.869 1.168 1.601-.824-3.245 3.343-7.653 6.061l.267-1.202-6.21 4.256.554-.438c-2.622 1.193-6.506 4.71-10.924 7.438-2.889 2.397-14.76 10.474-9.211 7.625-4.102 2.256-7.059 5.147-11.145 8.162l5.368-3.368c-5.773 4.794-4.233 3.24-8.584 7.46-.625.163-1.823.779-.967-.116-8.24 5.753-20.109 13.829-24.538 17.779-5.812 4.051-7.283 3.894-15.188 9.932-1.645 1.302 1.779-.306-3.737 3.29-.397.204 4.825-4.152-1.128.123-3.899 3.527-10.225 6.773-15.457 11.137-3.063 1.877-8.098 5.53-7.33 4.371 4.708-3.177 11.217-7.892 12.079-8.795-.466.701 3.471-2.085.186.518 7.237-4.633 4.375-3.465 10.819-7.688.318-.471-3.558 1.824-4.803 2.923-.426-.543 12.221-9.019 6.149-5.752-6.761 4.691-7.931 7.273-14.178 10.788 2.095-1.989 5.955-4.274 8.506-6.958l-4.95 3.148-3.19 2.857.148-.229c-8.824 5.445-7.417 6.095-14.789 11.711 4.661-2.698-.326 1.692 3.142-.394-5.012 3.64-8.783 6.184-9.213 5.644 9.146-7.133.117-.975 8.477-7.706-1.58.811 1.503-2.293-3.758 1.32-5.596 4.545 2.089-.77-3.643 3.548-.382.193-.777.396-.631.17-2.49 2.192-3.221 2.111-6.256 4.734l.694-.658c-4.265 2.493-4.128 3.488-7.854 5.557 1.68-.559-2.084 1.981-4.048 3.756 3.622-2.315 5.946-3.055 12.85-7.969.604-.92-.032-.747 2.7-2.912l-4.474 3.213c.933-.738 1.613-1.346 2.457-2.039l4.446-2.876c-5.317 4.1-2.553 2.682-4.641 4.668-5.12 3.391-4.077 3.008-7.308 5.124-.025-.709-10.26 5.987-16.258 9.746l2.694-1.869c3.981-3.264-3.173 1.63-3.422 1.605l-2.888 2.398c.552-.439 1.268-1.114-.084-.264-4.077 3.008-3.497 3.319-7.567 6.323-.499-.049 2.71-2.917.041-1.246-1.051.392-4.31 1.76-9.636 5.866-.317.376-1.7 1.437-3.32 2.644.219-.176.5-.39.59-.481l-3.854 2.279c2.787-2.646 6.438-4.214 9.239-6.873l-.04-.62c2.43-1.715 5.6-4.229 6.959-5.523-3.758 2.538-4.458 3.202-8.54 6.213-.773.135 2.002-2.126 2.402-2.451l-.444.683c5.196-3.124 7.098-5.623 13.308-9.878.941-.637.397-.206.248.022 4.686-3.93 9.979-6.798 14.431-10.764l-1.418 1.341 15.463-12.427-.067-.205c-.787.402 1.635-1.295 2.981-2.141l-.005.007 8.494-6.79a35.55 35.55 0 0 0-3.195 1.929c-.871.909-6.904 4.918-5.775 4.796-2.926 1.655-7.058 5.149-9.187 6.394 3.863-2.289-2.249 2.221-2.715 2.92-1.431.583-5.407 3.843-5.197 3.123-.792.409 1.976-1.013 3.371-2.338 3.582-3.057-7.238 4.631-2.702.928-5.883 4.547-13.968 10.068-19.983 14.834l3.616-2.314c-2.824 1.906-9.354 6.634-9.976 6.797 2.038-1.503 4.459-3.201 7.052-5.144-.176-.521-6.359 4.484-6.841 4.426l-7.185 6.13 3.384-2.348c-1.936 1.756-9.199 6.399-14.459 10.016 2.578-2.699 7.861-5.562 13.184-9.667 3.83-3.033-2.864 1.166.811-1.635-1.075.553-3.527 2.304-4.637 3.308l-1.564.942c2.989-2.909 10.621-8.107 15.32-12.108-.4.368-.742.699-.838.86 4.015-2.519 7.938-5.295 11.61-8.095-2.114 1.236-2.823 1.908-3.919 2.773-.235-.032 3.285-2.599 4.528-3.694-3.619 2.315-.877.145-3.16 1.62 2.195-1.738 4.072-3.005 6.896-4.91 1.587-.814-.997 1.12-.516 1.178 2.755-2.18 4.514-2.469 8.495-5.731-5.661 3.821 1.063-1.614 2.861-3.148l-.949.641c1.55-1.559 3.044-2.63 4.468-3.207-2.195 1.738-4.468 3.207-3.595 3.066 1.5-1.077 2.995-2.15 4.637-3.45l-1.393 1.323 7.454-5.351c.991-1.116 2.696-2.908 3.445-4.053 1.978-1.015 4.334-2.99 5.973-4.291l-.711.676c3.477-2.092 10.697-7.479 11.144-8.163 2.519-1.444-15.6 13.346.947 1.345 6.35-4.478 3.4-3.576 6.833-6.404 0 0-.147.226.249.023 2.82-1.901 2.888-2.397 5.083-4.135-1.751 1.055-4.17 2.751-4.868 3.413.604-.919 5.81-4.05 7.756-5.81-2.406 2.456 5.51-3.592 3.548-1.819 5.759-3.568 11.386-8.135 14.025-10.556 4.201-2.005 6.519-4.72 12.815-8.714-.949.64-2.58 1.932-3.938 2.785-3.185 2.851 6.458-4.232 1.378-.099 1.098-.868-.071-.272-1.197.617-2.018 1.489-3.821 3.027-3.177 2.849l5.214-3.138-1.663 1.317 7.88-4.81c.146-.226-.631.171-1.028.376 8.887-5.936 18.678-13.248 26.376-18.572.632-2.155 18.491-13.762 24.179-18.819-1.426 1.496-1.925 2.713-.731 2.228-1.346 1.02-3.843 3.47-7.036 5.577-.629.168-4.637 2.681-2.3.72-8.549 6.219 1.522-.322-.729 1.899 9.496-6.856 14.641-11.482 20.494-16.01l.248.027 4.384-3.471c-3.782 2.551-4.055 1.773.912-1.386l-.563.444c2.933-1.66 8.411-5.999 12.724-8.974l2.64-2.421c4.318-2.979 4.994-2.412 6.683-2.977a121.573 121.573 0 0 0 8.219-6.219l3.281-2.749 1.612-1.357.408-.341c.152-.125.142-.135.22-.207l.341-.339c.303-.104.844-.378 1.453-.746.604-.378 1.042-1.105 1.119-1.749.104-.646-.069-1.139-.032-1.287-.008-.136.33-.012.64.867-.258-1.027-1.038-1.505-1.684-1.7-.664-.204-1.209-.288-1.713-.398l-.372-.09-.184-.053c-.061-.019-.259-.136-.387-.206a27.455 27.455 0 0 1-1.955-1.212c-1.464-.986-3.29-2.374-5.731-4.431l2.906 1.608c-9.986-6.945-24.578-16.353-28.941-19.889 4.41 1.531-11.664-9.823-12.704-12.101.326.583-3.465-1.971-4.098-2.228-.733-.698-2.014-1.776-3.61-2.582 3.731 2.939-3.481-.849 4.226 3.958-4.25-1.935-9.474-4.787-17.667-10.613l.428-.344 6.41 4.712c-.434-.78 2.896 1.602 4.372 2.421-11.925-8.764 2.294.107-10.111-8.549-1.391-.562-.536-.132-3.828-2.286 1.521 1.051 2.003.945-.429-.776l-2.581-1.304c-3.813-3.761 7.477 4.568 4.148 1.468 5.014 3.026 13.411 8.672 12.258 7.036-7.657-5.693-7.741-3.912-15.718-9.907l-.703-.846c-2.979-1.861-3.71-1.808-5.441-2.685-.048-.233-.706-.846-2.521-2.183-5.232-2.858-8.522-5.014-13.415-7.557 12.208 7.923 9.867 7.582 22.422 15.824-2.049-1.176-10.779-7.132-11.729-6.911l.419-.351c-4.148-2.587-8.292-5.174-13.203-8.847l3.229 1.913c-6.853-4.379-10.579-8.434-16.325-11.409 1.824 1.343 3.336 2.389 4.524 3.128-3.554-2.217-7.813-5.282-11.477-7.973l-8.189-4.704c.219-.167-4.644-3.612-2.053-2.297-5.304-4.228-8.365-5.424-11.639-7.57-5.345-4.452 5.054 3.255 6.029 3.051-7.668-5.702-16.072-11.353-20.751-14.069 1.531 1.209 2.252 1.829 2.098 1.876-.141-.302-3.312-2.484-5.063-3.724l-1.403-.569c-2.788-2.248-2.26-2.123.374-.583-2.755-2.022-6.463-3.829-9.055-6.26 5.006 3.022 10.875 7.598 13.508 9.139-10.16-6.745-9.427-7.919-22.311-16.465-.061-.243 2.262 1.003-.169-.715-5.711-3.87-1.88-.461-3.86-1.391 4.463 2.885 6.362 4.479 8.632 6.607l-1.318-.589c-.092-.242-2.814-2.168-3.536-2.849l-1.028-.031c.685-.285-3.4-3.748-6.963-5.971 3.202 2.813 2.28 2.134 2.811 3.381-5.209-2.842-5.055-4.375-10.871-7.595.521.121 5.324 3.32 1.337.323-3.357-2.399-3.189-1.683-5.542-3.149 2.849 1.368 2.418.59 5.537 2.029 6.032 4.169 2.414 1.709 8.404 5.651l-4.705-3.855c5.127 3.509 4.038 2.113 4.571 2.244-8.366-6.545-6.993-3.956-12.494-8-2.896-1.602 5.183 3.745.759 1.086-5.174-3.739-1.386-.559-7.374-4.5l1.119.495c-1.612-1.516-3.602-2.45-5.704-3.866-2.37-1.476 1.533 3.303-7.854-3.269.543.204.765.247.8.198l11.667 2.849a1716.95 1716.95 0 0 1-31.186-22.469c-2.094-2.525 8.252 4.949 7.803 4.159l4.912 3.676c-.49.099-10.567-7.309-6.411-3.593 9.003 6.024 12.779 9.196 21.609 14.5-2.113-2.542-11.149-7.668-16.229-12.061 2.262 1.662 4.253 2.949 6.204 4.173l-16.249-11.89-1.431-.754c3.878 2.851 6.557 4.828 6.89 5.101-5.172-3.736-9.846-6.447-10.555-6.176l.914.671-1.998-1.167a893.494 893.494 0 0 1-3.605-2.679zm-40.783 340.252c-.061-.388-.131-.693-.219-.919.092.235.152-.027.219.919zM255.37 148.935c-6.891-4.995-13.84-10.031-20.46-14.831 11.348 9.517 19.287 16.262-.833 2.056l-1.37-.855c2.544 1.978 7.071 5.192 11.392 8.126a744.23 744.23 0 0 0 9.28 5.054l4.546 2.411c1.186.616 1.933.986 1.923.936-1.023-1.146-3.025-2.092-5.188-3.747l.71.85zm3.745 5.187c3.863 2.891 3.124 2.034 3.879 2.262l-4.197-2.842c.488.421.696.675.318.58zm3.786 1.893c-.439-.317-.811-.593-.989-.759l.989.759zm-76.5-54.286.414.273-2.805-2.047c.354.298 1.056.83 2.391 1.774zm7.651 6.135 1.197.288-2.63-1.917c.181.378.391.745 1.433 1.629zm24.86 19.343c1.936.697 7.381 4.503 8.077 4.224.439.112-.667-.744-1.919-1.689l-4.546-3.268c-.109.036-.48-.121-1.065-.433 1.554 1.191 2.532 2.072 1.662 1.931-3.626-3.585-4.029-2.105-8.349-5.413-1.672-.634 4.691 3.844 6.14 4.648zm25.774 241.431c-.157.044-.673.233-1.383.52l2.951-2.46c5.664-3.823 10.658-6.235 15.237-10.413 2.465-1.497 3.962-2.047 5.361-2.617a133.207 133.207 0 0 1-3.19 2.112c-13.437 10.86-8.04 4.195-18.976 12.858zm64.845-44.334c-.554.438-.701.668-.701.668 11.813-9.735 21.894-17.248 28.646-21.951-1.568.545-7.807 4.507-10.781 6.37l2.239-2.215 1.821-.782 4.136-3.493c-1.436.581-4.953 3.149-7.488 4.605-.149.228-7.419 6.094-9.363 7.857l6.296-3.995c-1.729 1.039-9.735 6.828-12.861 9.193.088.259 5.84-3.301 6.207-4.255.88-.146-5.48 4.341-1.217 1.846-4.529 3.698-12.314 8.761-15.945 11.083l-.972-.112c-4.008 2.514-2.156 2.48-6.961 5.405 5.567-4.079-1.366.087 3.093-3.114-1.574.809-.426-.543-4.894 2.665-3.246 3.342-5.051 2.896-8.149 6.012-2.52 1.445 2.244-2.217-2.474.966-5.073 4.129-4.578 4.178-4.547 4.925 5.09-3.371 5.134-4.617 9.302-7.366l-7.495 6.597c1.584-.93 2.699-1.696 3.604-2.386-1.595 1.2-2.889 2.306-3.947 3.32l-1.689 1.581c4.603-3.235 8.695-6.101 9.572-6.391l-.459.696c1.789-.919 4.317-2.968 5.412-4.013 4.099-2.929 7.968-6.174 9.095-6.485l-1.402 1.329c5.011-3.64 5.554-4.068 11.922-8.56zm22.793-121.398c2.424 3.075 5.238 6.265 19.668 16.193l-1.171-.731c6.812 5.657 14.602 9.155 22.932 15.976-4.502-2.658-4.251-2.527-9.508-5.053l4.752 2.961c-1.617-.395 3.123 2.56 6.46 4.946l-3.376-1.494c-1.894-1.588-7.067-5.326-7.01-5.083 1.188.739-6.363-5.6-10.848-8.502.168.717 9.494 7.046 4.92 4.802 3.818 2.28 3.987 2.996 7.876 5.526-3.828-2.286-1.285-.088-4.196-1.702l6.311 4.242c.068.248-9.259-6.081-4.515-2 2.638 1.544 9.101 6.492 9.523 6.145l.06.24c4.592 3.375 2.479.833 8.025 5.109.22-.169-.765-1.088-2.846-2.486-1.799-1.124-2.273-1.015-5.883-3.468-1.361-1.464 4.272 3.073 2.198.758-1.03-1.15-9.59-6.39-6.529-5.192l4.584 3.368c.423-.348 3.772 2.049 3.924 1.634 2.954 1.844 5.295 4.221 8.463 5.891 1.402.571-.337-1.432 4.308 2.179.826.821 2.143 1.916 3.718 3.141l2.075 1.598c.659.54 1.456.962 2.002 1.666.554.691.842 1.58.847 2.444-.014.865-.293 1.701-.777 2.328-.464.651-1.125 1.026-1.649 1.432l-1.411 1.045-.411.354-1.135.94-1.716 1.415c.123.013.617-.289 1.254-.717l2.052-1.426c1.175-.826 2.111-1.47 1.282-.629l-5.353 3.927.319-.474c-1.899 1.283-3.69 2.813-5.333 4.111 1.542-1.552 5.706-4.299 4.579-4.178-2.716 1.781-3.238 1.9-5.62 3.707.511-.407.938-.774.826-.79-5.51 3.591-4.834 4.159-6.078 5.254-4.99 4.392 5.827-3.293 5.463-2.344l-15.598 11.36c1.244-1.095 2.498-2.196 1.859-2.022-4.015 2.519-.333-.287-5.75 3.562.82.343-6.569 5.202-10.155 8.261-1.971 1.012-2.375 1.221 1.54-1.549-.731-.082-5.886 3.779-7.782 5.062-1.015.863-2.822 2.224-3.932 3.139 1.71-.908 1.216-.186-2.063 2.379l-.139.224c5.647-3.816 14.613-9.481 17.818-12.351l-.848.894c6.691-4.199 13.526-10.604 17.031-11.945-.064.492 1.344-.844 1.535-.334l4.51-3.682-.85.891 8.008-5.788-.156.231 8.676-7.594c-.212-.134-.465.032.584-.994 1.027-1.099 1.405-2.272 1.535-3.288-.001-.008-.001-.008-.004-.008h.004c.136-1.176-.023-2.194-.483-3.141-.457-.979-1.366-1.663-2.567-2.601l1.219.859c.742.488 1.629 1.333 2.07 2.453.484 1.094.483 2.338.29 3.2a5.24 5.24 0 0 1-.344 1.017c-.093.243-.181.365-.181.365-.006.379.205.454.715-.147.229-.311.545-.801.729-1.565a5.573 5.573 0 0 0-.097-3.015c.368.98.452 1.739.549 1.893.064.164.247-.295-.068-1.591-.055-.131-.725-1.829-1.857-2.698-1.138-.863-2.112-1.358-1.215-.542l-6.454-4.737-7.141-5.312c-5.049-3.736-10.604-7.736-16.233-11.249 8.039 5.118-5.935-4.822 2.796 1.134-5.67-4.759-5.543-3.153-11.633-7.563-.395-.553 3.329 2.382 4.997 3.015-10.075-7.405-17.825-11.324-27.603-18.445l-.143-.696c-1.904-1.272-4.022-2.68-6.225-4.145zm-19.908-13.283-5.891-3.945.562.413-5.943-3.708c3.403 2.631 5.409 4.699.349 1.439.53.127-.765-1.088 1.013.021-3.127-2.561-10.192-7.885-8.731-5.956 6.732 3.892.936 1.806 6.208 4.89-2.946-1.489-5.467-3.529-8.111-5.13 2.855 1.521-.088-1.175-3.92-4.109-1.784-1.112-6.363-4.478-9.327-6.328.757 1.084-1.875-.455 2.707 2.912a75.662 75.662 0 0 1-7.287-5.158c1.216.762 3.297 2.161 3.249 1.927-1.668-1.682-3.912-3.241-5.043-4.254l-2.981-2.012c.266.235.486.453.627.63l-3.495-1.976c4.472 2.891 1.891 1.586 1.683 1.763.421-.349-2.761-2.029-4.26-3.063l2.914 2.733c-1.725-.873-5.288-4.218-4.789-3.191 6.734 5.016 9.428 6.797 15.729 11.033l-2.271-2.128c7.178 4.683 3.892 3.649 11.759 9.167 3.493 1.978 11.83 8.302 12.448 7.769-1.124-.497 4.486 4.022 7.385 5.626 3.393 1.505 12.447 7.765 9.911 5.575-2.426-1.72-5.928-3.701-7.61-5.463l4.803 3.2-2.867-2.502c1.514 1.242 1.581.817 1.179-.175zM209.403 111.61l-.176-.137.201.145-.025-.008z"></path>
    <path d="M175.818 419.17c-1.252 1.103-4.623 3.441-3.743 3.295-.326-.291 5.954-4.275 3.743-3.295zM171.568 421.654c-.177.25.081.268-1.416 1.34l4.081-3.008-2.665 1.668zM165.687 422.235c-1.954 1.766-3.204 2.866-6.574 5.205-1.858.038 5.323-4.105 6.285-5.97-6.203 4.251-7.567 6.323-12.572 9.957 2.755-1.41 13.132-8.416 12.861-9.192zM167.661 419.238l-3.283 2.601.372-.189 3.286-2.601zM246.899 374.454c.496.049 2.441-1.713 3.538-2.582-.941.637-2.29 1.483-3.538 2.582zM104.497 324.922l.313 31.898-.313-31.898zM332.204 311.752c-6.825 5.184-9.613 7.833-16.665 12.976 9.758-6.074 11.802-9.565 20.064-14.566l-3.399 1.59zM331.228 315.61c-1.514.317 4.989-4.393 3.714-4.043-4.633 3.446-1.861 2.024-6.174 4.999l2.46-.956zM293.675 329.697l1.94-1.756-1.643 1.299zM362.824 292.682l-.694.659 3.622-2.316zM361.438 294.001l.692-.66-.692.66zM295.647 326.702l-3.231 2.116-1.399 1.33zM325.388 309.762l-2.71 2.149c.538-.425 4.545-2.941 2.71-2.149zM384.414 277.789l3.299-2.612-.386.198-3.288 2.603zM346.511 292.816c-2.221.989 5.559-4.072 1.307-1.585-3.528 2.574-1.938 1.754-1.307 1.585zM389.786 266.225a19.17 19.17 0 0 0 1.382-1.058c-.544.418-1.001.767-1.382 1.058zM389.786 266.225c-1.495 1.054-3.095 1.961-4.042 2.795 1.988-1.139 2.621-1.684 4.042-2.795zM398.731 252.209l.182.151c.107.093.262.205.384.351.273.265.48.584.48.584-.608-.575-.848-.644-.718-.546.111.114.568.442 1.012 1.031.379.715.504 1.095.606 1.289.104.196.188.217.271.311.104.329.207.664.253 1.036a4.451 4.451 0 0 0-.299-1.375c-.267-1.281-.979-2.137-1.487-2.545-.533-.401-.802-.499-.684-.287zM339.918 201.075c4.908 3.672 6.154 4.654 5.672 4.761 4.688 3.445 4.313 2.412 7.264 4.313-5.42-3.733-6.423-4.645-12.936-9.074zM352.854 210.149l1.895 1.299a43.94 43.94 0 0 0-1.895-1.299zM384.532 264.911l2.791-2.65-1.097.869zM332.591 195.688c.915.673 2.414 1.709 3.072 2.327.479-.111-3.986-2.998-3.072-2.327zM347.785 215.15c.379.541 3.661 2.69 4.916 3.679-1.843-1.357-2.981-2.981-4.916-3.679zM317.355 186.795c.915.673 2.201 1.88 1.409 1.692 1.452.804 3.649 1.564-1.409-1.692zM338.669 208.647l.644.606 3.562 2.223zM347.789 221.669c4.105 2.36-5.51-5.167 1.342-.792-8.302-6.407.302.967-5.976-3.542 3.616 2.727 5.111 4.455 4.634 4.334zM343.156 217.335c-.524-.397-1.1-.818-1.73-1.265l1.73 1.265zM290.49 176.854c.587.357.998.586 1.381.792-.463-.281-.909-.54-1.381-.792zM322.772 203.413l6.155 3.536c-4.11-2.363-13.805-9.226-13.574-8.267 3.068 2.323 6.95 4.848 8.667 5.712l-1.248-.981zM263.254 147.03l2.646 1.548-3.073-2.259c.835.71-1.054-.037.427.711z"></path>
    <path d="m262.232 145.884.595.436a6.45 6.45 0 0 0-.595-.436zM301.6 184.297c1.84 1.353 3.344 2.391 5.113 3.495-.636-.598-5.221-3.969-5.113-3.495zM245.13 135.419l4.185 2.811-4.524-3.128zM226.541 120.966l-.64-.601-3.551-2.216.651.609zM244.306 149.161c2.753 2.025 5.271 3.083 4.612 2.468l-5.431-3.795c1.082 1.388 1.511 1.046 4.576 3.364l-3.757-2.037zM103.965 94.636c-.342-1.48-.144-8.727.181-9.107.141.974.276 4.903.483 2.435l-.84-5.734c.523-7.626 1.104 5.797 1.4 9.563.108-7.77-.444-10.072-.44-18.337a44.141 44.141 0 0 1-.465 5.266c-.591.281-.329-7.42-.376-12.925-.257 3.505-.473 1.478-.705-1.076l-.032-.613.012-.712.062-1.552-.108 1.18c-.058-.087-.16.164-.351 1.025.147 4.736-.329 8.184-.342 11.184.961-2.938.222 10.127.518 13.867l.095 4.316.002 1.615c-.105.325-.238-.135-.428-2.597.189 2.055.123 8.909.432 8.276l.014 15.641c-.039.487-.088.974-.157 1.334.061.542.11.633.159.562l.062 68.146c.076-3.362.295-6.271.401-9.737.638 5.203.115-5.684.719-4.157.219 2.338.15 5.761.003 7.8.305.759.575-2.146.939-1.811.383-8.595-1.075-9.91-.854-18.312.365.333.685 2.93.635-2.57l.079 1.397c-.409-8.807.826-6.861-.176-12.405l.527.146c-.397-3.995-.4-11.768-.473-16.147l.102.262c-.604-12.288-.128-6.897-.381-20.695l.615 6.35c.254-4.76-.415-5.833-.346-9.25.102.245.487-.547.583 2.68l-.938-16.741c-.397-3.995-.387.811-.611 1.433z"></path>
    <path d="M104.749 73.457c.028-.886.04-1.893.02-3.082l-.02 3.082zM103.144 191.18l-.005-4.787a96.877 96.877 0 0 0 .005 4.787zM114.65 46.176c-1.126.012-1.5.076-1.397-.012.101-.059.677-.233 1.421-.313.747-.111 1.648-.088 2.397-.045l.964.098c.27.056.487.209.583.221l-.182-.104c-.117-.056-.298-.208-.503-.211a14.86 14.86 0 0 0-1.766-.233c-1.493-.115-3.618.136-5.565.97-1.958.819-3.625 2.206-4.589 3.404-.514.579-.84 1.124-1.081 1.49l-.338.595c.153.077-.266 1.604.02 1.443l.214-.483c.121-.31.368-.741.65-1.261a11.455 11.455 0 0 1 3.022-3.297c1.33-1.018 2.919-1.649 4.122-1.944 1.21-.306 2.028-.318 2.028-.318zM103.337 56.885c.067.705-.004 2.744-.092 4.96l.47-5.088.323-3.499c.116-.41.297-.675.384-.896.093-.211.172-.328.172-.328-.08-.029-.263.146-.608.724l-.142.236c-.024.109-.039.237-.06.369l-.128.916c-.084.699-.19 1.557-.319 2.606zM113.481 60.938l.018 1.179.157 1.774zM112.588 87.873c.308-2.198.074-6.369-.004-7.764.01 4.807-.108 2.724.004 7.764zM115.888 81.933l.174 4.633.061-.431zM105.219 226.564l.034 2.264a51.554 51.554 0 0 0-.034-2.264z"></path>
    <path d="M104.717 186.808c-.592 11.052-.492-7.241-1.25-3.769l.251 6.014-.203-.512.066 7.335c.348-1.505.37-2.636.735-2.308-.143 9.792-.434 3.087-.895 10.27l.066 10.945-.109-.886c.008.922.054 1.329.113 1.646l.228 36.883c.29 6.71.657-3.711 1.195 1.238-.002-7.778.387-19.336-.342-19.996.101.261.302.776.388-.801l-.6-4.499-.191 4.29c-.598-4.523-.465-19.129-.094-21.771.204 8.306.924 4.138.533 15.71.185-.52.51-2.639.611-.033-.211-13.558.121-25.71-.502-39.756zM105.068 322.811l-.066-.106c.035.244.061.324.066.106z"></path>
    <path d="m105.158 318.261-.714-6.609.057 10.304.501.749c-.127-.911-.381-4.523-.185-5.924l.341 1.48zM104.011 303.979c.213 5.321.803 5.032 1.072 2.13.274 4.886-.634 2.577-.011 5.942.426-.11.176-6.133.098-7.517l-1.159-.555zM104.322 264.719l.245 1.497.065-3.687zM104.567 266.216l-.066 3.659c.182-.253.359-.504.483-1.101l-.417-2.558zM104.331 279.476a254.242 254.242 0 0 0-.093 5.349l.093-5.349zM104.481 275.292l-.077.124-.073 4.061.15-4.185z"></path>
    <path d="M104.501 269.875c-.413.594-.847 1.29-.732 6.581l.636-1.04.096-5.541zM115.265 115.631l.234 4.184.064-.443-.234-4.182zM114.888 139.776c.073 1.035.149 1.819.227 2.531-.045-1.089-.114-1.956-.227-2.531zM117.711 157.725c-.416 4.922-.55-6.79-.734 2.325-.387.804-.886-3.469-.693-7.761.364.341.233 4.182.605 1.543-.421-2.85-.134-3.934-.683-2.941-.342-4.795-.732-5.329-1.09-8.584.242 5.797-.322 17.968.383 25.325.66 4.056 1.561 1.596 2.514 1.612.223-.61.329-11.123-.302-11.519zM118.662 149.98c.047-2.278.009-2.974-.07-4.372-.327.377.055 2.531.07 4.372zM111.485 202.331c.136.435.304 4.556.538 3.67l-.171-6.248c-.023 1.466-.188 1.984-.367 2.578z"></path>
    <path d="m111.779 197.013.073 2.74a38.31 38.31 0 0 0-.073-2.74zM111.401 202.628l.084-.297c-.028-.088-.058-.071-.084.297zM104.094 294.638c-.262-.088-.105 2.696-.028 4.094.022-1.136.108-2.731.028-4.094zM105.123 399.454l-.208 2.459c.124-.869.185-1.315.208-2.459zM112.267 437.36c.051.072.094.254.134.498-.033-.244-.076-.415-.134-.498zM112.401 437.858c.217 1.682-.121 6.87.21 8.735l-.101-.236.197 3.472c-.03-3.255.011-10.086-.306-11.971z"></path>
  </g>
</svg>
