<svg xmlns="http://www.w3.org/2000/svg" xml:space="preserve" width="512" height="512" id="right-arrow">
  <g fill="#202020">
    <path d="M440.434 223.763c2.27 2.19 3.994 4.355 3.057 3.615 4.809 4.276 4.603 4.676 5.707 4.749 3.168 2.663 5.928 6.123 2.402 3.016l8.721 8.09-4.946-5.106c.899.47 2.875 2.51 4.888 4.569 1.006 1.03 2.021 2.064 2.916 2.909l.646.595.632.55c.532.501.772.704 1.088.942l-.416-.491c-.119-.135-.32-.372-.566-.622l-.62-.615-3.142-3.113-4.57-4.529.597.313c-2.225-1.918-6.184-6.007-7.527-7.47.292.151.266-.105 1.883 1.487-10.951-11.019-3.708-2.209-12.966-11.183.579.561 1.28 1.275 2.216 2.294zM432.153 213.382l-4.37-3.294-6.29-6.568c-.259.113-5.091-4.42-2.084-1.086.649.591 1.93 1.761 2.902 2.768-1.118-.316-8.749-8.349-7.266-6.054 5.19 4.978 5.882 5.847 9.337 8.65 4.624 4.699 7.926 8.186 9.955 10.508 1.444 1.322 1.886 1.271 3.692 2.98l-1.209-1.179.413-.792c-1.593-1.339-2.919-2.786-4.558-4.4l8.229 6.821c-1.861-2.992-9.587-10.054-12.307-13.243 3.158 4.172-3.168-2.666 3.556 4.889z"></path>
    <path d="m438.03 221.286.187.183a11.447 11.447 0 0 1-.187-.183zM184.137 263.586c2.263-.015 2.93-.217 3.256-.318l-25.477.017c.798.224 8.136.501 3.232.636 2.187.248 8.848.035 9.813-.268l-1.846.342c5.87-.438 9.879.423 6.052.682l.495-.005 16.258-1.685c-5.968-.1-4.596.579-11.783.599zM444.866 278.078c-2.278 2.39-2.508 2.733-2.184 2.526a63.174 63.174 0 0 0 2.184-2.526zM199.721 262.59l5.092-.526c-2.038.141-3.83.33-5.092.526zM164.441 270.609c-.01.028-.065.053.069.091l2.287-.27h-.059l-2.297.179zM315.321 260.609l1.671-.037-1.671.037zM95.425 273.623l11.327-.507c-1.509.239 3.955.168 1.568.448.863-.039 4.91-.134 3.806-.258l-2.311.016c5.973-.699 2.355-.968 12.259-1.5-6.148-.416-8.844-.035-12.101.283l-2.964.096-9.418.979-2.166.443zM345.232 348.209l.049-.126c-.067.094-.069.121-.049.126zM345.473 347.574l-.192.509c.351-.509 1.923-2.234.192-.509zM197.851 263.043c.155-.129.808-.288 1.871-.453l-3.8.396 1.929.057z"></path>
    <path d="m189.206 264.571-9.542.1-3.518.362c3.652-.137 7.923-.231 13.06-.462zM300.248 260.199c19.766-.107-4.854.822 4.227 1.021 5.488-.098 7.424-.488 10.846-.611-15.677.334 2.125-1.287-13.687-1.08 2.249-.707 11.403-.77 16.767-.578 6.073.681-5.306.498-6.681 1.166 6.344-.111 5.227-.234 7.919-.615 9.962.158 20.611-.836 26.56.107 7.211-.15 6.736-.476 10.884-.834.825-.73-10.726-.383-13.397-.957.554.061 1.634.184 1.32.287l-6.233-.154c5.917.254-.822.729-3.985.786-2.301.015-6.874.048-6.245-.153l3.483-.158c-4.483-.229-9.893.533-14.628.138-.247-.163 1.544-.241 1.815-.343-5.306.498-10.422.469-18.275.822l4.553-.724c-6.282.8-20.508.573-30.366.15 1.093.122 3.063.208 1.881.349-5.791.172-10.165-.324-7.482-.705-5.657.6-21.553-.504-29.263.275l-35.445 3.675a86.717 86.717 0 0 1 4.212-.198c3.222.635 4.958.557-.688 1.156 5.543-.336 3.425-.846 11.753-.873-3.267.32-4.092 1.049 3.886 1.123 19.944-.634 33.162-2.438 51.789-3.361.688.49 15.313.353 22.42.467-2.713.525-7.988.676-13.462.781 3.435.018 9.349.049 13.736.07l1.786-1.029z"></path>
    <path d="M253.938 261.842c.499.045 1.014.068 1.544.092-.283-.042-.743-.073-1.544-.092zM283.056 261.142c-.069.02-.045.033-.069.054.574-.013 1.148-.024 1.737-.038l-1.668-.016zM202.524 264.148l-3.243.318 2.524-.127c.839-.066 1.238-.132.719-.191zM198.535 263.287l.633-.201c-.509-.017-.867-.027-1.317-.043-.138.109.01.199.684.244zM375.778 264.621l1.895-.105c-1.142.007-1.634.05-1.895.105z"></path>
    <path d="M322.266 261.029c-6.874.047-.821.73-10.546.733l2.854.044c-6.977.313-19.238.17-27.529.195.936-.291-5.027-.354-4.058-.806-5.666.106-11.278.206-14.197.673-3.511-.152-8.845.258-13.308.064 1.884.273-6.354.924 4.508.59-.877.037-.326.1-1.193.139 6.998.381 9.804-.266 15.832-.274 3.604.269-5.895.435-2.493.543 7.526-.251 23.619.325 23.121-.69 5.478-.07 6.234.152 7.867.338 8.665-1.08 32.158.465 32.079-.918-3.164.055-8.318.025-12.96.322l.023-.953zM214.067 264.076zM127.325 260.072l2.875-.902c16.368-.217 22.286.037 36.597.002 1.094.123-.643.201-1.523.242 10.062-.105 25.116.084 32.44-.33 3.201.006 11.605.293 8.425.559 1.558-.079 3.339-.156 5.13-.127.474.324-4.01.092-4.113.357 1.42.022 1.974.086 2.3-.018-2.39.279 2.479 1.102-8.665 1.082-4.315-.76 7.73-.088 5.182-.926-3.697-.006-3.267.318-3.583.421-4.711-.019-4.587-.229-4.336-.421-1.805.26-7.73-.102-10.223.293-9.161.064.499-.629-5.485-.619l-3.449.848-9.948-.16c-14.401.299 2.06 1.465-14.401 1.945 2.163-.443-4.439-1.186-12.101-1.363 4.583-.031 13.056-.584 18.974-.332-8.342-.664 11.481-.08 7.152-.84-4.123.359-10.997.408-16.357.215l1.757-.078c-5.701-.09-10.017.797-17.884.457-3.91.027-3.177-.211-2.49-.41-3.306.127-6.264.293-6.274.105zm8.518-.177 5.23.084c-1.242-.139-3.191-.135-5.23-.084zM380.352 161.733l1.075 1.172c-.218-.274-.631-.712-1.075-1.172zM146.483 241.801l3.029.028a97.566 97.566 0 0 0-3.029-.028zM214.474 239.001l4.425-.198a57.897 57.897 0 0 0-4.425.198zM349.397 139.033l-.203.029c-.336.082-.59.151-.938.256 0 0 .281-.086.568-.155.284-.075.573-.13.573-.13zM350.842 240.985c.674.071 1.431.136 2.466.187-.124-.085-1.045-.145-2.466-.187zM213.659 239.038l.268.016.547-.053-.815.037zM116.533 239.329l-1.939.084a30.872 30.872 0 0 0 1.939-.084zM120.803 241.732c-.698.021-1.365.048-1.884.084l1.884-.084zM66.537 271.916l4.078-.123c-2.004.013-3.201.061-4.078.123zM110.01 241.177c-.237.039-.474.077-.632.115.563-.026.831-.076.632-.115zM396.891 181.846l-.178-.173-.143-.003.321.176zM404.776 187.986l2.583 2.484a69.665 69.665 0 0 0-2.583-2.484zM410.086 242.348l.99.096.615.102c.367.069.594.141.25.211.611-.088.826-.24.61-.345-.107-.052-.319-.093-.648-.108a7.497 7.497 0 0 0-.587-.002l-1.23.046zM379.082 171.538c.54.379 1.174.888 1.808 1.401-1.154-.98-2.162-1.844-1.808-1.401zM380.89 172.939l1.699 1.428a63.08 63.08 0 0 0-1.699-1.428zM382.615 249.382c-.269-.058-.685-.105-1.249-.121.165.115.617.14 1.249.121zM409.31 192.613c.598.312 11.924 11.02 2.731 1.679.802-.087 6.15 5.74 8.73 8.1-1.689-1.899 1.179.606.792-.097-1.278-1.172-2.863-2.5-4.856-4.558-.729-1.135 2.483 1.801 4.807 4.277-2.722-3.192 4.104 3.399.1-.965-9.102-8.789-15.585-14.95-22.524-20.59 5.206 4.992 11.042 10.564 15.045 14.925l-2.142-1.374c-4.389-5.065-7.559-7.73-12.172-12.416l10.238 10.648c4.572 5.212 1.226 2.013-2.7-1.773.943.954 1.778 1.835 1.951 2.144zM398.899 188.951l.164.187c.167.139.365.32.479.401l-.643-.588zM65.784 260.906l1.269-.205c-1.059.092-1.385.156-1.269.205zM394.532 180.859l.007.007a.8.8 0 0 1-.007-.007zM53.302 252.844c-.004.026-.006.053-.019.092.025-.052.012-.063.019-.092zM56.672 239.412c-.097-.023-.126-.046-.354-.064-1.117.106-.57.07.354.064zM53.272 252.802c.013.011.032.014.031.042-.006-.021-.001-.052-.031-.042zM201.872 249.087s-.485-.094-1.248-.184c-.296.051 0 .11 1.248.184zM171.574 248.282l-.554-.06.554.06zM402.92 239.898c-1.499-.008-2.624.006-3.573.029 1.094.014 2.276.012 3.573-.029zM53.283 252.935c-.046.159-.144.359-.257.693.127-.367.226-.559.257-.693zM248.066 246.339l-.932.06.554.027.378-.087z"></path>
    <path d="M263.877 246.74c-.54.062-.788.126-1.091.182 5.644-.226 16.011.02 17.238-.559-1.916.014-11.843-.326-10.151-.665-3.934.145-9.748-.261-11.866-.166 6.458.316.698.488-3.662.684-3.965-.169.746-.466-2.668-.573l-9.174.064 7.992.076-2.428.557.815-.053c13.52-.26 1.148.814 14.995.453z"></path>
    <path d="M262.786 246.921c-.846.035-1.588.078-2.166.137 1.276-.009 1.771-.066 2.166-.137zM318.025 247.839l2.393-.088-2.393.088zM169.365 264.941c-.237-.164-8.115-.502-7.974-.073l7.059.134.915-.061zM403.784 219.843l1.857 1.873.409.315c-.334-.424-1.617-1.597-2.266-2.188zM272.308 245.496c-1.444.065-2.087.133-2.435.201.936-.034 1.799-.089 2.435-.201zM404.154 218.773c-.704-.876-1.736-2.173-1.787-2.454-1.614-1.62-2.908-2.596-4.61-4.186 1.9 1.814 4.02 3.994 6.397 6.64zM397.616 212.005l.14.128a8.49 8.49 0 0 1-.14-.128z"></path>
    <path d="M174.052 265.123c.678-.028 1.376-.059 2.094-.09l-1.09.115 5.419.129 2.232-.068a3.816 3.816 0 0 0-.791.107l1.736.051c4.315-.443 15.054-.768 18.152-1.027 4.099-.189 9.116-.297 12.262-.264-2.916-.008-6.788.08-5.625.326 5.921.254 8.799.989 19.019.357l-5.994.01 13.476-.95c4.721.394-6.726.474-8.596.817 10.481-.469 19.198.783 24.056-.041.685.488 1.833 1.303 8.71 1.255-4.958-.558 4.123-.358.056-.954 2.376-.279 7.671.176 8.066-.189l-.643.203c11.742.772 15.587-.439 20.61-.838 14.061-.199 20.519.117 31.986.035.45.327 3.572 1.227 8.174 1.193 2.139-.443 12.516-.648 13.575-1.215-8.226-.236-6.729.475-11.653.607-4.099-.594-.371-.588-5.97-.943 4.519.232 20.415-.309 25.363.248l-1.747.078c7.898.34 9.408 1.742 22.567.893l6.279-.348c-.303.057-.337.123-.499.174 10.278.06 7.473.705 18.82.195-.877.039-.327.102-1.218.141 6.468.318 12.991-.322 17.881-.455 1.633.236 1.438.353.56.452-.831.101-2.18.184-3.114.354 7.871.126 16.829-.216 25.416-.629a13287.99 13287.99 0 0 1-5.518 6.333l-6.576 6.184c1.708-1.847 3.45-3.833 4.496-5.14 1.055-1.316 1.427-1.966.672-1.413-2.841 2.975-1.965 2.415-6.459 6.78.435-.862 1.896-2.723 3.14-4.503-2.204 2.024-3.268 3.094-3.838 3.752-.563.651-.6.858-.57.981.027.125.12.166-.223.522-.341.354-1.128 1.034-2.74 2.318-2.625 2.617-3.835 4.451-3.863 4.996l-5.087 4.411c-.198.856-6.042 6.737-9.834 10.629-.328.61 3.443-2.742 4.772-4.325-.028.545-3.994 4.754-6.628 7.377-1.652.273-17.109 17.31-14.815 13.39l-19.331 19.866-9.173 9.44c-1.389 1.447-2.694 2.809-3.892 4.056l-1.7 1.795c-.268.284-.527.562-.779.83a9.698 9.698 0 0 0-.591.71 7.794 7.794 0 0 0-1.508 2.304c-.403.912-.606 1.897-.689 2.672-.076.775-.066 1.341-.118 1.462-.042.12-.226-.19-.329-1.228a8.922 8.922 0 0 0 3.519 7.293 8.886 8.886 0 0 0 6.675 1.707 8.94 8.94 0 0 0 5.178-2.678l.697-.728a217.67 217.67 0 0 1 6.366-6.369c.866-.694-4.259 4.271-3.693 4.165 5.89-6.442 11.511-10.927 20.894-20.678-1.597 1.621-1.924 2.232-2.075 2.528-.282.054 3.682-4.156 6.046-6.742 1.45-1.331-1.771 1.936-.901 1.242 18.816-18.146 31.955-33.161 50.366-51.51-5.258 5.24-6.783 7.679-6.65 7.921l5.15-5.135c1.752-2.208 5.614-6.068 8.671-9.467.482-.312 2.146-1.79.652-.08 4.36-3.98 7.673-7.507 10.945-11.13l5.005-5.576 1.33-1.465.341-.373.186-.201.094-.101.046-.051c-.024.026.064-.068-.054.059l.004-.006.008-.01.016-.021.481-.678.229-.352.243-.44c.15-.262.229-.477.384-.829.114-.259.189-.544.282-.819l.031-.105.008-.026.001-.007-.012.045.004-.02.017-.071.063-.271.101-.463.078-.615c.021-.284.038-.657.038-.993a6.772 6.772 0 0 0-.056-.955l-.084-.547-.019-.11-.005-.025-.002-.013-.001-.003v-.001l.019.084v-.001l-.003-.011-.02-.08-.073-.3a6.918 6.918 0 0 0-.305-.983c-.153-.391-.297-.71-.503-1.1a7.261 7.261 0 0 0-.671-1.044c.343.388.523.609.745 1.003.239.357.428.661.594 1.076.152.323.279.59.385.936l.093.287.023.073.012.038.006.02.004.01.001.005a1.133 1.133 0 0 0-.016-.071h.001v.002l.029.106.124.545c.083.341.114.658.142 1.018.025.359.032.755-.084 1.076.02.225.04.449.008.664-.225 1.845-1.059 3.623-2.436 5.104l-4.208 4.797 4.053-3.411-6.206 7.045c4.211-3.706 7.071-7.735 7.889-7.859-.729.925-2.782 2.916-2.655 3.163a70.488 70.488 0 0 0 2.323-2.25l.426-.44.05-.053.013-.013c.197.193-.268-.266-.22-.219l.001-.002.002-.004.005-.008.017-.032.068-.125.067-.122.033-.061.017-.03.004-.008.002-.004c.665.525.186.145.334.262l.002-.002.011-.015c.246-.319.461-.622.662-.918.727-1.155 1.273-2.308 1.699-4.406l.003-.017-.002.017c-.056.382-.1.685-.182 1.086-.101.378-.193.749-.341 1.161-.13.331-.272.746-.479 1.126l-.281.54c-.112.19-.235.378-.362.566l-.396.563-.207.284-.053.07c-.181-.143.396.331-.407-.317l-.005.009-.01.018-.019.034-.076.139-.075.139-.02.035-.009.017c-.264-.255.354.358.287.298l-.007.007-.053.059-.212.235-.432.476-1.795 1.958a586.605 586.605 0 0 1-7.949 8.397l-15.03 15.497c-1.194 1.305.899-1.239 1.048-1.531-3.218 3.265-5.384 4.991-9.341 9.193-2.235 2.83 2.153-1.716 4.195-3.695-.017.534-1.044 1.53-3.245 3.81-.833.143-12.417 12.173-15.727 14.64-11.857 12.074 2.811-1.023-9.021 10.51l-3.886 3.096c-6.477 7.086-14.977 16.128-22.735 23.719l1.604-1.63c.909-1.246-.976.43-1.85 1.131-5.97 5.631-10.701 11.321-14.61 14.44l-2.52 2.824-.685.758a12.32 12.32 0 0 1-3.023 2.464c-3.158 1.863-7.532 2.272-11.306.58-3.789-1.621-6.676-5.284-7.427-9.312-.826-4.016.438-8.153 2.725-10.889.789-.585.354-.035-.494 1.329-.84 1.358-1.925 3.75-2.012 6.565-.143 2.798.823 5.884 2.49 8.031 1.631 2.182 3.745 3.392 5.025 3.844 0 0-.691-.294-1.628-.913-.933-.618-2.079-1.597-2.975-2.795-.911-1.187-1.565-2.555-1.897-3.623-.347-1.067-.44-1.812-.44-1.812a11.52 11.52 0 0 0 1.716 4.435 10.905 10.905 0 0 0 2.454 2.669c1.724 1.314 3.475 1.979 5.551 2.22a12.304 12.304 0 0 1-5.575-2.896 12.336 12.336 0 0 1-3.008-4.098 11.823 11.823 0 0 1-1.061-4.977c.025-1.835.454-3.94 1.776-6.055-.115.387.007.291.51-.32.257-.301.61-.734 1.134-1.25l1.678-1.649.403-1.095c.077-.021.395-.286 1.231-1.078l9.965-10.387c-2.308 2.011-2.713 1.814-5.346 4.438 1.141-.736-1.049 1.533-3.686 4.158 2.079-2.53-2.756 2.375-2.887 2.133 5.283-5.265 11.717-11.791 15.08-15.344l1.441-.805c5.106-4.945 10.236-10.431 13.738-13.747l-.905 1.244c6.127-5.933 11.859-12.075 17.524-17.118 5.015-5.743 11.483-12.817 15.498-17.594.466-.662 1.644-1.884 3.242-3.45l2.675-2.58.741-.707.366-.348.193-.175.809-.731a121.77 121.77 0 0 0 3.467-3.239c1.107-1.087 2.068-2.108 2.479-2.739l-.772.092c-.04-.02.285-.066.862-.129-.281.487-1.217 1.748-1.784 2.532 1.273-1.208 1.981-2.156 2.542-2.846-1.274.085-2.046.102-1.976-.194 1.125.034 1.873.043 2.36.034-.915.95-.001.263.846-.35-.16-.12-.246-.241.761-.315-.051.067-.138.17-.254.299l.325-.328c-3.767.019-7.738.129-9.545.338 2.938-.002 2.137.209 1.49.389-.636.178-1.223.324 1.518.191-1.191.128-2.355.237-3.485.326l-1.674.117-.822.046-.656.021-.875.018c-4.681.091-9.544.092-14.077-.008.089-.264-1.028-.387-4.409-.496l-2.727.383c-4.243-.068 8.205-.453-.337-.589-8.789.655-26.467-.372-30.314.839-6.698-.478 12.747-.484 2.651-1.07 5.873-.438 13.974.064 15.91-.541-5.756.173-2.101-.511-5.814-.517l-6.42.373 1.42.022c-10.773.571-27.843.297-41.601.395-11.653.609-19.676 1.488-33.653 1.422 4.126-.356-11.608-.344-2.81-.998-6.468-.315-12.854.059-12.98.322 5.691.09 2.001.084 6.795.215-3.236.32-10.694.305-13.758.096 1.42.023.88-.037 1.193-.139-6.795-.215-3.257.318-8.167.453-1.558-.449-10.842-.121-15.326-.352l-6.502.639c3.573-.42-6.231-.154-7.255-.541-4.663.297-8.573.816-15.673.703 2.933-.219-6.479-.316-6.602-.742-12.159-.408-20.136 1.162-31.652.553.357-.1 2.682-.381-.684-.487-2.651.119-7.293.069-10.13.115l.089-.013-.148.013c-1.389.022-2.262.075-2.297.179-4.855.418-7.358.844-16.915 1.197.702.488 8.769.299 12.262.143l3.019-.482c2.885.736 8.617-.127 10.814.121-5.732.863-22.241.65-32.144 1.182 6.038.68 19.174.785 30.634.703l-5.048-.293 5.997-.009-5.804-.519c5.681.09 10.591-.043 15.725-.014-6.011.01-8.353-.662-4.952-.557 6.698.479 6.98-.313 12.101-.283-2.851-.044-6.558-.053-4.167-.332 10.096.586 12.822.205 22.003.83-1.138-.813 11.471-.08 12.847-.747l-4.26-.067 9.037-.492c8.338.662-7.383.676 5.306 1.145 11.708.082 11.406-.773 20.611-.836-3.033.481-10.333.895-17.76.881l4.498.232c-2.379.279-12.654.221-17.781.192 8.473-.554-3.965-.17-7.82-.603-.708.467 4.732.393-1.691.768 6.018-.01 6.897-.049 14.552.127-16.547-.211-14.879 1.619-29.321 1.227 6.657-.211-2.321-.672-3.122-.898-3.133.057-9.487.167-12.101.283l2.366.674c-8.414.291-11.337-1.135-21.047-.441-1.262.404 8.542.137 6.794.215-13.287.424-18.073-.662-29.871-1.168-.667.201-.529.629-4.656.984 1.296-.404-1.757-.611 2.885-.906-3.944-.172-8.617.125-12.097.283 8.211.236-3.36.58-4.873.822-4.253-.068 1.296-.402 3.913-.52-3.415-.109-7.472-.705-9.412-.1-.134-.426 9.546-1.119 15.876-1.23l-4.267-.068c2.94-.217 3.49-.156 7.727-.09-4.147-.33-3.738-.693-2.771-.997.543.062-.303.101.216.161 3.411.109 6.028-.008 5.237-.234 3.067-.571-4.731-.357-7.042-.643l-5.206.115-17.722 1.836c-7.572.215-10.976-.225-16.664-.502l-1.561.49c-6.588-.051-12.806-.205-8.583-.828.237.164 1.107.125 2.538.148.189-.066.52-.113.936-.152l.327-.086-11.867.281c11.98-.713.598-.893 2.603-1.764l-12.101.285c7.334.275.134.426-2.469.543-.18-.122-.878-.184-1.892-.207l-1.928-.026c-.915-.037-1.91-.16-2.921-.404a14.58 14.58 0 0 1-5.725-2.823c-1.645-1.327-2.847-2.949-3.552-4.322l.309.348a15.14 15.14 0 0 1-1.598-4.652 14.85 14.85 0 0 1 .17-5.792 14.568 14.568 0 0 1 2.565-5.498 14.813 14.813 0 0 1 4.228-3.796c-.186.036 1.563-1.432 4.388-2.25a14.91 14.91 0 0 1 2.23-.465l.575-.067.385-.055.765-.11 2.724-.407-2.562-.07-1.648-.065c-1.158-.014-1.465 0-1.38-.072.163-.153 1.92-.344 1.369-.47l1.695.013c.523-.003.959-.017 1.051-.048 1.204-.139-1.633-.186-1.871-.348-.387.009-1.56.026-2.449.149-.939.115-1.869.318-2.772.59a16.69 16.69 0 0 0-4.982 2.465c-2.976 2.136-5.055 5.164-6.053 8.24a15.916 15.916 0 0 0-.417 8.518c.555 2.439 1.609 4.26 2.512 5.403-1.01-1.948-1.699-3.688-2.135-5.583-.412-1.887-.573-3.945.063-6.356a17.707 17.707 0 0 0-.001 5.658 16.565 16.565 0 0 0 2.228 6.023 16.077 16.077 0 0 0 5.081 5.153 15.667 15.667 0 0 0 7.803 2.424l.588.077.836.142 1.217.205 7.472-.222c-3.119.217-1.241.645-9.081.727 1 .387 7.774-.088 12.575.043l2.455-.545c-.945.303 9.329.361 2.029.775l-11.877.445 3.301.373-5.021.052-3.451.036c-.335.007-1.194.006-1.654-.03-.487-.031-.765-.062-.765-.062s.264.013.659.014c.197.002.427.004.672-.009l.377-.016c.128-.006.275-.013.326-.022l1.185-.141-.736.017-.354.007-.467.001a16.877 16.877 0 0 1-2.242-.158 16.655 16.655 0 0 1-3.676-.933c-2.092-.799-3.479-1.758-4.468-2.555-1.952-1.649-2.465-2.606-3.021-3.475-.504-.908-1.087-1.779-2.03-4.095a18.363 18.363 0 0 1-1.171-4.874c-.196-2.118-.137-4.924 1.144-8.188a15.913 15.913 0 0 1 3.514-5.816 16.634 16.634 0 0 1 6.555-4.258 16.924 16.924 0 0 1 4.429-.933c.396-.037.794-.041 1.199-.051l.723-.003h1.454l6.686.071c-7.2.147-.739.465-3.449.847 7.345.275 9.824-.269 13.634-.525 1.871.348 3.202.633-3.359.582-.822.729 8.631-.126 9.229.625 21.735-.022 17.417-2.426 42.824-1.487l-.953.303c16.134-.377 25.442-.016 40.383-.254l11.764.771c-2.63.118-9.704.694-6.403 1.065-5.722-.779-11.794-.507-17.96-.925-.629.202 1.881.349 2.975.474-3.721-.007-5.588-.356-10.501-.221.237.161 5.598.354 1.558.449l-6.685-.479c-8.944.229-4.405 1.148-14.91.928 1.953-.428 5.942-1.047 10.01-1.149-4.8-.093 6.399-.259 2.019-.515-6.915.634-10.254.132-19.449.529 1.08-.088 1.365-.212 3.627-.251l-13.342-.268c3.301.371-11.021.407-9.779.958 14.219.229 10.041-.104 26.244.208-4.587.125-10.501.686-13.273 1.201-.141-.021-.375-.039-.873-.049-2.476.545.048.691 0 1.645 7.396-.678 12.341-.12 21.065-.51 1.64-.522-5.062-.666-9.398-.531l7.686-.346-1.513.24 19.507.175c-3.697.028-4.952.331-6.881.559 2.517.021 5.01.158 7.661.31-.557-.498-.206-.85 2.249-.84 12.551.119 19.528.566 24.16 1.135l1.461-.035c-2.104-.51 8.913-.917 12.802-1.439-.192.527 6.468.316 10.085.586 1.926-.605-.643-1.441-5.048-1.937-8.486.554-4.756.559-8.765 1.344l-13.613.524 3.043-.483c-6.794-.213-13.321.425-12.822-.204 3.59-.419 9.518-.165 13.08-.585l-4.494-.23c7.93-.618 4.064.595 13.665.164-3.531-.534.87-.038 4.982-.396-3.301-.372-16.904.152-14.019-.756 4.993-.396 16.797 1.064 23.403.162l-.323.103c9.745.117 13.17-.401 16.818-.728 4.147.294 9.873-.12 14.367-.153l-.11.264 6.341-.11c-3.019.481-7.431-.013-12.877.057l.677.491c-6.279-.583-10.467.303-15.336.726 7.087-.425 20.013.12 21.677-.839l4.384.495 2.098-.179c3.267.372-.069.955-6.403 1.066-1.1-.124-1.65-.186-1.317-.288-2.94.219-5.639.6-12.754.487l3.796-.26c-8.858-.035-16.911.154-19.944.637 12.788.205 25.363.248 37.371.226 3.542-1.109 7.744-1.731 9.549-2.762 8.057-.19 18.995-.332 25.992.045l-.643.203c3.414.105 6.561.05 9.185-.067 3.607.271-2.469.545.045.691l11.54-.346c-.712.467-10.423.469-15.034.502.87-.04 2.627-.117 2.063-.18-5.364-.192-15.356.603-17.702-.072-2.613.117 5.31-.498-3.538-.533-5.925-.254-7.854.352-8.473.554-.096.265 9.298.362 6.038.681 4.611-.033 6.447-.374 12.345-.119-4.57.032-10.777.568-13.211.158-9.037.493-7.74 1.733-3.479 1.801-1.015-.389 16.485-.479 4.635-.985 5.322-.5 15.047-.504 22.011-.816l-.316.1 8.645-.125c-1.218.139-3.831.257-3.917.52l11.974-.708c-6.74.476 4.178.33 7.245.54 1.282-.404 5.959-.7 1.472-.932-5.045-.293-2.937.219-7.524.25l6.496-.638.557.063 3.91-.522c8.848.037-3.865 1.213 7.472.703l-1.475-.711c13.125.105 29.98.905 39.255.577-2.559.404-3.687 1.055-.169 1.44-3.999-.123-12.035-.097-17.771-.03-1.104-.125 7.166-.841 13.396-.688-3.019-1.164-15.673.703-16.405-.477-15.876-.412-11.843 1.137-25.318.444-.186.527-3.83.257-4.539.722 3.989.86 18.015-.029 26.76.271-.856.038-2.579.117-2.916.217 6.251.154 8.833.037 13.2-.158l-.55-.063c7.63-.515 4.721.394 9.212.625 1.74-.078 7.984.074 6.98-.313l8.132.5-.392-.588c4.587-.034 5.591.354 9.748-.004l.193-.526-11.393-.183c5.773-.172 1.609-.504 7.953-.615-7.087.576 5.014.292 5.712.781l4.666-.296-1.193.14c3.662.271 4.36-.196 8.635-.127-5.041-.293-8.342-.664-14.766-.29 4.677-.296 13.95-.624 16.227-.642 4.91-.221 8.339.181 12.933.24-8.816.211 3.088 1.597-14.579 1.218.326-.101 1.757-.078 2.311-.016-2.355-.673-10.591.042-14.422.299.987.388-3.019.484 3.772.698-2.229-.248 5.722-.864 12.183-.546l-1.138.829 9.408.098-.881.039c1.77.267 4.278.241 7.155.188l4.545-.067 2.391.013 1.113.029.736.048c1.382-.148 4.675-.163 6.901-.25 1.107-.043 1.925-.104 2.062-.209.146-.105-.417-.253-1.808-.47.785.104 1.503.161 2.136.184-.709-.773-1.72-1.661-2.709-2.495-.999-.843-1.974-1.631-2.847-2.442l1.022 1.262.908 1.147c-1.914-1.494-2.34-1.846-2.854-2.223a7.928 7.928 0 0 0-.818-.517 10.791 10.791 0 0 0-.928-.456l-.188-.078c-.066-.028-.091-.013-.325-.205-.374-.695-1.422-2.006-.179-1.101-8.851-8.913-21.37-21.763-27.061-26.494-6.235-6.287-6.527-7.959-15.583-16.473-1.933-1.768.894 1.99-4.754-3.995-.348-.435 6.034 5.166-.489-1.266-5.063-4.162-10.585-11.084-16.978-16.693-1.503-1.666-3.644-3.857-5.222-5.534l-1.069-1.157a11.34 11.34 0 0 1-1.044-1.303c-.473-.709-.527-.991-.09-.578.384.52.802 1.039 1.27 1.521l1.033 1.059 2.056 2.074 4.069 4.029c2.568 2.508 4.676 4.493 5.302 4.948-.908-.478 3.361 3.778-.503.246 7.316 7.856 5.145 4.703 11.766 11.692.612.326-3.104-3.894-4.69-5.225.456-.519 13.655 13.184 8.19 6.55-7.23-7.314-10.406-8.458-16.195-15.273 2.823 2.229 6.523 6.432 10.244 9.13l-4.982-5.375-4.111-3.407.295.152c-4.351-4.796-6.591-6.787-8.798-8.569l-1.681-1.339-.897-.717-.486-.399c-.211-.193-.434-.384-.644-.603a12.88 12.88 0 0 1-2.411-3.341 13.354 13.354 0 0 1-1.4-5.201c.021 2.404.34 3.475.288 3.865-.018.39-.273.096-.531-.301-.259-.394-.503-.892-.601-.808-.079.078-.124.782.535 2.674a15.647 15.647 0 0 1-1.054-8.314c.381-2.543 1.348-4.676 2.415-6.231 1.07-1.566 2.195-2.578 3.032-3.17.841-.594 1.391-.788 1.502-.661a14.674 14.674 0 0 0-4.122 4.744c-.729 1.375-1.03 2.392-1.201 3.083-.311 1.395-.179 1.517-.108 1.584.096.067.158.092.122 1.268-.005.586-.026 1.466.142 2.76.178 1.283.539 3.02 1.643 5.047-.523-1.417.167-.52.41-.54.129-.006.128-.219-.098-1.025-.191-.806-.698-2.235-.677-4.756-.04-1.419.14-2.434.269-3.135l.28-1.3c.069-.403-.151-.022-.351.379-.194.401-.358.823-.292.419.041-.2.132-.61.391-1.307a12.6 12.6 0 0 1 1.57-2.911c.474-.536 1.019-1.023.816-.65 1.699-2.134 3.22-2.935 4.809-3.604.813-.32 1.684-.592 2.768-.801a15.591 15.591 0 0 1 4.063-.258s-.398-.021-.796-.008c-.396.001-.79.038-.79.038 2.046.136 3.565.593 4.803 1.059 1.231.488 2.199.994 3.072 1.581.436.295.854.603 1.255.959l.518.467.471.446a31.722 31.722 0 0 1 2.204 2.389c-1.136-1.86 2.812 2.217 5.358 4.313-1.829-1.966-3.127-3.593-4.908-5.66l-1.441-1.646-.819-.908a13.696 13.696 0 0 0-.592-.611 15.31 15.31 0 0 0-.743-.674c-2.074-1.754-5.183-3.319-9.162-3.36-.953.209-1.124.383-1.845.592l-1.617.467c-.761.242-1.808.591-3.16 1.336 0 0 .535-.295 1.387-.63.85-.335 2.026-.685 3.234-.842a14.281 14.281 0 0 1 3.341-.063c.91.09 1.506.233 1.506.233-2.078-.355-3.705-.232-5.554.172-.001 0-.571.083-1.409.304a14.054 14.054 0 0 0-5.577 3.007c-.655.576-1.042 1.015-1.042 1.015 1.937-2.245 3.681-3.188 4.773-3.786 1.124-.578 1.692-.816 2.042-1.015.352-.2.497-.328.873-.518.381-.166.993-.428 2.348-.588 2.938-.044 4.952.634 6.397 1.209a16.472 16.472 0 0 1 3.133 1.719 15.234 15.234 0 0 1 1.576 1.274l.441.42a75.804 75.804 0 0 1 1.884 1.933c-.762.077 9.743 11.178 15.719 17.695l-2.882-2.915c-4.802-4.272 2.772 3.472 2.824 3.755l3.517 3.097c-.651-.594-1.609-1.356-.259.113 4.554 4.398 4.71 3.722 9.258 8.112.104.567-4.025-2.861-1.367.04.756 1.16 3.271 4.748 9.412 10.481.51.333 2.099 1.822 3.921 3.568-.261-.235-.581-.538-.709-.633l3.691 4.196c-3.754-2.966-6.609-6.982-10.383-9.964l-.662.088c-2.629-2.627-6.36-6.035-8.196-7.482 3.943 4.071 4.886 4.816 9.444 9.22.391.864-2.941-2.116-3.422-2.545l.883.455c-5.034-5.655-8.349-7.631-14.932-14.353-.988-1.02-.349-.435-.054-.282-5.748-5.023-10.534-10.805-16.248-15.561l1.904 1.509c-1.861-1.693-4.628-4.224-7.84-7.084a9.536 9.536 0 0 0-6.055-2.127c-2.24.011-4.481.882-6.108 2.387l.078.205c.42-.243-.041.097-.662.748-.641.636-1.341 1.66-1.718 2.44v-.01a8.62 8.62 0 0 0-.036 6.022c.33.902.812 1.701 1.364 2.382.282.338.58.644.892.929l1.105 1.009-.639-.767-.35-.408a10.044 10.044 0 0 1-1.328-2.056c-.196-.236-.509-.84-.736-1.64a8.147 8.147 0 0 1-.251-2.713c.124-1.853.939-3.282.438-2.957.892-1.501 2.517-3.212 4.541-4.011 2.004-.854 4.204-.702 5.383-.209-1.102-.399-1.504-.454-1.39-.526.108-.06.715-.054 1.49.106.774.161 1.694.516 2.43.933.737.414 1.293.859 1.508.961 1.08 1.568 5.879 5.842 5.03 5.653.694.866-1.724-2.162-3.604-3.647-4.451-3.835 7.314 7.857 1.86 2.988 6.796 6.333 15.346 15.085 22.422 21.553l-3.655-3.926c2.962 3.059 10.159 10.109 10.532 10.802-2.276-2.199-4.886-4.817-7.813-7.612-.512.234 6.878 6.875 6.967 7.423l8.927 7.694-3.618-3.661c2.519 2.067 9.855 9.951 15.443 15.645-3.746-2.726-8.522-8.497-14.662-14.228-4.504-4.117 2.17 3.155-2.032-.803.938 1.177 3.615 3.825 5.057 5.01l1.517 1.702c-4.104-3.176-12.159-11.44-17.99-16.473.526.427.994.791 1.199.887-4.002-4.362-8.257-8.603-12.457-12.558 2.01 2.303 2.963 3.057 4.249 4.236.039.268-3.859-3.532-5.443-4.861 3.658 3.929.435.981 2.758 3.458-2.581-2.36-4.55-4.393-7.512-7.452-1.385-1.736 1.533 1.05 1.444.502-3.238-2.962-4.106-4.93-8.908-9.202 2.969 3.066 2.446 2.793.902 1.514-.771-.64-1.799-1.531-2.773-2.383a5.764 5.764 0 0 0-1.689-.956c.011-.018.712.423.7.441-1.507-.56-2.666-.685-3.769-.96 1.007-.174 2.022.049 2.658.268.637.224.976.375.812.051-1.236-.674-2.765-.929-4.294-.483 0 0 .334-.149.695-.253.359-.105.738-.165.738-.165s-.458-.022-1.129.088a6.209 6.209 0 0 0-2.295.877 6.417 6.417 0 0 0-1.782 1.694 5.798 5.798 0 0 0-.558.963c-.094.581-.122 1.346.034 2.038.145.694.457 1.291.781 1.621-.021.696.294 1.508.839 2.121.131.157.284.297.435.436l.864.793 1.595 1.447-.959-.757c3.37 3.783 11.501 11.568 12.386 12.025 2.364 2.747-19.424-16.702-1.162 1.163 6.868 6.864 4.959 3.595 9.114 7.278 0 0-.291-.151.054.283 2.955 3.055 3.517 3.097 6.097 5.458-1.698-1.906-4.305-4.522-5.245-5.264 1.189.619 6.233 6.284 8.761 8.361-3.428-2.548 5.642 5.977 3.096 3.883 5.693 6.26 12.432 12.302 15.895 15.116 3.504 4.608 7.186 7.039 13.512 13.876-.994-1.028-2.913-2.781-4.269-4.255-4.103-3.402 6.637 7.004.542 1.549 1.29 1.181.273-.098-1.049-1.31-2.255-2.175-4.495-4.108-4.098-3.392l5.055 5.674-1.957-1.788 7.712 8.569c.291.151-.385-.701-.732-1.135l4.826 4.951 6.613 6.634 13.966 13.86-17.305.018c-.441.349-3.298.562-7.675.696l-5.923.152-5.828.082c-8.106.083-17.12.097-21.847.526 2.534-.401 3.92-1.108 2.353-1.399 2.107-.059 6.423-.623 11.202-.506.764.225 6.668.479 2.868.735 13.211-.159-1.788-.613 2.111-1.133-14.639.136-23.225.954-32.464 1.283l-.233-.165-6.978.313c5.701.093 5.419.885-1.929.607l.894-.039c-4.191-.333-12.911.059-19.459.007l-4.438.458c-6.558-.052-6.84-.905-8.972-1.416-10.278-.06-16.213.639-23.514 1.055-3.301-.372-18.695-.46-10.539-.911-9.271.328-7.399 2.32-23.3 1.216l4.126-.359c-15.202.075-36.882.789-43.887.411 5.608-1.289-18.988-1.312-21.69-2.575.753.289-4.958.385-5.791.539-1.252-.148-3.335-.292-5.546-.031 5.928.254-4.168 1.312 7.166.802-5.736.866-13.125 1.543-25.69 1.5l.189-.527 9.941.16c-1.004-.389 4.112-.359 6.21-.539-18.493-.296 2.421-1.234-16.485-1.165-1.826.342-.643.201-5.557.336 2.311-.018 2.727-.381-.997-.388l-3.576.421c-6.602-.879 10.928-.572 5.295-1.19 7.3-.414 19.944-.635 17.588-1.308-11.921-.244-10.725 1.26-23.19.955l-1.327-.287c-4.384.195-5.093.659-7.493.939-.217-.163-1.331-.285-4.147-.332-7.403.678-12.317.811-19.146 1.55 18.177-.555 15.539.515 34.3.021-2.94.219-16.147.379-16.959 1.107l.175-.528c-6.1.274-12.197.546-19.858.372l4.676-.297c-10.154.367-16.88-.801-24.892.077 2.83.047 5.127.031 6.874-.049-5.227.235-11.784.182-17.465.093l-11.753.871c.103-.262-7.345-.277-3.751-.695-8.462-.401-12.451.385-17.341.516-8.666-.561 7.506-.25 8.355-.979a504.813 504.813 0 0 0-17.615-.044l-1.023.017-.506.009-.322.017a5.303 5.303 0 0 0-2.905 1.131c-1.021.809-1.569 1.861-1.757 2.717.581-1.142 1.144-1.475 1.177-1.353-.119.009-.583.491-.908 1.22-.334.722-.455 1.677-.389 2.365-.027.025.471.848.483.826.176 1.034.441 1.476.307 1.509-.104.028-.565-.364-.97-1.312.258 1.123 1.128 2.173 2.183 2.798a6.66 6.66 0 0 0 1.65.715c.283.082.568.15.857.211l.44.078c.045.016.218.026.351.039l.415.044c-.351.017-.708.034-1.069.053-.255.009-.51-.02-.767-.055a4.893 4.893 0 0 1-1.496-.49 5.295 5.295 0 0 1-2.221-2.215 5.594 5.594 0 0 1-.639-2.71c.008-.848.191-1.535.333-2.049a6.18 6.18 0 0 0-.349 2.78c.089.828.32 1.533.625 2.151.621 1.229 1.505 2.129 2.636 2.741a5.65 5.65 0 0 0 1.962.614l.285.026.465.02.975.035 2.106.058c2.963.063 6.591.068 11.419-.041.237.164-3.033.483.688.488 8.621-.127 2.252-.707 4.945-1.088-6.637.213-9.724.004-13.576-.428l1.771-.279c.268.145 4.436.152 5.664.293l1.073-.567c-.495.628 6.172 1.105 11.413.87-5.295-.455-3.865-.431-5.306-1.145 7.369-.678 8.314.664 16.574-.053-.619.201-7.83.352-1.599.506 5.158.027 4.47-.461 7.929-.617-3.896.523-2.895.911-7.118 1.531-9.164.066-3.697-.007-12.654.221l7.582.442c-7.764.085-5.646.599-6.286.798 13.259.532 9.993-.793 18.524-.656 4.112-.358-7.991-.076-1.558-.451 7.978.076 1.819-.341 10.773-.568l-1.499.24c2.737.311 5.443-.072 8.61-.125 3.483-.158-3.944-1.816 10.378-1.852-.702.146-.959.238-.959.299l-13.971 4.391c14.511-.01 31.233.111 48.038.406 3.958.857-11.994.707-10.966 1.094l-7.665-.176c.43-.363 16.058-.111 9.136-.755-13.534.261-19.676-.157-32.515.593 3.989.861 16.911-.152 25.263.513-3.507-.056-6.468.038-9.343.161l25.16.361 2.005-.207c-6.014-.098-10.175-.17-10.711-.201 7.974.074 14.7-.401 15.229-1.031l-1.417-.021 2.881-.197c1.874.043 3.745.083 5.605.123zm259.82 25.12c-.3.386-.52.705-.656.966.142-.271-.132-.082.656-.966zM64.699 244.766l-8.021-.073c-3.014.036-5.994 1.362-8.055 3.564-2.086 2.18-3.232 5.233-3.112 8.229.082 3.004 1.421 5.929 3.572 7.952-1.852-1.936-2.857-4.398-3.066-6.681a10.81 10.81 0 0 1 1.134-5.962c.83-1.59 1.907-2.691 2.834-3.385.934-.696 1.701-1.027 2.119-1.149.421-.12.491-.054.167.204-.315.267-1.04.738-1.976 1.716-.911.975-2.072 2.534-2.552 4.918a9.62 9.62 0 0 0 .081 4.025 9.45 9.45 0 0 0 2.318 4.319c0-.001.338.334.713.623.368.297.768.546.768.546-1.484-1.109-3.211-3.206-3.673-6.01a9.452 9.452 0 0 1 .266-4.33 9.44 9.44 0 0 1 2.3-3.856A9.632 9.632 0 0 1 55 246.453c1.089-.361 2.344-.427 3.596-.549l3.744-.36 6.381-.648c1.654-.179 2.685-.307 2.638-.343-1.871-.348-4.598.032-7.999-.074l1.339.287zm7.562 2.083c6.028.139 4.656-.137 5.591-.385l-6.333.094c.8.062 1.196.15.742.291zm5.23-.633c-.677-.006-1.255-.018-1.558-.051l1.558.051zm44.841 19.882-.619.015 4.34.059c-.578-.04-1.678-.071-3.721-.074zm-12.235-.608-1.43.455 4.068.052c-.457-.206-.935-.385-2.638-.507zm-39.323-1.493c-2.479.546-10.783.569-11.292 1.199-.53.161 1.217.224 3.177.274l6.998.053c.086-.092.578-.177 1.399-.259-2.445-.079-4.078-.235-3.088-.622 6.286.844 5.632-.6 12.427-.383 2.163-.444-7.561-.44-9.621-.262zm287.331-91.264c-.098-.175-.467-.744-1.001-1.527l3.604 3.165c5.941 6.134 10.138 11.61 16.122 16.495 2.405 2.681 3.475 4.335 4.535 5.876a200.118 200.118 0 0 1-3.302-3.458c-16.041-14.431-7.095-8.794-19.958-20.551zm67.685 69.252c-.645-.589-1.035-.834-1.035-.834l4.849 4.33c-3.309.215-6.848.392-10.402.537l-5.326.193-5.125.146c-6.517.167-12.129.222-16.679.202 1.994.458 11.22.813 15.601 1.002l-3.882.521-2.425-.41-6.739.474c1.884.351 7.327.278 10.966.547.079-.025.866-.082 2.054-.158l2.043-.127 2.698-.147c4.28-.205 8.656-.437 10.406-.598l-11.217-.36c2.863.142 16.758.031 22.189-.099-.147-.143-.252-.242-.352-.339-.095-.044-.07.034.062.219-1.229-.121-3.727-.241-5.891-.268-2.167-.028-4.071.036-4.279.282-.809-.194 1.488-.292 2.975-.393 1.515-.102 2.177-.207-1.375-.415 1.799-.108 3.912-.165 6.206-.186a333.792 333.792 0 0 1-6.946-7.059l-5.563-5.887-.065-.527-.092-.552-.791-.838-.606-.616c-.374-.37-.696-.666-.984-.915-.577-.498-1.021-.809-1.487-1.146-.931-.675-1.949-1.459-4.296-4.073 6.188 6.008-.525-1.537 4.359 3.28-1.375-1.723.456-.52-4.438-5.345-4.657-3.436-4.741-5.506-9.104-8.792-2.364-2.746 3.117 2.382-1.829-2.728-6.088-5.447-5.984-4.884-6.786-4.797 5.268 5.518 6.637 5.481 10.939 10l-9.534-8.012c1.51 1.725 2.695 2.932 3.729 3.906-1.807-1.719-3.417-3.104-4.854-4.23l-2.251-1.799c4.969 4.977 9.373 9.403 9.965 10.372l-.901-.47c1.563 1.958 4.587 4.672 6.067 5.837 4.476 4.429 9.223 8.575 9.916 9.827l-1.887-1.493 5.703 5.567c1.551 1.544 3.265 3.246 6.414 6.371zm-243.614 2.577c4.69 1.117 9.862 2.104 31.752 1.908l-1.723.077c11.031.701 21.508-.927 34.929-.148-6.513.421-6.162.383-13.352 1.346l6.987-.316c-1.936.608 5.034.293 10.161.322l-4.525.723c-3.077-.208-11.055-.283-10.821-.118 1.747-.08-10.532-.913-17.203-.703.688.49 14.772.292 8.483 1.092 5.543-.335 6.231.153 12.025-.019-5.557.336-1.375.668-5.512 1.025l9.501-.167c.248.163-13.837.362-6.052.965 3.806-.257 13.971.065 14.153-.462l.233.162c7.121.114 3.133-.747 11.877-.446.104-.265-1.564-.449-4.697-.394-2.647.118-3.053.48-8.507.554-2.445-.413 6.578.051 2.792-.646-1.881-.347-14.397.3-10.408-.484l7.107.113c.182-.528 5.33-.498 5.186-.924 4.347-.194 8.448.4 12.888-.059 1.843-.341-1.375-.976 5.97-.7 5.738.781 22.649.629 28.983.518l5.543-.337c-.471-.324-10.591.044-7.031-.377l8.645-.127-.667.203c2.864.045 5.794-.173 8.407-.289-2.692.38-8.924.228-7.686.777 4.058.108 4.677.313 8.411.207-.815.039-1.517.093-1.413.17 8.214.238 7.933-.615 9.992-.794 8.26-.716-8.325-.664-7.27-1.23l24.115-.303c-2.06.179-4.133.356-3.356.582 5.915.254.135.427 8.438.4-.592-.752 10.457-.469 16.323-.903 2.74.308 3.305.37-2.689.379.688.488 8.734.301 11.596.345 1.657-.121 4.483-.192 6.275-.301-2.4-.243-1.376-.549 3.82-.757l.302-.103c-8.517-.134-21.756-.667-27.096-.167l1.51-.242c-9.858-.422-21.453.877-25.999-.045.419-.365-1.981-.084-1.81-.611l-7.259.412 1.51-.239-12.348.119.326-.099-14.14 1.186c-.014.23.368.301-1.588.47a57.819 57.819 0 0 1-4.78.101c-.01.001-.01.001-.01.003v-.003c-3.029-.067-5.048-.397-8.779-.532l11.481-.057c.936-.391-.041-.796-5.666-1.069 2.3-.015 3.263-.319.416-.364-.313.102-7.524.25-4.776.561-10.907.143-28.564-.883-45.125-.141 11.897-.446-9.535-.523 3.672-.684-9.219-.625-7.933.615-17.331.518-.801-.225 5.117.029 7.276-.414-15.625-.25-26.364 1.009-41.48.82l-.646-.487-9.34.203zm-29.902.607-8.858.168.87.015-8.741.393c5.371.19 8.91.726 1.393.975.633-.202-1.564-.449 1.049-.566-5.038-.292-16.089-.576-13.208.161 9.68-.696 2.256.938 9.862.421-4.082.48-8.125.264-11.98.478 4.013-.401-.936-.91-6.963-1.101-2.624.119-9.724.005-14.084.2 1.554.45-2.242.708 4.862.821-2.606.118-6.64.212-11.158-.02 1.792-.077 4.924-.133 4.708-.296-2.916-.414-6.331-.396-8.215-.573l-4.494.072c.44.04.822.09 1.093.155l-4.993.397c6.65-.212 3.074.208 2.988.472.179-.527-4.281-.068-6.557-.051l4.945.557c-2.39.279-8.438-.402-7.19.149 10.491.221 14.525.126 24.012-.04l-3.851-.433c10.704-.306 6.602.742 18.613.721 4.993-.395 18.063-.027 18.311-.819-1.506.241 7.479.704 11.595.346 4.549-.724 18.307-.821 14.14-1.151-3.717-.009-8.72.389-11.708-.082l7.211-.151-4.732-.394c2.441.142 2.204-.244 1.08-.824zm-60.555 26.1.278.011-.31-.003.032-.008z"></path>
    <path d="M399.837 184.891c1.593 1.339 5.197 4.985 4.762 4.001-.214.389-6.524-6.431-4.762-4.001zM403.877 189.521c.327.183.265-.109 1.902 1.506l-4.555-4.402 2.653 2.896zM406.363 196.125c2.534 2.085 4.125 3.422 7.729 7.068.627 2.097-6.141-5.73-8.47-6.688 6.576 6.714 9.258 8.112 14.786 13.516-2.402-3.015-13.288-14.255-14.045-13.896zM402.482 194.102l3.861 3.53-.321-.408-3.864-3.532zM352.481 175.635c.103.563 2.632 2.64 3.922 3.819-.99-1.019-2.334-2.485-3.922-3.819zM347.339 374.618l.693.18a16.032 16.032 0 0 0 9.082-.528 15.927 15.927 0 0 0 5.216-3.118c.164-.143.319-.298.479-.449l.374-.371 1.207-1.227c1.64-1.665 3.389-3.441 5.137-5.218l13.988-14.21-12.337 12.501c-2.213 2.248-4.565 4.638-7.146 7.258l-.977.994a16.697 16.697 0 0 1-1.659 1.47 15.716 15.716 0 0 1-4.101 2.285 16.017 16.017 0 0 1-9.956.433zM403.741 242.457c2.677-.077 4.98-.169 7.103-.267l.313-.019.207-.019.404-.037.769-.075 1.413-.15c1.809-.196 3.336-.372 5.587-.443-1.964-.164-3.169-.182-4.245-.127-1.062.055-1.971.182-2.973.309l-.763.094-.395.044-.101.011-.207.011-.416.021c-1.109.054-2.235.099-3.409.125a99.053 99.053 0 0 1-7.905-.136l4.618.658zM407.518 239.866c1.773.612-8.26.717-6.706 1.166 7.215-.149 3.359-.583 9.907-.53l-3.201-.636zM415.875 225.389l2.521 2.07-1.93-1.765zM358.731 240.409l1.182-.138-5.367-.194zM361.096 240.13l-1.183.141 1.183-.141zM419.753 227.41l-3.319-3.504-1.886-1.488zM409.275 248.01l4.875-.196c-.259.009-.909.001-1.687-.011l-2.269-.031c-1.277-.007-2.142.032-.919.238zM325.95 240.149l-5.251.235.537.061 5.234-.235zM375.493 249.697c2.981.47-8.61.127-2.476.543 5.458-.073 3.243-.319 2.476-.543zM312.137 246.507c-.708 0-1.454.017-2.173.069l2.173-.069zM312.137 246.507c2.287 0 4.574.18 6.142.044-2.851-.213-3.889-.133-6.142-.044zM285.939 246.616l2.073.034c-2.118.232-1.114.198.777.011 2.197-.016 2.073-.165 2.335-.267l1.352-.183-1.802.17c-3.404-.003-5.481.02-4.735.235zM188.616 238.691c7.658.175 9.639.26 9.223.625 7.269.116 6.141-.512 10.525-.658-8.225.07-9.907-.098-19.748.033zM208.364 238.657l2.871-.029a67.723 67.723 0 0 0-2.871.029zM316.56 250.608l-4.76.559 1.747-.078zM177.252 238.507c1.42.023 3.696.007 4.814.132.409-.366-6.231-.154-4.814-.132zM206.786 245.665c.777.224 5.677.09 7.671.176-2.861-.047-5.192-.72-7.671-.176zM155.282 240.013c1.42.023 3.604.269 2.658.571 2.064-.178 4.856-.823-2.658-.571zM192.791 245.6l1.093.124 5.24-.234zM211.483 250.991c5.894-.436-9.35-1.051.801-1.42-13.094-.456 1.004.617-8.655.546 5.656.148 8.428.699 7.854.874zM203.629 250.118c-.822-.023-1.712-.036-2.679-.038l2.679.038zM120.68 247.361c.856-.046 1.44-.096 1.98-.147a40.34 40.34 0 0 0-1.98.147zM172.781 250.478l8.833-.654c-5.9.436-20.745.409-19.82 1.06 4.807.132 10.591-.041 12.967-.322l-1.98-.084zM71.384 238.667l3.817-.258-4.766-.076c1.365.098-1.104.576.949.334zM69.513 238.32l.921.014a9.298 9.298 0 0 0-.921-.014zM137.388 247.045c2.854.046 5.137.028 7.74-.088-1.079-.123-8.191-.238-7.74.088zM41.455 250.822s.183-.623.57-1.513c.382-.892.997-2.038 1.757-3.085a16.633 16.633 0 0 1 2.379-2.634c.724-.647 1.259-1.018 1.259-1.018s-.587.399-1.377 1.107a16.493 16.493 0 0 0-4.376 6.344c-.382.994-.547 1.685-.547 1.685l.16-.446c.08-.223.175-.44.175-.44zM67.473 273.492l1.086.123 5.223-.233-1.103-.122zM55.423 251.596c.472-.149.925-.25 1.352-.32.12-.029.636-.061 1.008-.092l1.04-.108c1.228-.153 1.783-.331 1.224-.392l-1.294.004-1.326.004-.37.001-.23.007c-.137-.001-.274.02-.411.03a5.39 5.39 0 0 0-1.446.379c-.377.158-.608.308-.608.308.604-.05.851-.138 1.281-.322.215-.083.475-.187.849-.246.094-.008.193-.03.302-.033.105-.005.196-.015.474-.013l1.597.021-.829.078-.85.08c-.188.013-.256.034-.333.051a2.083 2.083 0 0 0-.245.06c-.654.167-1.185.503-1.185.503zM285.658 272.535c-1.85.342-10.907.145-11.382-.181 1.218-.142 6.128-.276 3.044-.483l-7.166.84c-9.532-.523 7.245-1.104 11.952-1.4-9.711-.107-12.589.444-22.918.441 3.046.074 4.972.284 6.581.465.351.59-9.274.328-16.154.375 4.381.258 1.846.474-1.345.705-.574.02-.956.053-1.228.092l-1.083.084.825-.002c-.059.066.124.146.719.256 5.773-.172 10.188.322 13.905.33-3.672-.961 12.658-.223 17.331-.518l5.395-.096 2.019-.002c.406.105-.168.238-3.246.428 2.569-.189 11.135-.123 10.344-.432l19.549-.014a20.33 20.33 0 0 1 1.667.158c.678-.061.791-.111.702-.16l85.17-.061c-4.201-.076-7.836-.295-12.169-.402 6.503-.638-7.104-.115-5.195-.719 2.923-.219 7.2-.15 9.748-.003.949-.305-2.682-.575-2.263-.938-10.742-.383-12.386 1.074-22.887.854.416-.365 3.662-.686-3.212-.636l1.747-.079c-11.008.409-8.576-.825-15.505.176l.182-.527c-4.992.398-14.706.4-20.181.473l.326-.102c-15.356.604-8.62.129-25.864.381l7.936-.615c-5.948-.254-7.289.415-11.561.346.307-.102-.684-.486 3.35-.582l-20.924.938c-4.993.396 1.015.385 1.791.61z"></path>
    <path d="M259.189 271.752a94.67 94.67 0 0 0-3.852-.02l3.852.02zM406.323 273.355l-5.983.006c1.853.031 3.785.041 5.983-.006zM229.197 272.902c3.627.273-2.716.382-3.349.584l12.994-.01c-.058-.203 1.228-.43.966-.615l-10.611.041zM242.604 273.859c.44-.141 1.815-.268 3.356-.387l-7.118.004c.045.153.843.291 3.762.383zM241.229 263.019l2.3-.018 3.48-.157zM277.206 263.912c-2.747-.308-7.96-.074-9.703.004 6.007-.01 3.404.107 9.703-.004zM269.782 260.612l5.791-.175-.54-.06zM413.151 276.237l-1.928 1.977 1.156-1.168.772-.809z"></path>
    <path d="M400.859 271.783c13.813.592-9.051.492-4.711 1.25l7.517-.25-.64.203 8.212-.066a.76.76 0 0 0-.1-.117l-.054-.049c-.017-.008-.001-.016-.044-.023l-.148-.021-1-.15c-.537-.095-.788-.191-.584-.375l1.828.029.389.031c.224.022.379.048.489.075.218.055.254.118.259.192-.02.148-.031.336.304.566.432-.014.863-.027 1.26-.027l-.416.47a.637.637 0 0 0-.114-.04c-.09.102-.048.124.024.136l-.694.745-.353.376-.197.211-.629.643-5.955 6.015-16.218 16.378c-5.726 6.136 3.745-2.815-.249 1.939 6.872-6.875 17.362-16.814 17.431-17.913-.16.302-.473.898.981-.434l3.552-4.399-3.927 3.655c.894-1.104 2.377-2.734 4.14-4.59l.673-.706.172-.179.08-.084.015-.019.06-.071.242-.283c.165-.187.337-.368.518-.547.701-.693 1.64-1.454 2.362-1.914-.546.689-.357.828-.441 1.133-.043.154-.163.358-.499.717-.33.353-.892.874-1.687 1.53.228.034 1.176-.455.445.418 1.628-1.747 3.17-3.286 4.742-4.867-1.688.005-3.405.015-5.115.07l-1.269.05-.312.017-.666.017-1.902.039-7.771.219zM343.771 372.442l-.211-.054c.422.221.568.274.211.054zM337.999 366.023s-.415-.682-.866-1.795a15.763 15.763 0 0 1-1.056-4.283 16.144 16.144 0 0 1 .188-4.474c.228-1.217.512-2.004.512-2.004s-.126.299-.294.84a15.58 15.58 0 0 0-.547 2.274c-.332 1.902-.329 4.532.401 7.02.689 2.497 2.092 4.753 3.378 6.179a15.66 15.66 0 0 0 1.659 1.629c.424.368.688.554.688.554 0-.001.372.13.748.233.372.111.749.192.749.192-.785-.397-2.669-1.609-4.147-3.437-1.526-1.792-2.513-4.138-2.756-5.488 0 0 .272.679.615 1.317.332.646.728 1.243.728 1.243z"></path>
    <path d="M343.929 343.751c-4.552 4.853-3.879 5.015-1.124 2.64a48.007 48.007 0 0 1-1.306 1.381c-.428.42-.765.751-1.037 1.02l-1.374 1.432a5.552 5.552 0 0 0-.865 1.161c-.311.568-.751 1.441-1.118 3.035.228-.02 1.14-2.888 3.318-5.29l2.349-2.473 1.485-1.596-.328-1.31zM378.846 309.273l-1.149 1.496 3.303-3.213zM377.697 310.769l-3.281 3.187c.353-.095.699-.19 1.314-.631l1.967-2.556zM365.81 322.322a408.075 408.075 0 0 0-4.793 4.66l4.793-4.66zM369.615 318.73l-.164.055-3.641 3.537 3.805-3.592zM374.415 313.956c-.817.233-1.739.542-6.334 5.299l1.369-.47 4.965-4.829zM311.899 261.234l5.23-.233-.554-.064-5.226.235zM342.075 261.612a95.317 95.317 0 0 0 3.164-.228c-1.362.046-2.445.116-3.164.228zM364.509 258.789c6.152.416-8.486.551 2.906.734 1.004.387-4.337.887-9.7.693.426-.363 5.227-.232 1.929-.604-3.563.421-4.917.134-3.676.683-5.994.343-6.661.732-10.729 1.09 7.245-.242 22.457.322 31.652-.383 5.068-.66 1.994-1.561 2.015-2.514-.763-.224-13.902-.33-14.397.301zM354.829 257.838c-2.847-.047-3.717-.008-5.464.07.472.326 3.165-.055 5.464-.07zM421.365 265.015c.378-.068 2.074-.145 3.604-.232 1.524-.088 2.893-.189 2.438-.307l-9.384.172c2.123.023 2.711.188 3.342.367zM414.011 264.72l4.012-.072a82.078 82.078 0 0 0-4.012.072zM421.682 265.099l-.317-.084c-.156.028-.164.057.317.084zM352.242 335.553c-.107-.263-2.458 2.309-3.638 3.599 1.02-.988 2.491-2.338 3.638-3.599zM420.983 311.767l2.322-2.028c-.857.682-1.294 1.032-2.322 2.028zM449.408 273.238c.027-.1.157-.29.346-.534-.193.239-.313.421-.346.534zM449.754 272.704c1.33-1.639 6.156-5.986 7.569-7.867l-.138.28 2.929-3.206c-2.855 2.896-8.92 8.904-10.36 10.793z"></path>
  </g>
</svg>
