<svg xmlns="http://www.w3.org/2000/svg" viewBox="0 0 32 32" id="setting">
  <path d="M19.18 15.65 29.79 5a.47.47 0 0 0 .12-.2L31 1.66a.5.5 0 0 0-.66-.66l-3.18 1.09a.47.47 0 0 0-.2.12L16.35 12.82l-1.25-1.26 1.13-4.15A2.5 2.5 0 0 0 15.59 5l-3.84-3.85a.48.48 0 0 0-.48-.15l-3.34.91a.5.5 0 0 0-.35.35.52.52 0 0 0 .13.48l3.44 3.46a.52.52 0 0 1 .14.43l-.61 3.64a.49.49 0 0 1-.41.41l-3.64.61a.53.53 0 0 1-.43-.14L2.76 7.71a.52.52 0 0 0-.48-.13.5.5 0 0 0-.35.35L1 11.27a.48.48 0 0 0 .13.48L5 15.59a2.51 2.51 0 0 0 2.43.64l4.15-1.13 1.26 1.25-2.24 2.24-.35-.35a.51.51 0 0 0-.7 0L1.8 25.36a2.44 2.44 0 0 0-.8 1.78A2.52 2.52 0 0 0 1.73 29L3 30.27a2.51 2.51 0 0 0 1.81.73h.05a2.48 2.48 0 0 0 1.78-.8l7.14-7.73a.51.51 0 0 0 0-.7l-.35-.35 2.24-2.24 11.06 11.09a2.51 2.51 0 0 0 1.77.73h.2a2.54 2.54 0 0 0 1.84-1 2.58 2.58 0 0 0-.35-3.29ZM27.59 3l2.12-.71L29 4.41 18.47 14.94l-1.41-1.41ZM5.91 29.52a1.5 1.5 0 0 1-2.16 0l-1.31-1.27A1.49 1.49 0 0 1 2 27.16a1.5 1.5 0 0 1 .48-1.07l7.38-6.81 2.86 2.86Zm6.79-8.81-1.41-1.41 2.24-2.24 1.41 1.41Zm17 8.66a1.5 1.5 0 0 1-2.29.19L12.07 14.19a.51.51 0 0 0-.36-.15h-.13l-4.44 1.23a1.5 1.5 0 0 1-1.45-.39l-3.63-3.63L2.67 9l2.82 2.82a1.48 1.48 0 0 0 1.31.42l3.63-.6a1.51 1.51 0 0 0 1.24-1.24l.6-3.63a1.48 1.48 0 0 0-.42-1.31L9 2.67l2.22-.61 3.63 3.63a1.51 1.51 0 0 1 .39 1.46l-1.21 4.43a.5.5 0 0 0 .13.49l15.3 15.29a1.59 1.59 0 0 1 .27 2.01Z"></path>
</svg>
