<svg xmlns="http://www.w3.org/2000/svg" xml:space="preserve" width="512" height="512" id="snapchat">
  <path fill="#1A1A1A" fill-rule="evenodd" d="M434.478 16H77.519C43.718 16 16 43.721 16 77.521v356.957C16 468.278 43.718 496 77.519 496h356.959C468.281 496 496 468.278 496 434.479V77.521C496 43.721 468.281 16 434.478 16zM415 343.98c0 .036-.064.036-.064.059-2.721 3.786-6.688 5.107-9.342 6.246a.736.736 0 0 0-.238.08c-7.164 2.554-14.708 5.527-23.068 6.5-.178.015-.378.015-.548.015-2.496-.029-4.691.588-5.983 1.828-2.844 3.25-3.805 8.474-5.567 14.277a4.1 4.1 0 0 1-.355.776c.475-.805.203-.348-.076.653-.131.5-.323 1.168-.994 2.038-.679.813-2.054 1.676-3.313 1.843-.344.029-.667.132-1.001.103-9.598-1.291-19.313-1.398-28.972-1.398h-.167c-5.257 0-9.979.173-13.792 1.536-.018 0-.036-.028-.051-.028-11.677 5.143-22.342 13.301-34.341 20.113-.069.028-.131.186-.232.222-5.304 3.374-11.376 5.157-17.651 6.157h-.127c-7.327 0-14.832 1-22.464 0h.348v.277c-11-.326-19-4.984-27-9.736v.021c0-.021.026.153 0 .153C208.607 388.838 198.53 381 186.872 378h-.022c-11.104-3-23.204-1.125-35.331.979-.12.036-.25-.069-.392-.055-.287.021-2.101 1.094-5.397.397-1.4-.283-2.612-1.427-3.008-2.776-1.498-4.919-2.093-9.625-3.366-13.609-.91-2.168-1.32-3.495-1.502-3.814-3.921-1.661-8.745-2.304-13.954-3.486-.036 0-.069-.001-.087-.022-7.248-1.836-15.159-3.629-22.422-7.764-.065-.059-.127-.074-.188-.11-1.149-.624-2.481-1.465-3.682-2.895-1.259-1.517-2.264-4.251-1.386-6.798a3.84 3.84 0 0 1 .45-.899c2.658-3.976 6.841-4.39 8.611-5.064.108-.043.232-.102.352-.13 8.619-2.3 17.006-6.051 24.337-11.05C143.854 311.319 155 298.217 163 283.119v-.021c3-5.659 4.882-11.621 3.697-16.735-.922-4.02-5.134-7.362-9.849-9.362h-.029c-6.798-2-14.607-4.609-21.674-9.324-.076-.055-.135-.056-.196-.096-.849-.656-2.213-1.446-3.638-2.693-1.448-1.227-3.069-3.157-3.566-5.762-.018-.021 0-.054-.018-.09a3.457 3.457 0 0 1-.055-.766c.159-4.426 3.341-6.985 5.655-8.487.065-.051.119-.086.182-.141.036-.015.09-.062.127-.08 2.836-2.111 6.555-3.177 10.359-2.317.072.018.138-.088.199-.059 3.896 1.074 7.346 2.814 10.578 2.814h.069c4.723 1 9.492 1.296 13.867.512.055-.203-.042-.236.03-.573.897-8.939.262-18.308-.738-28.018v-.019c-1-13.828-1.166-28.751 4.399-42.774 0-.025.048-.065.07-.091 5.815-13.606 15.107-25.816 26.886-34.994 15.718-12.312 35.79-17.444 55.19-17.558 4.774-.064 9.599.515 14.463.515h.036c14.332 1 28.457 6.015 40.337 14.351 16.36 11.521 29.273 28.832 32.959 48.917 0 .04-.117.124-.1.171 1.69 11.916 1.76 23.756.76 35.24v.04c0 7.574-.446 15.281-.203 22.281h-.04c.135 1 .152 1.945.189 2.402 3.25 1.189 7.433.927 11.734.169.084-.015.146-.081.218-.087 3.025-.359 6.294-2.023 10.291-3.246.021 0 .051-.238.08-.238h.018c3.7-1 7.984-1 11.645 1h.018c2.202 2 5.051 3.517 7.051 6.978v.021c1 1.684.651 3.566.264 5.093-.138.505-.356.947-.552 1.347-.82 1.646-1.944 2.749-2.848 3.602-.012.025-.063.044-.08.083-5.866 5.119-12.964 7.73-19.462 9.958-.033 0-.062.018-.072.036-5.872 2.147-11.381 4.896-14.388 9.146-.019.021-.056.059-.063.072-1.93 2.554-1.861 6.791-.548 10.665 0 .036 0 .072.014.108 3.327 8.932 8.354 17.274 14.325 24.986 10.712 13.799 25.08 25.152 41.676 30.435.062.021.279.021.327.036 2.455.893 6.407 1.24 10.407 3.707v-.015c0 .015-.156.036-.12.036.108.073.116.095.225.182l-.108.059c3.221 1.951 4.004 6.289 2.004 9.438v.007z" clip-rule="evenodd"></path>
</svg>
