<svg xmlns="http://www.w3.org/2000/svg" width="24" height="24" fill="none" viewBox="0 0 24 24" id="clapperboard-edit">
  <path fill="#111" fill-rule="evenodd" d="M11.9426 1.25H12.0574C14.3658 1.24999 16.1748 1.24998 17.5863 1.43975C19.031 1.63399 20.1711 2.03933 21.0659 2.93414C22.2536 4.12187 22.5836 5.74802 22.694 7.96266C22.7146 8.37636 22.3959 8.72845 21.9822 8.74907C21.5685 8.76969 21.2164 8.45104 21.1958 8.03734C21.0875 5.86509 20.765 4.75455 20.0052 3.9948C19.4355 3.42514 18.6648 3.09825 17.3864 2.92637C16.0864 2.75159 14.3782 2.75 12 2.75C9.62178 2.75 7.91356 2.75159 6.61358 2.92637C5.33517 3.09825 4.56445 3.42514 3.9948 3.9948C3.42514 4.56445 3.09825 5.33517 2.92637 6.61358C2.75159 7.91356 2.75 9.62178 2.75 12C2.75 14.3782 2.75159 16.0864 2.92637 17.3864C3.09825 18.6648 3.42514 19.4355 3.9948 20.0052C4.47928 20.4897 5.10692 20.7966 6.06179 20.9836C7.03759 21.1747 8.2972 21.2303 10.0064 21.2448C10.4206 21.2483 10.7535 21.5869 10.75 22.0011C10.7465 22.4153 10.4078 22.7483 9.99364 22.7448C8.28967 22.7303 6.90193 22.6767 5.77345 22.4556C4.62404 22.2305 3.69048 21.8222 2.93414 21.0659C2.03933 20.1711 1.63399 19.031 1.43975 17.5863C1.24998 16.1748 1.24999 14.3658 1.25 12.0574V11.9426C1.24999 9.63423 1.24998 7.82519 1.43975 6.41371C1.63399 4.96897 2.03933 3.82895 2.93414 2.93414C3.82895 2.03933 4.96897 1.63399 6.41371 1.43975C7.82519 1.24998 9.63423 1.24999 11.9426 1.25Z" clip-rule="evenodd"></path>
  <path fill="#111" fill-rule="evenodd" d="M1.75 8C1.75 7.58579 2.08579 7.25 2.5 7.25H22V8.75H2.5C2.08579 8.75 1.75 8.41421 1.75 8Z" clip-rule="evenodd"></path>
  <path fill="#111" fill-rule="evenodd" d="M10.9027 1.86725C11.2521 2.08964 11.3551 2.5532 11.1327 2.90266L7.63275 8.40266C7.41037 8.75211 6.9468 8.85513 6.59734 8.63275 6.24789 8.41037 6.14487 7.9468 6.36725 7.59734L9.86725 2.09734C10.0896 1.74789 10.5532 1.64487 10.9027 1.86725zM17.4027 1.86725C17.7521 2.08964 17.8551 2.5532 17.6327 2.90266L14.1327 8.40266C13.9104 8.75211 13.4468 8.85513 13.0973 8.63275 12.7479 8.41037 12.6449 7.9468 12.8673 7.59734L16.3673 2.09734C16.5896 1.74789 17.0532 1.64487 17.4027 1.86725zM18.4488 12.988C19.4328 12.004 21.0281 12.004 22.012 12.988 22.996 13.9719 22.996 15.5672 22.012 16.5512L17.7604 20.8029C17.7502 20.8131 17.7401 20.8231 17.7302 20.833 17.4994 21.0639 17.3387 21.2246 17.1585 21.3652 16.9467 21.5304 16.7175 21.6721 16.4749 21.7877 16.2686 21.886 16.053 21.9578 15.7433 22.061 15.73 22.0655 15.7165 22.07 15.7028 22.0745L14.2262 22.5667 13.8653 22.687C13.4243 22.834 12.9381 22.7192 12.6095 22.3905 12.2808 22.0619 12.166 21.5757 12.313 21.1347L12.9255 19.2972C12.93 19.2835 12.9345 19.27 12.939 19.2567 13.0422 18.947 13.114 18.7314 13.2123 18.5251 13.3279 18.2826 13.4696 18.0533 13.6348 17.8415 13.7754 17.6613 13.9361 17.5006 14.167 17.2698 14.1769 17.2599 14.1869 17.2498 14.1971 17.2396L18.4488 12.988zM20.9514 14.0486C20.5532 13.6505 19.9076 13.6505 19.5095 14.0486L19.3777 14.1803C19.3829 14.1966 19.3885 14.2133 19.3944 14.2305 19.4762 14.4661 19.6315 14.7784 19.9266 15.0734 20.2216 15.3685 20.5339 15.5238 20.7695 15.6056 20.7867 15.6115 20.8034 15.6171 20.8197 15.6223L20.9514 15.4905C21.3495 15.0924 21.3495 14.4468 20.9514 14.0486zM19.6857 16.7562C19.4193 16.6068 19.1372 16.4054 18.8659 16.1341 18.5946 15.8628 18.3932 15.5807 18.2438 15.3143L15.2578 18.3003C14.9856 18.5725 14.8944 18.6655 14.8176 18.764 14.7193 18.8899 14.6351 19.0262 14.5664 19.1704 14.5127 19.2831 14.4703 19.4063 14.3485 19.7715L14.0029 20.8084 14.1916 20.9971 15.2285 20.6515C15.5937 20.5297 15.7169 20.4873 15.8296 20.4336 15.9738 20.3649 16.1101 20.2807 16.236 20.1824 16.3345 20.1056 16.4275 20.0144 16.6997 19.7422L19.6857 16.7562z" clip-rule="evenodd"></path>
</svg>
